<?xml version="1.0" standalone="no"?>
<!DOCTYPE svg PUBLIC "-//W3C//DTD SVG 1.1//EN" "http://www.w3.org/Graphics/SVG/1.1/DTD/svg11.dtd" >
<svg xmlns="http://www.w3.org/2000/svg" xmlns:xlink="http://www.w3.org/1999/xlink" version="1.1">
<metadata></metadata>
<defs>
<font id="asapsymbol" horiz-adv-x="655" >
<font-face units-per-em="2048" ascent="1638" descent="-410" />
<missing-glyph horiz-adv-x="491" />
<glyph unicode="&#xfb01;" horiz-adv-x="1153" d="M70 963v28q0 80 49 80h63v176q0 86 23 147.5t64 94.5t88 48t104 15q174 0 174 -79q0 -23 -15 -70t-36 -47q-6 0 -29.5 4t-48.5 4q-47 0 -70.5 -25.5t-23.5 -97.5v-170h145q49 0 49 -80v-28q0 -80 -49 -80h-145v-834q0 -53 -101 -53h-30q-99 0 -99 53v834h-63 q-49 0 -49 80zM764 1348v141q0 53 100 53h39q98 0 98 -53v-141q0 -54 -98 -54h-39q-100 0 -100 54zM768 49v973q0 53 100 53h29q100 0 100 -53v-973q0 -53 -100 -53h-29q-100 0 -100 53z" />
<glyph unicode="&#xfb02;" horiz-adv-x="1210" d="M70 963v28q0 80 49 80h63v176q0 86 23 147.5t64 94.5t88 48t104 15q174 0 174 -79q0 -23 -15 -70t-36 -47q-6 0 -29.5 4t-48.5 4q-47 0 -70.5 -25.5t-23.5 -97.5v-170h145q49 0 49 -80v-28q0 -80 -49 -80h-145v-834q0 -53 -101 -53h-30q-99 0 -99 53v834h-63 q-49 0 -49 80zM758 291v1198q0 53 100 53h29q100 0 100 -53v-1192q0 -68 24 -95.5t70 -27.5q24 0 46.5 4t27.5 4q22 0 36.5 -47.5t14.5 -71.5q0 -77 -170 -77q-56 0 -103.5 15.5t-88 49t-63.5 95t-23 145.5z" />
<glyph horiz-adv-x="0" />
<glyph horiz-adv-x="682" />
<glyph unicode=" "  horiz-adv-x="491" />
<glyph unicode="&#x09;" horiz-adv-x="491" />
<glyph unicode="&#xa0;" horiz-adv-x="491" />
<glyph unicode="!" horiz-adv-x="602" d="M182 49v160q0 53 101 53h47q100 0 100 -53v-160q0 -53 -100 -53h-47q-101 0 -101 53zM213 485v899q0 54 100 54h62q98 0 98 -52q-15 -161 -76 -901q-3 -28 -20.5 -40.5t-61.5 -12.5h-22q-44 0 -62 13t-18 40z" />
<glyph unicode="&#x22;" horiz-adv-x="653" d="M74 1366v18q0 54 100 54h21q98 0 98 -54q0 -8 -8 -74.5t-19.5 -162t-17.5 -148.5q-8 -38 -55 -38h-19q-49 0 -55 38zM358 1366v18q0 54 101 54h20q99 0 99 -54q0 -8 -8.5 -74.5t-20 -162t-17.5 -148.5q-8 -38 -55 -38h-18q-50 0 -56 38z" />
<glyph unicode="#" horiz-adv-x="1093" d="M23 469v29q0 80 49 80h161l50 268h-138q-26 0 -37.5 18.5t-11.5 59.5v28q0 80 49 80h170l60 320q5 28 26 40.5t74 12.5h17q71 0 71 -37l-61 -336h221l57 320q5 28 27.5 40.5t75.5 12.5h16q74 0 74 -37l-62 -336h109q49 0 49 -80v-28q0 -41 -11.5 -59.5t-37.5 -18.5h-143 l-48 -268h125q50 0 50 -80v-29q0 -80 -50 -80h-161l-62 -340q-5 -27 -27 -40t-71 -13h-17q-39 0 -56 9t-17 32q0 4 1.5 12t6 32.5t10.5 57.5t18.5 101.5t26.5 148.5h-219l-63 -340q-6 -28 -27.5 -40.5t-71.5 -12.5h-16q-39 0 -56.5 9t-17.5 32q0 6 64 352h-127q-49 0 -49 80 zM422 578h221l47 268h-219z" />
<glyph unicode="$" horiz-adv-x="1015" d="M57 150q0 34 36.5 87.5t60.5 53.5q8 0 37.5 -16t66 -35t97 -36t122.5 -18v445q-149 58 -210 96q-162 99 -180 274q-3 25 -3 52q0 166 109 266.5t284 120.5v76q0 24 11 34.5t36 10.5q26 0 37.5 -10t11.5 -35v-74q119 -3 222.5 -41t103.5 -86q0 -33 -31 -86t-55 -53 q-9 0 -40 15.5t-84 31.5t-116 18v-403q42 -16 61.5 -24t60 -26t61 -30.5t54 -35t52 -42.5t41.5 -50t34 -61.5t19.5 -71.5t8.5 -85q0 -190 -108 -298t-284 -124v-99q0 -24 -11 -34.5t-36 -10.5q-26 0 -37.5 10t-11.5 35v97q-91 2 -172 19t-134 41.5t-83.5 51.5t-30.5 50z M322 1061q0 -66 40 -107.5t115 -74.5v354q-77 -15 -116 -60t-39 -112zM573 199q70 18 112 69t42 127q0 68 -40.5 113t-113.5 80v-389z" />
<glyph unicode="%" horiz-adv-x="1566" d="M109 1108q0 340 292 340q44 0 82 -8t77.5 -31t67.5 -59.5t46 -98.5t18 -143q0 -80 -18 -141.5t-46.5 -97.5t-68 -58.5t-77.5 -30.5t-81 -8q-44 0 -82.5 8t-78.5 30.5t-67.5 58.5t-45.5 97t-18 142zM276 1108q0 -30 2 -54.5t10 -53t21 -47.5t36.5 -31.5t55.5 -12.5 q127 0 127 199q0 40 -4.5 70.5t-16.5 63t-39 50t-67 17.5q-39 0 -66 -18t-38.5 -50t-16 -62.5t-4.5 -70.5zM324 12q0 12 8 25l749 1358q26 47 86 47h45q22 0 35 -6.5t13 -16.5q0 -6 -11 -24l-749 -1358q-24 -47 -84 -47h-45q-47 0 -47 22zM883 324q0 338 293 338q44 0 82 -8 t77.5 -31t67 -59.5t45.5 -98t18 -141.5q0 -99 -26 -169t-71 -104.5t-91.5 -48.5t-101.5 -14q-57 0 -104 14t-92 48.5t-71 104t-26 169.5zM1051 324q0 -40 4.5 -70.5t16 -62.5t38.5 -50t66 -18q127 0 127 201q0 39 -4.5 69.5t-16.5 62.5t-39 50t-67 18q-125 0 -125 -200z" />
<glyph unicode="&#x26;" horiz-adv-x="1277" d="M78 416q0 141 69.5 239t180.5 133v9q-91 37 -147 115.5t-56 185.5q0 166 114 258t302 92q196 0 196 -74q0 -42 -16 -86.5t-39 -44.5q-2 0 -41.5 8.5t-73.5 8.5q-60 0 -103.5 -17.5t-65.5 -47.5t-32 -62t-10 -68q0 -85 63.5 -149t182.5 -64h221l25 205q6 55 86 55h39 q80 0 80 -55v-205h139q27 0 39 -19t12 -61v-29q0 -42 -12 -60.5t-39 -18.5h-139v-367q0 -68 24 -95.5t70 -27.5q24 0 46.5 4t27.5 4q22 0 36.5 -47.5t14.5 -71.5q0 -77 -170 -77q-143 0 -215 86q-154 -86 -350 -86q-90 0 -170.5 26.5t-146 77.5t-104 135t-38.5 191zM313 420 q0 -65 22 -114.5t60 -77t81 -41t91 -13.5q125 0 258 65q-2 20 -2 29v396h-231q-139 0 -209 -57.5t-70 -186.5z" />
<glyph unicode="'" horiz-adv-x="374" d="M84 1366v18q0 54 100 54h21q98 0 98 -54q0 -8 -8 -74.5t-19.5 -162t-17.5 -148.5q-8 -38 -55 -38h-19q-49 0 -55 38z" />
<glyph unicode="(" horiz-adv-x="616" d="M109 586q0 291 91.5 549t254.5 442q24 27 49 27q26 0 56 -22t30 -48q0 -19 -17 -43q-266 -394 -266 -905q0 -507 266 -901q15 -21 15 -41q0 -25 -28 -49.5t-56 -24.5q-25 0 -49 27q-163 184 -254.5 441.5t-91.5 547.5z" />
<glyph unicode=")" horiz-adv-x="616" d="M23 -358q0 16 12 34q272 394 272 910q0 511 -266 905q-14 20 -14 41q0 23 28 48.5t54 25.5q25 0 51 -29q162 -185 254 -443t92 -548q0 -289 -92 -547t-254 -442q-24 -27 -49 -27q-28 0 -58 23.5t-30 48.5z" />
<glyph unicode="*" horiz-adv-x="763" d="M70 1208q0 25 12 43.5t33 18.5q8 0 24 -4l183 -60v195q0 51 49 51q51 0 51 -51v-195l180 60q16 4 23 4q17 0 32 -17t15 -43q0 -29 -37 -41l-182 -57l135 -184q12 -18 12 -33q0 -17 -18.5 -33t-36.5 -16q-21 0 -37 22l-137 191l-138 -191q-17 -22 -38 -22q-18 0 -37 16 t-19 33q0 15 15 33l131 184l-181 57q-34 11 -34 39z" />
<glyph unicode="+" horiz-adv-x="1146" d="M92 465v14q0 84 49 84h342v344q0 49 80 49h21q80 0 80 -49v-344h342q49 0 49 -80v-14q0 -80 -49 -80h-342v-342q0 -49 -80 -49h-21q-80 0 -80 49v342h-342q-26 0 -37.5 17.5t-11.5 58.5z" />
<glyph unicode="," horiz-adv-x="405" d="M6 -209q0 9 19 57q69 149 69 338q0 35 25.5 55.5t75.5 20.5h28q48 0 73.5 -19.5t25.5 -52.5q0 -84 -27 -167.5t-65 -140.5t-79 -92.5t-71 -35.5q-28 0 -51 9t-23 28z" />
<glyph unicode="-" d="M76 535v18q0 41 11.5 59.5t37.5 18.5h401q26 0 37.5 -18.5t11.5 -59.5v-18q0 -80 -49 -80h-401q-49 0 -49 80z" />
<glyph unicode="." horiz-adv-x="405" d="M78 49v160q0 53 100 53h47q101 0 101 -53v-160q0 -53 -101 -53h-47q-100 0 -100 53z" />
<glyph unicode="/" horiz-adv-x="757" d="M-37 -121q0 13 6 31l619 1476q23 54 94 54h27q65 0 65 -39q0 -14 -6 -29l-618 -1476q-22 -54 -93 -54h-26q-68 0 -68 37z" />
<glyph unicode="0" horiz-adv-x="1095" d="M72 717q0 354 131 542.5t342 188.5q213 0 345 -188.5t132 -542.5t-132 -542.5t-345 -188.5q-211 0 -342 188.5t-131 542.5zM303 717q0 -273 67.5 -408t174.5 -135t175 135.5t68 407.5t-68 407.5t-175 135.5t-174.5 -135t-67.5 -408z" />
<glyph unicode="1" horiz-adv-x="1095" d="M80 1292q0 38 43 47l491 101q25 0 48.5 -13.5t23.5 -31.5v-1207h266q52 0 52 -79v-29q0 -80 -52 -80h-815q-49 0 -49 80v29q0 42 11.5 60.5t37.5 18.5h320v1022l-326 -51q-26 0 -38.5 44t-12.5 89z" />
<glyph unicode="2" horiz-adv-x="1095" d="M88 129q0 25 8 33l522 651q68 90 90.5 141t22.5 113q0 90 -61.5 141.5t-165.5 51.5q-71 0 -132 -25t-97.5 -49.5t-47.5 -24.5q-29 0 -58.5 44t-29.5 77q0 47 65 86.5t152.5 59.5t167.5 20q205 0 323 -101.5t118 -269.5q0 -87 -27 -159t-88 -159.5t-203 -262.5l-254 -310 h539q27 0 39 -19t12 -61v-26q0 -42 -12 -61t-39 -19h-797q-19 0 -33 44.5t-14 84.5z" />
<glyph unicode="3" horiz-adv-x="1095" d="M84 125q0 31 30 78t54 47q12 0 54.5 -19t111.5 -38t145 -19q49 0 92.5 13.5t81 41t60 77t22.5 114.5q0 129 -69.5 186.5t-208.5 57.5h-64q-26 0 -37.5 18t-11.5 61v29q0 41 11.5 59.5t37.5 18.5h51q63 0 112 21t77.5 54.5t42.5 72t14 77.5q0 77 -49.5 131t-159.5 54 q-76 0 -136 -16.5t-92.5 -33t-43.5 -16.5q-23 0 -53.5 47.5t-30.5 79.5q0 38 63 68t148.5 44.5t169.5 14.5q191 0 303.5 -94.5t112.5 -266.5q0 -102 -56 -177t-145 -113v-9q109 -35 178.5 -133t69.5 -239q0 -107 -38.5 -191t-104 -135t-146 -77.5t-170.5 -26.5 q-162 0 -294 39.5t-132 99.5z" />
<glyph unicode="4" horiz-adv-x="1095" d="M31 461q0 18 4 22l645 922q24 33 94 33h43q88 0 88 -54v-876h111q49 0 49 -80v-29q0 -80 -49 -80h-111v-270q0 -53 -88 -53h-53q-88 0 -88 53v270h-584q-20 0 -40.5 52.5t-20.5 89.5zM279 508h399v571l-8 2z" />
<glyph unicode="5" horiz-adv-x="1095" d="M88 119q0 31 32 80t56 49q10 0 50.5 -18.5t107.5 -37t143 -18.5q120 0 197.5 68.5t77.5 193.5t-79.5 190.5t-240.5 65.5h-194q-38 0 -52 16.5t-14 55.5l35 600q3 37 20.5 53.5t55.5 16.5h569q27 0 39 -19t12 -61v-37q0 -37 -12 -54.5t-39 -17.5h-430l-25 -364h84 q82 0 152.5 -13t136.5 -45t112.5 -81t74.5 -127t28 -177q0 -102 -30 -182t-79 -129.5t-116.5 -82t-136 -45.5t-144.5 -13q-165 0 -278 41.5t-113 91.5z" />
<glyph unicode="6" horiz-adv-x="1095" d="M88 512q0 139 33.5 264t87.5 216t123 168.5t138 127.5t133.5 85.5t109.5 51t67 15.5q35 0 58.5 -50.5t23.5 -84.5q0 -26 -20 -33q-182 -67 -306 -192t-174 -289q106 59 246 59q73 0 141.5 -26.5t126.5 -76.5t93 -133t35 -186q0 -106 -37.5 -191.5t-101.5 -139t-146 -81.5 t-174 -28q-100 0 -183 32.5t-144.5 95.5t-95.5 164t-34 232zM319 492q0 -90 19.5 -154.5t54 -99t73.5 -49.5t85 -15q86 0 153.5 66t67.5 180q0 120 -64.5 181t-166.5 61q-112 0 -215 -60q-7 -65 -7 -110z" />
<glyph unicode="7" horiz-adv-x="1095" d="M98 1325v29q0 80 49 80h811q14 0 32 -51t18 -89q0 -12 -4 -24l-576 -1237q-16 -37 -98 -37h-47q-103 0 -103 37q0 10 10 30l555 1182h-598q-49 0 -49 80z" />
<glyph unicode="8" horiz-adv-x="1095" d="M84 414q0 264 219 360q-162 98 -162 305q0 166 113 267.5t303 101.5q180 0 293 -97.5t113 -258.5q0 -214 -189 -308q42 -19 74.5 -40.5t64 -54t52 -71.5t33 -93t12.5 -119q0 -189 -122.5 -304.5t-338.5 -115.5q-217 0 -341 114.5t-124 313.5zM317 420q0 -116 64.5 -181 t167.5 -65q100 0 164.5 66.5t64.5 171.5q0 62 -19 106t-66.5 76.5t-78.5 46.5t-104 41q-24 9 -37 14q-75 -47 -115.5 -112t-40.5 -164zM369 1083q0 -40 12.5 -72t30 -53.5t50 -41.5t59 -32t69.5 -28q147 92 147 227q0 85 -52.5 131t-131.5 46q-80 0 -132 -45.5t-52 -131.5z " />
<glyph unicode="9" horiz-adv-x="1095" d="M90 1006q0 106 37.5 191t102 138.5t146.5 82t173 28.5q208 0 332.5 -133t124.5 -391q0 -109 -21 -210t-56 -180.5t-82 -151t-99.5 -124.5t-107.5 -98t-106 -74.5t-95.5 -50t-76 -30t-47.5 -9.5q-36 0 -60 50t-24 85q0 23 21 31q181 67 305 193t174 290q-106 -59 -244 -59 q-73 0 -142 26.5t-127 76.5t-93 133t-35 186zM322 1014q0 -120 65 -182t168 -62q109 0 213 61q6 55 6 111q0 90 -19.5 154t-53.5 98t-72.5 48.5t-85.5 14.5q-86 0 -153.5 -65t-67.5 -178z" />
<glyph unicode=":" horiz-adv-x="405" d="M78 49v160q0 53 100 53h47q101 0 101 -53v-160q0 -53 -101 -53h-47q-100 0 -100 53zM78 862v160q0 53 100 53h47q101 0 101 -53v-160q0 -53 -101 -53h-47q-100 0 -100 53z" />
<glyph unicode=";" horiz-adv-x="405" d="M6 -209q0 9 19 57q69 149 69 338q0 35 25.5 55.5t75.5 20.5h28q48 0 73.5 -19.5t25.5 -52.5q0 -84 -27 -167.5t-65 -140.5t-79 -92.5t-71 -35.5q-28 0 -51 9t-23 28zM78 862v160q0 53 100 53h47q101 0 101 -53v-160q0 -53 -101 -53h-47q-100 0 -100 53z" />
<glyph unicode="&#x3c;" horiz-adv-x="1146" d="M82 463v37q0 54 53 78l850 362q15 6 31 6t26.5 -17.5t10.5 -49.5v-31q0 -74 -54 -94l-673 -273l673 -270q56 -23 56 -96v-31q0 -68 -39 -68q-13 0 -31 9l-850 360q-53 24 -53 78z" />
<glyph unicode="=" horiz-adv-x="1146" d="M92 281v14q0 80 62 80h839q62 0 62 -80v-14q0 -80 -62 -80h-839q-62 0 -62 80zM92 631v14q0 80 62 80h839q62 0 62 -80v-14q0 -80 -62 -80h-839q-62 0 -62 80z" />
<glyph unicode="&#x3e;" horiz-adv-x="1146" d="M88 84v31q0 71 55 94l672 272l-672 271q-55 23 -55 96v29q0 67 39 67q13 0 31 -6l848 -360q55 -24 55 -78v-37q0 -57 -55 -78l-850 -362q-18 -7 -31 -7q-16 0 -26.5 17.5t-10.5 50.5z" />
<glyph unicode="?" horiz-adv-x="911" d="M84 1309q0 33 35.5 60.5t90.5 44t118 25.5t123 9q199 0 314.5 -98.5t115.5 -253.5q0 -81 -37.5 -154t-92.5 -128t-111 -106t-100.5 -110.5t-54.5 -118.5q-5 -26 -23 -36.5t-61 -10.5h-39q-41 0 -59 12t-18 39q0 145 159 318q12 13 40 42t40 42.5t34 38t32 40t22 36 t16.5 39t4.5 36.5q0 170 -213 170q-55 0 -108.5 -16.5t-89 -33.5t-44.5 -17q-26 0 -60 51t-34 80zM256 49v160q0 53 100 53h47q101 0 101 -53v-160q0 -53 -101 -53h-47q-100 0 -100 53z" />
<glyph unicode="@" horiz-adv-x="1994" d="M172 487q0 159 45.5 306t130 264.5t197.5 205.5t254.5 135.5t294.5 47.5q309 0 495.5 -182.5t186.5 -483.5q0 -184 -58 -336t-161.5 -240.5t-231.5 -88.5q-96 0 -154 47t-64 112q-43 -77 -109.5 -118t-145.5 -41q-54 0 -103.5 20t-92 61.5t-68 116t-25.5 172.5 q0 245 113 398t297 153q71 0 128 -29t91 -65q9 28 13 39t13.5 25t24 18t37.5 4h16q68 0 68 -47q0 -1 -16.5 -154.5t-33 -315t-16.5 -181.5q0 -80 78 -80q72 0 137 72.5t104.5 195.5t39.5 262q0 256 -155 412t-408 156q-166 0 -314.5 -67t-255.5 -181.5t-170 -274.5t-63 -338 q0 -287 152 -465t397 -178q87 0 154.5 15t106 30t54.5 15q29 0 29 -58q0 -37 -67.5 -61.5t-140 -32.5t-136.5 -8q-196 0 -348 93t-236 262t-84 388zM760 500q0 -226 151 -226q58 0 113.5 50t95.5 157q17 237 39 336q-66 62 -153 62t-144 -52t-79.5 -134t-22.5 -193z" />
<glyph unicode="A" horiz-adv-x="1255" d="M14 35q0 12 6 33l472 1333q13 37 96 37h80q85 0 98 -37l469 -1335q6 -18 6 -31q0 -39 -94 -39h-47q-86 0 -96 37l-105 299h-551l-100 -299q-14 -37 -88 -37h-41q-105 0 -105 39zM420 537h409l-172 503q-15 48 -26 125h-6q-16 -80 -31 -125z" />
<glyph unicode="B" horiz-adv-x="1214" d="M174 70v1294q0 37 16.5 53.5t53.5 16.5h385q234 0 351.5 -97.5t117.5 -265.5q0 -101 -66 -190.5t-158 -120.5v-8q25 -5 57.5 -19t73 -42.5t74 -65.5t56 -92.5t22.5 -118.5q0 -206 -132.5 -310t-391.5 -104h-389q-37 0 -53.5 16.5t-16.5 53.5zM414 205h256 q116 0 178.5 58.5t62.5 162.5q0 99 -70.5 152t-205.5 53h-221v-426zM414 836h194q108 0 176 58t68 144q0 97 -59.5 144t-186.5 47h-192v-393z" />
<glyph unicode="C" horiz-adv-x="1267" d="M106 719q0 729 672 729q96 0 191 -19t156 -50t61 -66t-35 -92.5t-61 -57.5q-6 0 -44 19.5t-109.5 39t-158.5 19.5q-217 0 -321.5 -127.5t-104.5 -396.5q0 -267 103 -397t317 -130q70 0 136 15t104 32.5t68 32.5t38 16q29 0 60.5 -57t31.5 -86q0 -41 -66 -77.5t-167.5 -58 t-204.5 -21.5q-340 0 -503 178.5t-163 554.5z" />
<glyph unicode="D" horiz-adv-x="1423" d="M174 70v1294q0 37 16.5 53.5t53.5 16.5h434q146 0 262.5 -42t202.5 -127.5t132 -224.5t46 -323t-46 -323t-132 -224.5t-202.5 -127.5t-262.5 -42h-434q-37 0 -53.5 16.5t-16.5 53.5zM414 205h256q188 0 295.5 126.5t107.5 385.5q0 258 -107.5 385t-295.5 127h-256v-1024z " />
<glyph unicode="E" horiz-adv-x="1118" d="M174 70v1294q0 37 16.5 53.5t53.5 16.5h731q49 0 49 -80v-45q0 -80 -49 -80h-561v-393h501q26 0 38 -18.5t12 -61.5v-45q0 -80 -50 -80h-501v-426h563q49 0 49 -80v-45q0 -80 -49 -80h-733q-37 0 -53.5 16.5t-16.5 53.5z" />
<glyph unicode="F" horiz-adv-x="1030" d="M174 49v1315q0 37 16.5 53.5t53.5 16.5h663q49 0 49 -80v-45q0 -80 -49 -80h-493v-393h465q27 0 39 -19t12 -61v-45q0 -43 -11.5 -61.5t-39.5 -18.5h-465v-582q0 -53 -101 -53h-39q-100 0 -100 53z" />
<glyph unicode="G" horiz-adv-x="1376" d="M106 711q0 737 672 737q96 0 192 -19t158 -50.5t62 -65.5q0 -35 -35 -92.5t-61 -57.5q-6 0 -45 19.5t-111.5 39t-159.5 19.5q-226 0 -326 -130t-100 -390q0 -531 412 -531q129 0 219 23v346h-213q-28 0 -39.5 18.5t-11.5 61.5v45q0 43 11.5 61.5t39.5 18.5h383 q37 0 53.5 -16.5t16.5 -53.5v-555q0 -44 -44 -76t-117 -48t-147.5 -22.5t-156.5 -6.5q-325 0 -488.5 178.5t-163.5 546.5z" />
<glyph unicode="H" horiz-adv-x="1501" d="M186 49v1335q0 54 101 54h41q98 0 98 -54v-548h659v548q0 54 101 54h41q98 0 98 -54v-1335q0 -53 -98 -53h-41q-101 0 -101 53v582h-659v-582q0 -53 -98 -53h-41q-101 0 -101 53z" />
<glyph unicode="I" horiz-adv-x="577" d="M168 49v1335q0 54 100 54h41q99 0 99 -54v-1335q0 -53 -99 -53h-41q-100 0 -100 53z" />
<glyph unicode="J" horiz-adv-x="823" d="M6 63q0 32 16.5 89.5t45.5 58.5q3 0 43 -9t79 -9q126 0 182 56t56 179v956q0 54 100 54h39q101 0 101 -54v-966q0 -205 -105.5 -318.5t-329.5 -113.5q-33 0 -64.5 2.5t-72 9.5t-65.5 23.5t-25 41.5z" />
<glyph unicode="K" horiz-adv-x="1179" d="M174 49v1335q0 54 100 54h41q99 0 99 -54v-593h8l440 614q22 33 115 33h55q90 0 90 -29q0 -17 -18 -41l-463 -625l547 -680q16 -24 16 -38q0 -29 -100 -29h-66q-92 0 -118 33l-498 643l-8 -2v-621q0 -53 -99 -53h-41q-100 0 -100 53z" />
<glyph unicode="L" horiz-adv-x="991" d="M174 70v1314q0 54 100 54h39q101 0 101 -54v-1179h516q49 0 49 -80v-45q0 -80 -49 -80h-686q-37 0 -53.5 16.5t-16.5 53.5z" />
<glyph unicode="M" horiz-adv-x="1726" d="M166 49v1335q0 54 100 54h88q82 0 105 -45l368 -645l37 -86l39 81l369 650q23 45 104 45h86q99 0 99 -54v-1335q0 -53 -99 -53h-35q-100 0 -100 53v991l-6 -4l-358 -630q-22 -31 -62 -31h-72q-39 0 -61 31l-362 638l-7 5v-1000q0 -53 -100 -53h-33q-100 0 -100 53z" />
<glyph unicode="N" horiz-adv-x="1472" d="M166 49v1335q0 54 100 54h62q76 0 108 -45l580 -883l57 -100v974q0 54 101 54h34q99 0 99 -54v-1335q0 -53 -99 -53h-57q-74 0 -100 41l-602 911l-50 88v-987q0 -53 -100 -53h-33q-100 0 -100 53z" />
<glyph unicode="O" horiz-adv-x="1497" d="M106 719q0 357 165.5 543t478.5 186t477 -186t164 -543q0 -358 -164.5 -545.5t-476.5 -187.5q-313 0 -478.5 188t-165.5 545zM352 719q0 -258 101.5 -393.5t294.5 -135.5q195 0 296 135.5t101 393.5t-101 390t-296 132q-194 0 -295 -132.5t-101 -389.5z" />
<glyph unicode="P" horiz-adv-x="1167" d="M160 49v1315q0 37 16 53.5t53 16.5h422q43 0 83 -4t88.5 -15.5t89.5 -30.5t81 -52t67.5 -76t44.5 -105.5t17 -138.5q0 -79 -19.5 -144.5t-50.5 -109.5t-73 -77.5t-83.5 -52.5t-86.5 -31t-77.5 -15.5t-59.5 -3.5h-273v-529q0 -53 -100 -53h-39q-100 0 -100 53zM399 784 h260q35 0 68.5 9.5t69.5 32.5t58 71t22 115q0 51 -15 90.5t-38 63t-55 38t-62.5 20t-63.5 5.5h-244v-445z" />
<glyph unicode="Q" horiz-adv-x="1497" d="M106 713q0 358 165.5 546.5t478.5 188.5q312 0 476.5 -188.5t164.5 -546.5q0 -269 -95 -441.5t-276 -238.5v-8l362 -121q29 -10 29 -31q0 -34 -30 -104t-66 -70q-21 0 -828 321q-381 151 -381 693zM352 713q0 -257 102.5 -393t293.5 -136q192 0 294.5 136.5t102.5 392.5 t-102.5 392t-294.5 136q-191 0 -293.5 -135.5t-102.5 -392.5z" />
<glyph unicode="R" horiz-adv-x="1249" d="M174 49v1315q0 37 16.5 53.5t53.5 16.5h368q253 0 377.5 -91.5t124.5 -281.5q0 -122 -63.5 -207.5t-173.5 -128.5v-8q92 -35 167 -228l168 -423q9 -21 9 -33q0 -37 -103 -37h-47q-83 0 -98 37l-158 401q-40 94 -96 130t-166 36h-139v-551q0 -53 -101 -53h-39 q-100 0 -100 53zM414 807h237q89 0 153 65t64 154q0 99 -62 151t-169 52h-223v-422z" />
<glyph unicode="S" horiz-adv-x="1024" d="M61 150q0 34 36.5 87.5t60.5 54.5q9 0 52.5 -25.5t118 -51t158.5 -25.5q100 0 168 52t68 147q0 21 -5 40.5t-12 35.5t-21 31.5t-26 27t-33.5 24.5t-36.5 21.5t-42 20.5t-43 18.5t-47 19t-47 19.5q-59 25 -96 44t-85 54t-75 73.5t-46.5 99t-19.5 135.5q0 184 133 289.5 t336 105.5q125 0 235.5 -40.5t110.5 -92.5q0 -33 -31 -86t-55 -53q-9 0 -40.5 16.5t-87 32.5t-122.5 16q-113 0 -172 -49.5t-59 -130.5q0 -37 12.5 -66.5t33 -50.5t51 -39t63.5 -32t73 -30q4 -1 6.5 -2t6 -2.5t6.5 -2.5q150 -60 216 -105q164 -117 165 -325 q0 -104 -35.5 -185.5t-99 -132t-145.5 -76.5t-179 -26q-96 0 -183 17t-143.5 42.5t-89.5 53.5t-33 51z" />
<glyph unicode="T" horiz-adv-x="1124" d="M31 1309v45q0 80 49 80h964q50 0 50 -80v-45q0 -80 -50 -80h-360v-1180q0 -53 -100 -53h-39q-101 0 -101 53v1180h-364q-49 0 -49 80z" />
<glyph unicode="U" horiz-adv-x="1458" d="M156 467v917q0 54 100 54h39q100 0 100 -54v-911q0 -124 94 -203.5t240 -79.5q147 0 241.5 80t94.5 203v911q0 54 100 54h39q101 0 101 -54v-917q0 -228 -151 -354.5t-425 -126.5t-423.5 126.5t-149.5 354.5z" />
<glyph unicode="V" horiz-adv-x="1263" d="M29 1399q0 39 104 39h39q85 0 100 -45l334 -1004l21 -90h8l22 92l338 1002q14 45 99 45h34q103 0 103 -39q0 -12 -6 -33l-457 -1333q-13 -37 -96 -37h-82q-86 0 -96 37l-459 1335q-6 18 -6 31z" />
<glyph unicode="W" horiz-adv-x="1806" d="M14 1395q0 43 105 43h35q95 0 106 -47l213 -854q9 -36 27.5 -130.5t21.5 -107.5q10 52 33 142.5t25 97.5l213 860q10 39 94 39h53q86 0 94 -39l213 -864q10 -41 28 -131t23 -111q7 31 28 118t30 128l209 852q11 47 106 47h17q106 0 106 -43q0 -3 -1 -7.5t-2.5 -11 t-2.5 -10.5l-346 -1333q-8 -37 -94 -37h-113q-88 0 -96 37l-199 780l-39 211l-39 -211l-200 -780q-11 -37 -97 -37h-112q-87 0 -95 37l-338 1333q-6 15 -6 29z" />
<glyph unicode="X" horiz-adv-x="1251" d="M31 33q0 16 18 43l443 672l-396 610q-16 26 -16 43q0 37 108 37h54q82 0 104 -35l287 -445l297 447q22 33 104 33h41q111 0 111 -37q0 -13 -19 -43l-399 -606l438 -676q17 -27 17 -43q0 -37 -109 -37h-53q-83 0 -105 35l-331 510l-338 -512q-20 -33 -103 -33h-45 q-108 0 -108 37z" />
<glyph unicode="Y" horiz-adv-x="1144" d="M16 1401q0 37 111 37h51q84 0 103 -35l299 -475l303 477q20 33 106 33h39q102 -3 102 -37q0 -11 -16 -43l-422 -649v-660q0 -53 -98 -53h-41q-98 0 -98 53v666l-420 643q-19 25 -19 43z" />
<glyph unicode="Z" horiz-adv-x="1261" d="M68 141q0 14 6 23l772 1065h-664q-51 0 -51 84v37q0 84 51 84h936q17 0 38.5 -53.5t21.5 -90.5q0 -12 -4 -20l-773 -1065h723q52 0 52 -84v-37q0 -84 -52 -84h-993q-21 0 -42 51.5t-21 89.5z" />
<glyph unicode="[" horiz-adv-x="595" d="M162 -213v1716q0 37 16 53.5t53 16.5h254q26 0 38 -16.5t12 -53.5v-18q0 -37 -12 -53.5t-38 -16.5h-135v-1542h135q26 0 38 -16t12 -52v-18q0 -37 -12 -53.5t-38 -16.5h-254q-37 0 -53 16.5t-16 53.5z" />
<glyph unicode="\" horiz-adv-x="739" d="M8 1399q0 39 66 39h26q74 0 93 -54l536 -1359q6 -15 6 -31q0 -37 -67 -37h-27q-70 0 -90 53l-537 1360q-6 15 -6 29z" />
<glyph unicode="]" horiz-adv-x="595" d="M61 -195q0 36 12 52t38 16h135v1542h-135q-26 0 -38 16.5t-12 53.5v18q0 37 12 53.5t38 16.5h254q37 0 53 -16.5t16 -53.5v-1716q0 -37 -16 -53.5t-53 -16.5h-254q-26 0 -38 16.5t-12 53.5v18z" />
<glyph unicode="^" horiz-adv-x="921" d="M92 692q0 14 6 29l260 633q20 49 78 49h49q56 0 78 -49l260 -633q6 -15 6 -29q0 -39 -59 -39h-22q-69 0 -89 54l-198 487l-201 -487q-23 -54 -84 -54h-24q-60 0 -60 39z" />
<glyph unicode="_" horiz-adv-x="1093" d="M-41 -205q0 37 11.5 53.5t37.5 16.5h1079q26 0 38 -16.5t12 -53.5v-14q0 -68 -50 -68h-1079q-26 0 -37.5 16t-11.5 52v14z" />
<glyph unicode="`" d="M133 1473q0 16 25.5 22t83.5 6q116 0 147 -55q14 -24 29 -50.5t25 -43t20.5 -35t16.5 -29.5t12.5 -23t10 -19t6.5 -13.5t4 -11t1 -7.5q0 -13 -12 -18.5t-41 -5.5q-87 0 -127 43q-51 58 -118 132q-57 63 -70 79.5t-13 28.5z" />
<glyph unicode="a" horiz-adv-x="1116" d="M94 289q0 195 163 285t476 92v84q0 147 -196 147q-75 0 -143 -19t-107 -38t-43 -19q-26 0 -57 50.5t-31 78.5q0 22 31 46t82 43.5t124 32.5t150 13q209 0 314.5 -87t105.5 -242v-428q0 -82 6 -144.5t12 -93.5t6 -37q0 -28 -58 -41.5t-104 -13.5q-16 0 -28 8t-20 28 t-11.5 30.5t-9 41t-6.5 35.5q-51 -61 -132.5 -108t-193.5 -47q-156 0 -243 80t-87 223zM330 309q0 -64 36.5 -99.5t106.5 -35.5q151 0 260 137v185q-87 0 -151 -7t-125.5 -25.5t-94 -57.5t-32.5 -97z" />
<glyph unicode="b" horiz-adv-x="1165" d="M158 49v1440q0 53 100 53h29q100 0 100 -53v-490q115 86 256 86q195 0 309.5 -145.5t114.5 -402.5q0 -251 -107.5 -401t-283.5 -150q-181 0 -305 153q-9 -54 -27 -106q-7 -22 -26.5 -29.5t-55.5 -7.5h-16q-88 0 -88 53zM387 311q105 -133 229 -133q104 0 159.5 95 t55.5 272q0 347 -239 350q-115 0 -205 -70v-514z" />
<glyph unicode="c" horiz-adv-x="993" d="M98 535q0 147 37 254.5t105.5 171.5t158.5 94t203 30q121 0 221.5 -32.5t100.5 -81.5q0 -28 -31.5 -79.5t-52.5 -51.5q-8 0 -31 10q-97 47 -203 47q-132 0 -200 -85.5t-68 -270.5q0 -193 63.5 -280t210.5 -87q113 0 219 49q20 10 29 10q25 0 54.5 -49t29.5 -78 q0 -52 -112 -86t-224 -34q-258 0 -384 132.5t-126 416.5z" />
<glyph unicode="d" horiz-adv-x="1157" d="M98 535q0 258 114 404t308 146q137 0 258 -86v490q0 53 99 53h30q101 0 101 -53v-1161q0 -82 6 -144.5t12 -93.5t6 -37q0 -28 -59 -41.5t-105 -13.5q-11 0 -20.5 4.5t-16.5 14t-12 19t-9 25t-6.5 26t-5.5 28t-5 24.5q-124 -153 -304 -153q-177 0 -284 149.5t-107 399.5z M334 545q0 -178 55 -272.5t160 -94.5q124 0 229 133v514q-93 70 -205 70q-239 -3 -239 -350z" />
<glyph unicode="e" horiz-adv-x="1103" d="M100 528q0 280 126.5 418.5t359.5 138.5q218 0 325 -141t107 -391q0 -22 -32.5 -61t-51.5 -39h-594q12 -147 81 -213t200 -66q70 0 133 19t100.5 38t44.5 19q24 0 55 -49.5t31 -75.5q0 -36 -57.5 -68.5t-143 -51.5t-168.5 -19q-516 0 -516 542zM342 625h444 q0 272 -202 272q-216 0 -242 -272z" />
<glyph unicode="f" horiz-adv-x="665" d="M84 963v28q0 80 49 80h64v176q0 86 23 147.5t63.5 94.5t87.5 48t104 15q174 0 174 -79q0 -23 -15 -70t-36 -47q-6 0 -29.5 4t-48.5 4q-47 0 -70.5 -25.5t-23.5 -97.5v-170h145q50 0 50 -80v-28q0 -80 -50 -80h-145v-834q0 -53 -100 -53h-31q-98 0 -98 53v834h-64 q-49 0 -49 80z" />
<glyph unicode="g" horiz-adv-x="1118" d="M74 -168q0 85 50 149t136 99l2 6q-84 55 -84 162q0 120 117 194q-82 41 -126 117.5t-44 177.5q0 164 112.5 256t305.5 92q65 0 137 -14h354q51 0 51 -80v-28q0 -76 -45 -76q-75 0 -118 6l-4 -6q45 -61 45 -150q0 -162 -110.5 -254t-299.5 -92q-82 -2 -123 -26t-41 -78 q0 -21 8.5 -37.5t27.5 -28t38.5 -19.5t52 -14t57.5 -9.5t66.5 -9t67.5 -9.5q54 -9 93.5 -19t83.5 -30t71.5 -47.5t46 -71.5t18.5 -101q0 -153 -130.5 -239t-363.5 -86q-218 0 -335 65.5t-117 200.5zM291 -127q0 -125 258 -125q252 0 252 129q0 33 -20.5 54.5t-63 33.5 t-83 18.5t-108 14.5t-110.5 16q-125 -49 -125 -141zM340 737q0 -91 56.5 -132.5t148.5 -41.5t148.5 41.5t56.5 132.5t-56.5 132.5t-148.5 41.5t-148.5 -41.5t-56.5 -132.5z" />
<glyph unicode="h" horiz-adv-x="1157" d="M166 49v1440q0 53 100 53h29q100 0 100 -53v-545q57 62 135 101.5t168 39.5q51 0 95.5 -9.5t86 -33.5t71 -60.5t47.5 -95t18 -132.5v-705q0 -53 -101 -53h-28q-101 0 -101 53v676q0 78 -44 122t-130 44q-43 0 -83.5 -17t-68 -41.5t-44 -43t-21.5 -29.5v-711 q0 -53 -100 -53h-29q-100 0 -100 53z" />
<glyph unicode="i" horiz-adv-x="542" d="M154 1348v141q0 53 100 53h39q98 0 98 -53v-141q0 -54 -98 -54h-39q-100 0 -100 54zM158 49v973q0 53 100 53h29q100 0 100 -53v-973q0 -53 -100 -53h-29q-100 0 -100 53z" />
<glyph unicode="j" horiz-adv-x="565" d="M-47 -352q0 30 16 72t39 42q5 0 29 -4t49 -4q45 0 69.5 27.5t24.5 95.5v1145q0 53 101 53h28q101 0 101 -53v-1153q0 -66 -16.5 -119t-44 -87t-64.5 -56t-75.5 -31.5t-80.5 -9.5q-85 0 -130.5 17.5t-45.5 64.5zM174 1348v141q0 53 100 53h39q99 0 99 -53v-141 q0 -54 -99 -54h-39q-100 0 -100 54z" />
<glyph unicode="k" horiz-adv-x="1067" d="M168 49v1440q0 53 100 53h29q100 0 100 -53v-871l9 -2l327 426q28 33 117 33h37q90 0 90 -28q0 -16 -19 -41l-340 -431l386 -512q16 -24 16 -38q0 -29 -100 -29h-43q-94 0 -117 33l-354 479l-9 -2v-457q0 -53 -100 -53h-29q-100 0 -100 53z" />
<glyph unicode="l" horiz-adv-x="608" d="M152 291v1198q0 53 100 53h29q100 0 100 -53v-1192q0 -68 24 -95.5t70 -27.5q24 0 46.5 4t27.5 4q22 0 36.5 -47.5t14.5 -71.5q0 -77 -170 -77q-56 0 -103.5 15.5t-88 49t-63.5 95t-23 145.5z" />
<glyph unicode="m" horiz-adv-x="1736" d="M129 1010q0 28 58 41.5t104 13.5q14 0 25 -7t17.5 -15.5t12.5 -25.5t8.5 -27.5t6.5 -31.5t6 -28q56 66 136.5 110.5t172.5 44.5q215 0 282 -163q57 70 142.5 116.5t179.5 46.5q65 0 118 -16.5t98 -52.5t70 -103t25 -159v-705q0 -53 -100 -53h-29q-100 0 -100 53v676 q0 79 -40.5 122.5t-123.5 43.5q-117 0 -211 -131v-10v-701q0 -53 -100 -53h-29q-100 0 -100 53v676q0 79 -40.5 122.5t-123.5 43.5q-42 0 -82 -17t-66 -41.5t-42 -43t-21 -29.5v-711q0 -53 -100 -53h-29q-100 0 -100 53v690q0 80 -6 142t-12.5 93t-6.5 36z" />
<glyph unicode="n" horiz-adv-x="1140" d="M131 1010q0 28 58 41.5t104 13.5q14 0 25 -7t17.5 -15.5t12.5 -25.5t8.5 -27.5t6.5 -31.5t6 -28q59 70 142 112.5t171 42.5q156 0 237.5 -84.5t81.5 -246.5v-705q0 -53 -98 -53h-31q-98 0 -98 53v676q0 79 -43.5 122.5t-128.5 43.5q-62 0 -119.5 -37t-97.5 -94v-711 q0 -53 -100 -53h-29q-100 0 -100 53v690q0 80 -6 142t-12.5 93t-6.5 36z" />
<glyph unicode="o" horiz-adv-x="1165" d="M100 532q0 267 125 410t361 143q233 0 355 -142.5t122 -410.5q0 -266 -121.5 -406t-355.5 -140q-237 0 -361.5 140t-124.5 406zM336 535q0 -183 59.5 -272t186.5 -89t187 89t60 272q0 184 -60 273t-187 89t-186.5 -88.5t-59.5 -273.5z" />
<glyph unicode="p" horiz-adv-x="1173" d="M137 1010q0 28 58 41.5t104 13.5q16 0 28 -7.5t20 -26t12 -29t9.5 -38.5t6.5 -32q124 153 305 153q180 0 285.5 -149.5t105.5 -400.5q0 -257 -114.5 -403t-309.5 -146q-141 0 -256 86v-443q0 -53 -100 -53h-29q-100 0 -100 53v1110q0 80 -6 142t-12.5 93t-6.5 36z M391 246q90 -70 205 -70q240 3 240 350q0 177 -55.5 272t-159.5 95q-125 0 -230 -133v-514z" />
<glyph unicode="q" horiz-adv-x="1159" d="M98 532q0 252 108.5 402.5t287.5 150.5q182 0 303 -153q17 73 28 106q6 22 25.5 29.5t56.5 7.5h17q88 0 88 -53v-1393q0 -53 -101 -53h-28q-101 0 -101 53v443q-115 -86 -256 -86q-198 0 -313 145t-115 401zM334 526q0 -347 241 -350q114 0 207 70v514q-105 133 -229 133 q-107 0 -163 -94.5t-56 -272.5z" />
<glyph unicode="r" horiz-adv-x="749" d="M135 1010q0 28 58 41.5t104 13.5q14 0 25 -7t17.5 -15.5t12.5 -25.5t8.5 -27.5t6.5 -31.5t6 -28q102 155 231 155q62 0 90.5 -28t28.5 -66t-14.5 -87.5t-36.5 -49.5q-10 0 -41.5 10t-63.5 10q-34 0 -67 -15t-56 -37t-35.5 -37t-19.5 -25v-711q0 -53 -100 -53h-29 q-100 0 -100 53v690q0 80 -6 142t-12.5 93t-6.5 36z" />
<glyph unicode="s" horiz-adv-x="845" d="M68 117q0 29 31.5 77t56.5 48q5 0 35.5 -17.5t81.5 -35t108 -17.5q166 0 166 131q0 61 -44.5 94.5t-148.5 67.5q-134 42 -198 111.5t-64 195.5q0 142 97.5 227.5t256.5 85.5q107 0 197 -28t90 -72q0 -32 -26.5 -82.5t-49.5 -50.5q-4 0 -28.5 12t-66 24.5t-87.5 12.5 q-67 0 -108 -27t-41 -77q0 -63 46 -98.5t144 -71.5q143 -52 202.5 -118.5t59.5 -193.5q0 -147 -105.5 -240t-273.5 -93q-127 0 -229 42.5t-102 92.5z" />
<glyph unicode="t" horiz-adv-x="700" d="M70 963v28q0 80 49 80h74l24 207q6 53 86 53h39q78 0 78 -53v-207h141q51 0 51 -80v-28q0 -80 -51 -80h-141v-586q0 -68 25 -95.5t71 -27.5q24 0 46.5 4t27.5 4q21 0 36 -48t15 -71q0 -77 -170 -77q-56 0 -103.5 15.5t-88 49t-63.5 95t-23 145.5v592h-74q-49 0 -49 80z " />
<glyph unicode="u" horiz-adv-x="1140" d="M139 317v705q0 53 101 53h28q101 0 101 -53v-676q0 -79 43.5 -122.5t128.5 -43.5q62 0 119.5 37t97.5 94v711q0 53 98 53h31q98 0 98 -53v-694q0 -82 6.5 -144.5t12.5 -93.5t6 -37q0 -28 -58 -41.5t-104 -13.5q-11 0 -20.5 4.5t-16.5 14.5t-12 19t-9.5 25.5t-6.5 26 l-6 28.5t-5 25q-57 -70 -140 -112.5t-173 -42.5q-155 0 -237.5 85t-82.5 246z" />
<glyph unicode="v" horiz-adv-x="993" d="M31 1036q0 39 104 39h35q86 0 96 -37l170 -534q25 -73 66 -252h8q52 226 59 250l172 536q13 37 99 37h24q97 0 97 -39q0 -8 -7 -32l-327 -971q-10 -37 -97 -37h-67q-86 0 -96 37l-330 973q-6 24 -6 30z" />
<glyph unicode="w" horiz-adv-x="1529" d="M51 1032q0 43 109 43q108 0 116 -37l158 -606q18 -74 39 -170q17 95 39 174l154 600q8 39 94 39h28q87 0 95 -39l155 -604q32 -141 37 -170q4 19 11.5 55t14 64.5t11.5 50.5l160 606q8 37 100 37q101 0 101 -43q0 -4 -1 -8t-2 -9.5t-2 -10.5l-260 -971q-11 -37 -96 -37 h-78q-86 0 -94 37l-147 579q-9 36 -27 127q-15 -79 -27 -127l-147 -579q-8 -37 -94 -37h-78q-85 0 -96 37l-265 962q-8 24 -8 37z" />
<glyph unicode="x" horiz-adv-x="993" d="M27 31q0 19 18 43l324 473l-301 448q-19 28 -19 45q0 35 109 35h39q43 0 67.5 -6.5t36.5 -28.5l164 -254q14 -21 39 -61q12 23 39 63l166 254q20 33 106 33h31q104 0 104 -35q0 -19 -18 -43l-305 -448l319 -473q19 -29 19 -45q0 -35 -109 -35h-39q-43 0 -67.5 6.5 t-36.5 28.5l-185 280q-22 35 -36 60q-1 -2 -13.5 -22.5t-21.5 -37.5l-189 -282q-20 -33 -104 -33h-31q-106 0 -106 35z" />
<glyph unicode="y" horiz-adv-x="985" d="M31 1036q0 39 104 39h37q83 0 96 -37l172 -479q34 -107 62 -223h6q35 143 61 223l170 479q10 37 97 37h24q101 0 101 -39q0 -8 -7 -32l-501 -1385q-16 -43 -105 -43h-33q-90 0 -90 37q0 15 8 35l154 385l-350 973q-6 24 -6 30z" />
<glyph unicode="z" horiz-adv-x="1001" d="M68 127q0 16 6 25l542 731h-460q-52 0 -52 80v28q0 80 52 80h721q15 0 32 -47t17 -82q0 -18 -6 -24l-541 -730h502q26 0 37.5 -18.5t11.5 -60.5v-29q0 -80 -49 -80h-762q-15 0 -33 45.5t-18 81.5z" />
<glyph unicode="{" horiz-adv-x="561" d="M39 631v28q0 57 55 84q59 25 80 83t21 167v342q0 118 54 178t124 60h92q51 0 51 -70v-16q0 -70 -47 -70h-23q-37 0 -51 -24.5t-14 -77.5v-354q0 -120 -47 -201t-105 -117q55 -28 103.5 -109t48.5 -204v-353q0 -54 12.5 -79t46.5 -25h27q49 0 49 -70v-16q0 -70 -51 -70 h-92q-71 0 -124.5 59.5t-53.5 178.5v342q0 108 -21 166.5t-80 83.5q-55 27 -55 84z" />
<glyph unicode="|" horiz-adv-x="512" d="M172 -233v1757q0 51 72 51h26q72 0 72 -51v-1757q0 -52 -72 -52h-26q-72 0 -72 52z" />
<glyph unicode="}" horiz-adv-x="561" d="M51 -197q0 70 47 70h27q35 0 48 25.5t13 78.5v353q0 123 48.5 204t103.5 109q-58 36 -105 117t-47 201v354q0 54 -13 78t-50 24h-27q-45 0 -45 70v16q0 37 11.5 53.5t37.5 16.5h95q70 0 124 -60t54 -178v-342q0 -110 20.5 -167.5t79.5 -82.5q55 -28 55 -84v-28 q0 -56 -55 -84q-58 -25 -79 -83t-21 -167v-342q0 -119 -53.5 -178.5t-124.5 -59.5h-95q-26 0 -37.5 16.5t-11.5 53.5v16z" />
<glyph unicode="~" horiz-adv-x="1120" d="M166 492q-37 42 12 81q133 82 250 82q22 0 43 -2t33.5 -3.5t32 -7.5t24 -7t25.5 -9l20 -8q64 -22 115 -22q64 0 137 41q54 28 92 -10q26 -27 23 -48.5t-33 -48.5q-122 -84 -252 -84q-87 0 -176 33q-4 1 -16 5.5l-16 6t-14.5 5t-16.5 4.5t-15.5 3t-19 2.5t-19.5 0.5 q-46 0 -129 -35q-53 -29 -100 21z" />
<glyph unicode="&#xa1;" horiz-adv-x="602" d="M137 -317q0 21 13 173t33.5 387.5t29.5 340.5q3 29 20.5 42t61.5 13h22q43 0 61.5 -13.5t18.5 -41.5v-897q0 -54 -100 -54h-61q-99 0 -99 50zM180 862v160q0 53 101 53h47q100 0 100 -53v-160q0 -53 -100 -53h-47q-101 0 -101 53z" />
<glyph unicode="&#xa2;" horiz-adv-x="995" d="M100 535q0 271 118 403t327 145v70q0 45 47 45q49 0 49 -45v-70q107 -6 187.5 -38t80.5 -74q0 -28 -31.5 -79.5t-52.5 -51.5q-6 0 -30 11.5t-66 25.5t-88 18v-721q52 4 99 19t73.5 27.5t32.5 12.5q25 0 54.5 -49t29.5 -78q0 -47 -88 -79t-201 -39v-99q0 -24 -11 -34.5 t-36 -10.5q-26 0 -37.5 10t-11.5 35v99q-225 12 -335 145.5t-110 401.5zM338 541q0 -171 48 -258t159 -105v713q-207 -32 -207 -350z" />
<glyph unicode="&#xa3;" horiz-adv-x="1005" d="M53 70v36q0 23 17.5 41t42 33t49 33t42 50.5t17.5 76.5v330h-94q-26 0 -37.5 18.5t-11.5 61.5v28q0 41 11.5 59.5t37.5 18.5h94v168q0 424 443 424q213 0 213 -78q0 -33 -18.5 -78t-41.5 -45l-45 9q-45 8 -86 8q-124 0 -182 -54.5t-58 -175.5v-178h267q51 0 51 -78v-28 q0 -42 -12 -61t-39 -19h-267v-158q0 -145 -28 -216t-74 -108h522q52 0 52 -79v-29q0 -80 -52 -80h-753q-60 0 -60 70z" />
<glyph unicode="&#xa4;" horiz-adv-x="1093" d="M133 944q0 22 19 41l30 33q20 20 41 20q26 0 47 -24l54 -53q99 63 211 63q114 0 213 -63l53 53q22 22 45 22q25 0 45 -20l29 -29q20 -20 20 -43q0 -25 -22 -47l-54 -53q66 -98 66 -213q0 -113 -64 -213l49 -49q23 -23 23 -45t-23 -45l-28 -29q-21 -21 -43 -21 q-25 0 -45 23l-49 49q-94 -63 -215 -63q-118 0 -213 61l-48 -47q-23 -23 -47 -23q-22 0 -43 21l-30 31q-19 19 -19 41q0 24 23 47l47 47q-64 95 -64 215q0 121 66 215l-51 51q-23 20 -23 47zM315 631q0 -92 65 -156.5t157 -64.5q91 0 156 64.5t65 156.5q0 91 -65 156 t-156 65q-92 0 -157 -65t-65 -156z" />
<glyph unicode="&#xa5;" horiz-adv-x="1144" d="M16 1401q0 37 111 37h51q84 0 103 -35l299 -475l303 477q20 33 106 33h39q102 -3 102 -37q0 -11 -16 -43l-327 -504h217q51 0 51 -61v-23q0 -63 -51 -63h-312v-166h312q51 0 51 -62v-22q0 -62 -51 -62h-312v-346q0 -53 -98 -53h-41q-98 0 -98 53v346h-314 q-26 0 -37.5 14.5t-11.5 47.5v22q0 32 11.5 47t37.5 15h314v167l-314 1q-26 0 -37.5 14.5t-11.5 46.5v23q0 32 11.5 46.5t37.5 14.5h223l-329 504q-19 25 -19 43z" />
<glyph unicode="&#xa6;" horiz-adv-x="512" d="M172 -233v663q0 53 72 53h26q72 0 72 -53v-663q0 -54 -72 -54h-26q-72 0 -72 54zM172 858v666q0 53 72 53h26q72 0 72 -53v-666q0 -53 -72 -53h-26q-72 0 -72 53z" />
<glyph unicode="&#xa7;" horiz-adv-x="878" d="M96 727q0 135 94 229q-77 70 -77 191q0 98 48 167.5t125 101.5t175 32q101 0 192.5 -27t91.5 -78q0 -27 -26 -78t-49 -51q-3 0 -28 12t-66.5 24t-86.5 12q-71 0 -107 -26.5t-36 -72.5q0 -36 24.5 -61t63.5 -40.5t86 -31t94 -38.5t86 -55.5t63.5 -91t24.5 -136.5 q0 -144 -96 -230q80 -73 80 -188q0 -148 -98 -225.5t-250 -77.5q-101 0 -193 26.5t-92 77.5q0 26 26.5 76.5t49.5 50.5q3 0 27.5 -11t66 -22.5t86.5 -11.5q71 0 107.5 26t36.5 70q0 36 -24.5 61.5t-63.5 41t-86.5 31t-94.5 39t-86 56.5t-63.5 91.5t-24.5 136.5zM309 741 q0 -39 14 -67.5t45 -48.5t57.5 -31t74.5 -27q71 36 71 129q0 38 -14 66t-45 48t-57.5 31t-73.5 27q-72 -45 -72 -127z" />
<glyph unicode="&#xa8;" d="M63 1272v112q0 54 105 54q100 0 100 -54v-112q0 -55 -104 -55q-101 0 -101 55zM391 1272v112q0 54 105 54q100 0 100 -54v-112q0 -55 -104 -55q-101 0 -101 55z" />
<glyph unicode="&#xa9;" horiz-adv-x="1513" d="M20 721q0 150 58 285.5t156.5 233t235 155t286.5 57.5q200 0 369 -97t267.5 -265.5t98.5 -368.5t-98.5 -368.5t-267.5 -266.5t-369 -98q-150 0 -286.5 58t-235 156t-156.5 233.5t-58 285.5zM133 721q0 -168 84 -311t227.5 -226.5t311.5 -83.5t311.5 83.5t227 226.5 t83.5 311q0 127 -49.5 241.5t-133 197t-198.5 131t-241 48.5q-169 0 -312 -82t-227 -224.5t-84 -311.5zM399 719q0 424 392 424q85 0 160 -24.5t75 -53.5q0 -22 -20.5 -55t-36.5 -33q-2 0 -24 11.5t-63 23.5t-91 12q-128 0 -189 -74.5t-61 -230.5q0 -157 60 -232t185 -75 q52 0 98 14t71.5 27.5t29.5 13.5q18 0 36.5 -33t18.5 -49q0 -36 -80.5 -63t-173.5 -27q-197 0 -292 103t-95 321z" />
<glyph unicode="&#xaa;" horiz-adv-x="653" d="M90 1053q0 97 80.5 140.5t237.5 45.5v43q0 72 -99 72q-37 0 -70.5 -9t-53 -18.5t-21.5 -9.5q-11 0 -27 25t-16 38q0 23 58 45.5t134 22.5q102 0 154.5 -44t52.5 -120v-213q0 -41 3 -71.5t6 -45.5t3 -18q0 -15 -27.5 -21t-51.5 -6q-27 0 -35 58q-1 2 -1 6l-1 6 q-66 -76 -164 -76q-75 0 -118.5 40t-43.5 110zM207 1063q0 -66 69 -66q77 0 132 66v92q-44 0 -75.5 -3t-62.5 -12t-47 -28.5t-16 -48.5z" />
<glyph unicode="&#xab;" horiz-adv-x="964" d="M76 528q0 37 28 72l265 318q23 26 49 26t60 -26.5t34 -55.5q0 -19 -18 -43l-226 -291l226 -292q18 -21 18 -43q0 -24 -32.5 -53t-61.5 -29q-24 0 -49 28l-265 318q-28 35 -28 71zM451 528q0 37 28 72l264 318q23 26 50 26q26 0 60 -26.5t34 -55.5q0 -18 -19 -43 l-225 -291l225 -292q19 -22 19 -43q0 -24 -32.5 -53t-61.5 -29q-25 0 -50 28l-264 318q-28 35 -28 71z" />
<glyph unicode="&#xac;" horiz-adv-x="1146" d="M72 602v21q0 42 11.5 60.5t37.5 18.5h887q36 0 52.5 -17t16.5 -54v-424q0 -53 -69 -53h-33q-72 0 -72 53v315h-782q-49 0 -49 80z" />
<glyph unicode="&#xad;" d="M78 535v18q0 41 11.5 59.5t37.5 18.5h393q26 0 37.5 -18.5t11.5 -59.5v-18q0 -80 -49 -80h-393q-49 0 -49 80z" />
<glyph unicode="&#xae;" horiz-adv-x="1513" d="M20 721q0 150 58 285.5t156.5 233t235 155t286.5 57.5q200 0 369 -97t267.5 -265.5t98.5 -368.5t-98.5 -368.5t-267.5 -266.5t-369 -98q-150 0 -286.5 58t-235 156t-156.5 233.5t-58 285.5zM133 721q0 -168 84 -311t227.5 -226.5t311.5 -83.5t311.5 83.5t227 226.5 t83.5 311q0 127 -49.5 241.5t-133 197t-198.5 131t-241 48.5q-169 0 -312 -82t-227 -224.5t-84 -311.5zM504 338v756q0 22 9.5 31.5t31.5 9.5h211q145 0 216.5 -52.5t71.5 -160.5q0 -71 -37 -121t-100 -74v-6q53 -21 97 -129l98 -244q1 -4 2 -8.5t1.5 -7t0.5 -4.5 q0 -21 -57 -21h-29q-46 0 -55 21l-93 231q-23 56 -55 76t-96 20h-80v-317q0 -31 -59 -31h-21q-57 0 -57 31zM639 774h137q52 0 88.5 37t36.5 88q0 58 -35.5 88.5t-97.5 30.5h-129v-244z" />
<glyph unicode="&#xaf;" d="M49 1311v24q0 37 11.5 53.5t37.5 16.5h451q26 0 37.5 -16.5t11.5 -53.5v-24q0 -72 -49 -72h-451q-49 0 -49 72z" />
<glyph unicode="&#xb0;" horiz-adv-x="706" d="M78 1176q0 113 79 192.5t191 79.5q113 0 193 -80t80 -192t-80 -191.5t-193 -79.5q-112 0 -191 79t-79 192zM193 1176q0 -68 45.5 -116t109.5 -48q65 0 111.5 48.5t46.5 115.5t-46.5 115t-111.5 48q-64 0 -109.5 -47.5t-45.5 -115.5z" />
<glyph unicode="&#xb1;" horiz-adv-x="1146" d="M80 80v20q0 80 61 80h863q32 0 46.5 -19t14.5 -61v-20q0 -42 -14.5 -61t-46.5 -19h-863q-61 0 -61 80zM92 735v15q0 79 62 79h329v332q0 62 80 62h21q80 0 80 -62v-332h329q32 0 47 -19t15 -60v-15q0 -80 -62 -80h-329v-329q0 -62 -80 -62h-21q-80 0 -80 62v329h-329 q-62 0 -62 80z" />
<glyph unicode="&#xb2;" d="M55 680q0 12 4 20l306 377q38 51 50.5 81t12.5 67q0 52 -36 81t-95 29q-41 0 -77 -13.5t-57 -27.5t-26 -14q-17 0 -35 25t-18 45q0 40 74.5 67t150.5 27q119 0 187.5 -58t68.5 -157q0 -60 -21.5 -109.5t-80.5 -124.5l-230 -282h312q17 0 22.5 -9.5t5.5 -35.5v-17 q0 -26 -5.5 -36.5t-22.5 -10.5h-461q-11 0 -20 26.5t-9 49.5z" />
<glyph unicode="&#xb3;" d="M68 676q0 18 17.5 46t31.5 28q6 0 31 -11t65 -22.5t84 -11.5q61 0 105 35.5t44 107.5q0 74 -40.5 107.5t-120.5 33.5h-35q-31 0 -31 47v17q0 47 31 47h29q70 0 106.5 40.5t36.5 90.5q0 44 -29.5 75t-93.5 31q-44 0 -78.5 -9.5t-54 -19.5t-25.5 -10q-13 0 -31 28.5 t-18 47.5q0 32 72 53t149 21q111 0 177.5 -55.5t66.5 -155.5q0 -59 -32.5 -102t-86.5 -66v-8q65 -21 105.5 -77.5t40.5 -137.5q0 -82 -39.5 -141t-99 -85t-130.5 -26q-93 0 -170 23.5t-77 58.5z" />
<glyph unicode="&#xb4;" d="M133 1214q0 3 1 7.5t4 11t6.5 13.5t10 19t12.5 23t16.5 29.5t20.5 35t25 43t29 50.5q31 55 148 55q59 0 83.5 -5.5t24.5 -22.5q0 -13 -14.5 -31.5t-85.5 -96.5q-59 -65 -101 -112q-40 -43 -127 -43q-29 0 -41 5.5t-12 18.5z" />
<glyph unicode="&#xb6;" horiz-adv-x="1054" d="M84 969q0 130 62.5 237.5t169 167.5t233.5 60h428q26 0 37.5 -13.5t11.5 -42.5v-18q0 -28 -11.5 -40.5t-37.5 -12.5h-66v-1608q0 -51 -55 -51h-16q-56 0 -56 51v1608h-159v-1608q0 -51 -56 -51h-16q-55 0 -55 51v807q-175 20 -294.5 152.5t-119.5 310.5z" />
<glyph unicode="&#xb7;" horiz-adv-x="546" d="M168 737q0 51 35 86t86 35q52 0 87.5 -35t35.5 -86q0 -53 -35 -88t-88 -35q-51 0 -86 35.5t-35 87.5z" />
<glyph unicode="&#xb8;" d="M78 -338q0 32 15.5 51t35.5 19q14 0 72 -20.5t104 -20.5q88 0 88 55q0 25 -19.5 41t-43 22t-43 17.5t-19.5 28.5q0 14 45 153h109l-27 -96q27 -1 53.5 -8.5t55 -23t46 -47t17.5 -73.5q0 -192 -239 -192q-87 0 -168.5 26.5t-81.5 67.5z" />
<glyph unicode="&#xb9;" horiz-adv-x="444" d="M61 1356q0 22 25 28l254 56q13 0 27 -8.5t14 -18.5v-776q0 -15 -16 -24t-41 -9h-21q-25 0 -40 9t-15 24v670l-156 -31q-17 0 -24 26t-7 54z" />
<glyph unicode="&#xba;" horiz-adv-x="690" d="M106 1174q0 133 62 203.5t180 70.5q115 0 175.5 -70t60.5 -204q0 -132 -60.5 -201.5t-175.5 -69.5q-118 0 -180 69.5t-62 201.5zM221 1176q0 -179 123 -179q63 0 92 44t29 135q0 90 -29.5 134t-91.5 44q-63 0 -93 -43.5t-30 -134.5z" />
<glyph unicode="&#xbb;" horiz-adv-x="964" d="M100 193q0 19 17 43l227 292l-227 291q-17 27 -17 43q0 29 33.5 55.5t59.5 26.5q28 0 51 -26l262 -318q31 -34 31 -72q0 -37 -31 -71l-262 -318q-25 -28 -51 -28q-27 0 -60 29t-33 53zM477 193q0 19 17 43l227 292l-227 291q-17 27 -17 43q0 29 33 55.5t59 26.5 q29 0 52 -26l262 -318q30 -33 30 -72q0 -38 -30 -71l-262 -318q-25 -28 -52 -28t-59.5 29t-32.5 53z" />
<glyph unicode="&#xbc;" horiz-adv-x="1374" d="M61 1356q0 22 25 28l254 56q13 0 27 -8.5t14 -18.5v-776q0 -15 -16 -24t-41 -9h-21q-25 0 -40 9t-15 24v670l-156 -31q-17 0 -24 26t-7 54zM205 16q0 13 10 25l789 1354q27 43 75 43h31q35 0 35 -19q0 -7 -10 -24l-791 -1354q-22 -43 -74 -43h-30q-35 0 -35 18zM705 256 q0 10 2 14l374 543q15 21 56 21h22q51 0 51 -33v-518h66q29 0 29 -45v-17q0 -47 -29 -47h-66v-145q0 -33 -51 -33h-29q-53 0 -53 33v145h-338q-11 0 -22.5 30t-11.5 52zM848 283h229v231l10 119l-8 2z" />
<glyph unicode="&#xbd;" horiz-adv-x="1527" d="M61 1356q0 22 25 28l254 56q13 0 27 -8.5t14 -18.5v-776q0 -15 -16 -24t-41 -9h-21q-25 0 -40 9t-15 24v670l-156 -31q-17 0 -24 26t-7 54zM205 16q0 13 10 25l789 1354q27 43 75 43h31q35 0 35 -19q0 -7 -10 -24l-791 -1354q-22 -43 -74 -43h-30q-35 0 -35 18zM903 76 q0 10 4 18l293 365q47 59 61.5 91t14.5 71q0 51 -35.5 79.5t-95.5 28.5q-41 0 -77 -13.5t-57 -27.5t-26 -14q-17 0 -35 24.5t-18 44.5q0 41 74.5 69t150.5 28q119 0 187.5 -58.5t68.5 -156.5q0 -58 -19.5 -105t-72.5 -117l-240 -294h312q16 0 22 -10.5t6 -35.5v-16 q0 -26 -5.5 -36.5t-22.5 -10.5h-461q-11 0 -20 26t-9 50z" />
<glyph unicode="&#xbe;" horiz-adv-x="1511" d="M70 676q0 18 17.5 46t31.5 28q6 0 31 -11t65 -22.5t84 -11.5q61 0 105.5 35.5t44.5 107.5q0 74 -40.5 107.5t-121.5 33.5h-35q-31 0 -31 47v17q0 47 31 47h29q70 0 106.5 40.5t36.5 90.5q0 44 -29.5 75t-93.5 31q-44 0 -78.5 -9.5t-54 -19.5t-25.5 -10q-13 0 -31 28.5 t-18 47.5q0 32 72 53t149 21q111 0 177.5 -55.5t66.5 -155.5q0 -59 -32.5 -102t-86.5 -66v-8q65 -21 105.5 -77.5t40.5 -137.5q0 -82 -39.5 -141t-99 -85t-130.5 -26q-93 0 -170 23.5t-77 58.5zM313 16q0 11 11 25l788 1354q27 43 76 43h31q34 0 34 -19q0 -7 -10 -24 l-790 -1354q-22 -43 -74 -43h-31q-35 0 -35 18zM819 256q0 10 2 14l375 543q15 21 55 21h23q51 0 51 -33v-518h66q28 0 28 -45v-17q0 -47 -28 -47h-66v-145q0 -33 -51 -33h-29q-53 0 -53 33v145h-338q-11 0 -23 30t-12 52zM963 283h229v231l10 119l-8 2z" />
<glyph unicode="&#xbf;" horiz-adv-x="870" d="M39 -25q0 81 37.5 154t92 128t110.5 106t100.5 110.5t54.5 118.5q6 26 24.5 36.5t59.5 10.5h39q78 0 78 -51q0 -148 -158 -316q-7 -8 -31.5 -33t-32.5 -33.5t-28 -30t-27.5 -31.5t-22 -29t-20 -31t-13.5 -28t-10.5 -30.5t-2.5 -29.5q0 -170 211 -170q55 0 108.5 17t89 34 t45.5 17q26 0 59.5 -51.5t33.5 -80.5q0 -33 -35.5 -60.5t-90.5 -44t-118 -25.5t-123 -9q-199 0 -314.5 98.5t-115.5 253.5zM418 862v160q0 53 100 53h47q101 0 101 -53v-160q0 -53 -101 -53h-47q-100 0 -100 53z" />
<glyph unicode="&#xc0;" horiz-adv-x="1255" d="M14 35q0 12 6 33l472 1333q13 37 96 37h80q85 0 98 -37l469 -1335q6 -18 6 -31q0 -39 -94 -39h-47q-86 0 -96 37l-105 299h-551l-100 -299q-14 -37 -88 -37h-41q-105 0 -105 39zM373 1835q0 17 25.5 23t82.5 6q117 0 148 -56q17 -30 36 -63t30 -51.5t22.5 -38.5t17 -30.5 t10.5 -21t7 -16.5t2 -10q0 -25 -54 -25q-87 0 -127 43q-47 53 -111 124q-62 69 -75.5 86.5t-13.5 29.5zM420 537h409l-172 503q-15 48 -26 125h-6q-16 -80 -31 -125z" />
<glyph unicode="&#xc1;" horiz-adv-x="1255" d="M14 35q0 12 6 33l472 1333q13 37 96 37h80q85 0 98 -37l469 -1335q6 -18 6 -31q0 -39 -94 -39h-47q-86 0 -96 37l-105 299h-551l-100 -299q-14 -37 -88 -37h-41q-105 0 -105 39zM420 537h409l-172 503q-15 48 -26 125h-6q-16 -80 -31 -125zM520 1577q0 4 2 10t7 16.5 t10.5 21t17 30.5t22.5 38.5t30 51.5t36 63q31 56 148 56q58 0 83 -6t25 -23q0 -13 -14.5 -31.5t-85.5 -96.5q-59 -65 -101 -112q-40 -43 -127 -43q-53 0 -53 25z" />
<glyph unicode="&#xc2;" horiz-adv-x="1255" d="M14 35q0 12 6 33l472 1333q13 37 96 37h80q85 0 98 -37l469 -1335q6 -18 6 -31q0 -39 -94 -39h-47q-86 0 -96 37l-105 299h-551l-100 -299q-14 -37 -88 -37h-41q-105 0 -105 39zM367 1565q0 14 12 32l123 193q25 43 106 43h39q81 0 109 -43l123 -193q12 -18 12 -32 q0 -27 -45 -27h-23q-66 0 -98 37l-98 121l-95 -121q-32 -37 -100 -37h-20q-45 0 -45 27zM420 537h409l-172 503q-15 48 -26 125h-6q-16 -80 -31 -125z" />
<glyph unicode="&#xc3;" horiz-adv-x="1255" d="M14 35q0 12 6 33l472 1333q13 37 96 37h80q85 0 98 -37l469 -1335q6 -18 6 -31q0 -39 -94 -39h-47q-86 0 -96 37l-105 299h-551l-100 -299q-14 -37 -88 -37h-41q-105 0 -105 39zM289 1602q-2 12 6 32q54 150 178 150q47 0 110.5 -23t116.5 -46t74 -23q20 0 34.5 14.5 t37.5 50.5q15 24 25 28.5t28 -3.5l45 -19q16 -7 18 -19t-6 -32q-53 -149 -178 -149q-49 0 -112 23t-115 46t-74 23q-18 0 -34 -15.5t-37 -50.5q-14 -23 -25 -27.5t-29 3.5l-45 18q-16 7 -18 19zM420 537h409l-172 503q-15 48 -26 125h-6q-16 -80 -31 -125z" />
<glyph unicode="&#xc4;" horiz-adv-x="1255" d="M14 35q0 12 6 33l472 1333q13 37 96 37h80q85 0 98 -37l469 -1335q6 -18 6 -31q0 -39 -94 -39h-47q-86 0 -96 37l-105 299h-551l-100 -299q-14 -37 -88 -37h-41q-105 0 -105 39zM362 1634v113q0 53 105 53q100 0 100 -53v-113q0 -55 -104 -55q-101 0 -101 55zM420 537 h409l-172 503q-15 48 -26 125h-6q-16 -80 -31 -125zM690 1634v113q0 53 105 53q100 0 100 -53v-113q0 -55 -104 -55q-101 0 -101 55z" />
<glyph unicode="&#xc5;" horiz-adv-x="1255" d="M14 35q0 12 6 33l472 1333q13 37 96 37h80q85 0 98 -37l469 -1335q6 -18 6 -31q0 -39 -94 -39h-47q-86 0 -96 37l-105 299h-551l-100 -299q-14 -37 -88 -37h-41q-105 0 -105 39zM420 537h409l-172 503q-15 48 -26 125h-6q-16 -80 -31 -125zM440 1690q0 78 54.5 133 t132.5 55q77 0 131.5 -55t54.5 -133q0 -76 -54.5 -130.5t-131.5 -54.5q-78 0 -132.5 54t-54.5 131zM539 1690q0 -38 25.5 -63t62.5 -25q39 0 65.5 25t26.5 63t-27 64t-65 26q-37 0 -62.5 -26t-25.5 -64z" />
<glyph unicode="&#xc6;" horiz-adv-x="1873" d="M-12 35q0 19 8 35l657 1308q29 56 90 56h928q51 0 51 -80v-45q0 -80 -51 -80h-700l82 -393h561q26 0 37.5 -18.5t11.5 -61.5v-45q0 -80 -49 -80h-518l88 -426h489q51 0 51 -80v-45q0 -80 -51 -80h-626q-62 0 -74 59l-55 273h-558l-145 -299q-21 -37 -88 -37h-39 q-100 0 -100 39zM463 537h414l-105 505l-4 142h-6l-49 -140z" />
<glyph unicode="&#xc7;" horiz-adv-x="1267" d="M106 719q0 729 672 729q96 0 191 -19t156 -50.5t61 -65.5q0 -35 -35 -92.5t-61 -57.5q-6 0 -44 19.5t-109.5 39t-158.5 19.5q-217 0 -321.5 -127.5t-104.5 -396.5q0 -267 103 -397t317 -130q70 0 136 15t104 32.5t68 32.5t38 15q29 0 60.5 -56.5t31.5 -85.5 q0 -58 -126.5 -105t-280.5 -52l-21 -74q27 -1 53.5 -8.5t55 -23t46 -47t17.5 -73.5q0 -192 -239 -192q-87 0 -168.5 26.5t-81.5 67.5q0 32 15.5 51t35.5 19q14 0 72 -20.5t104 -20.5q88 0 88 55q0 25 -19.5 41t-43 22t-43 17.5t-19.5 28.5q0 13 39 133q-300 20 -444 198.5 t-144 532.5z" />
<glyph unicode="&#xc8;" horiz-adv-x="1118" d="M174 70v1294q0 37 16.5 53.5t53.5 16.5h731q49 0 49 -80v-45q0 -80 -49 -80h-561v-393h501q26 0 38 -18.5t12 -61.5v-45q0 -80 -50 -80h-501v-426h563q49 0 49 -80v-45q0 -80 -49 -80h-733q-37 0 -53.5 16.5t-16.5 53.5zM350 1835q0 17 26 23t83 6q116 0 147 -56 q17 -30 36 -63t30 -51.5t22.5 -38.5t17 -30.5t10.5 -21t7 -16.5t2 -10q0 -25 -53 -25q-87 0 -127 43q-51 58 -118 132q-57 63 -70 79.5t-13 28.5z" />
<glyph unicode="&#xc9;" horiz-adv-x="1118" d="M174 70v1294q0 37 16.5 53.5t53.5 16.5h731q49 0 49 -80v-45q0 -80 -49 -80h-561v-393h501q26 0 38 -18.5t12 -61.5v-45q0 -80 -50 -80h-501v-426h563q49 0 49 -80v-45q0 -80 -49 -80h-733q-37 0 -53.5 16.5t-16.5 53.5zM498 1577q0 4 2 10t7 16.5t10.5 21t17 30.5 t22.5 38.5t30 51.5t36 63q31 56 147 56q58 0 83.5 -6t25.5 -23q0 -13 -14.5 -31.5t-85.5 -96.5q-59 -65 -101 -112q-40 -43 -127 -43q-53 0 -53 25z" />
<glyph unicode="&#xca;" horiz-adv-x="1118" d="M174 70v1294q0 37 16.5 53.5t53.5 16.5h731q49 0 49 -80v-45q0 -80 -49 -80h-561v-393h501q26 0 38 -18.5t12 -61.5v-45q0 -80 -50 -80h-501v-426h563q49 0 49 -80v-45q0 -80 -49 -80h-733q-37 0 -53.5 16.5t-16.5 53.5zM344 1565q0 14 12 32l123 193q25 43 107 43h39 q80 0 108 -43l123 -193q12 -18 12 -32q0 -27 -45 -27h-22q-67 0 -99 37l-98 121l-94 -121q-32 -37 -100 -37h-21q-45 0 -45 27z" />
<glyph unicode="&#xcb;" horiz-adv-x="1118" d="M174 70v1294q0 37 16.5 53.5t53.5 16.5h731q49 0 49 -80v-45q0 -80 -49 -80h-561v-393h501q26 0 38 -18.5t12 -61.5v-45q0 -80 -50 -80h-501v-426h563q49 0 49 -80v-45q0 -80 -49 -80h-733q-37 0 -53.5 16.5t-16.5 53.5zM340 1634v113q0 53 104 53q101 0 101 -53v-113 q0 -55 -105 -55q-100 0 -100 55zM668 1634v113q0 53 104 53q100 0 100 -53v-113q0 -55 -104 -55q-100 0 -100 55z" />
<glyph unicode="&#xcc;" horiz-adv-x="577" d="M33 1835q0 17 25.5 23t82.5 6q117 0 148 -56q17 -30 36 -63t30 -51.5t22.5 -38.5t17 -30.5t10.5 -21t7 -16.5t2 -10q0 -25 -54 -25q-87 0 -127 43q-47 53 -111 124q-62 69 -75.5 86.5t-13.5 29.5zM168 49v1335q0 54 100 54h41q99 0 99 -54v-1335q0 -53 -99 -53h-41 q-100 0 -100 53z" />
<glyph unicode="&#xcd;" horiz-adv-x="577" d="M168 49v1335q0 54 100 54h41q99 0 99 -54v-1335q0 -53 -99 -53h-41q-100 0 -100 53zM180 1577q0 4 2 10t7 16.5t10.5 21t17 30.5t22.5 38.5t30 51.5t36 63q31 56 148 56q58 0 83 -6t25 -23q0 -13 -14.5 -31.5t-85.5 -96.5q-59 -65 -101 -112q-40 -43 -127 -43 q-53 0 -53 25z" />
<glyph unicode="&#xce;" horiz-adv-x="577" d="M27 1565q0 14 12 32l123 193q25 43 106 43h39q81 0 109 -43l123 -193q12 -18 12 -32q0 -27 -45 -27h-23q-66 0 -98 37l-98 121l-94 -121q-32 -37 -101 -37h-20q-45 0 -45 27zM168 49v1335q0 54 100 54h41q99 0 99 -54v-1335q0 -53 -99 -53h-41q-100 0 -100 53z" />
<glyph unicode="&#xcf;" horiz-adv-x="577" d="M23 1634v113q0 53 104 53q100 0 100 -53v-113q0 -55 -104 -55q-100 0 -100 55zM168 49v1335q0 54 100 54h41q99 0 99 -54v-1335q0 -53 -99 -53h-41q-100 0 -100 53zM350 1634v113q0 53 105 53q100 0 100 -53v-113q0 -55 -104 -55q-101 0 -101 55z" />
<glyph unicode="&#xd0;" horiz-adv-x="1425" d="M10 709v45q0 80 49 80h103v530q0 37 16 53.5t53 16.5h449q146 0 262.5 -42t203 -127.5t133 -224.5t46.5 -323t-46.5 -323t-133 -224.5t-203 -127.5t-262.5 -42h-449q-37 0 -53 16.5t-16 53.5v559h-103q-49 0 -49 80zM401 205h271q189 0 298 126.5t109 385.5 q0 257 -109.5 384.5t-297.5 127.5h-271v-395h181q49 0 49 -80v-45q0 -80 -49 -80h-181v-424z" />
<glyph unicode="&#xd1;" horiz-adv-x="1472" d="M166 49v1335q0 54 100 54h62q76 0 108 -45l580 -883l57 -100v974q0 54 101 54h34q99 0 99 -54v-1335q0 -53 -99 -53h-57q-74 0 -100 41l-602 911l-50 88v-987q0 -53 -100 -53h-33q-100 0 -100 53zM397.5 1602q-2.5 12 5.5 32q54 150 179 150q47 0 110.5 -23t116.5 -46 t74 -23q20 0 34 14t37 51q15 24 25.5 28.5t28.5 -3.5l45 -19q16 -7 18 -19t-6 -32q-53 -149 -178 -149q-49 0 -112 23t-115 46t-74 23q-18 0 -34.5 -15.5t-37.5 -50.5q-14 -23 -24.5 -27.5t-28.5 3.5l-45 18q-16 7 -18.5 19z" />
<glyph unicode="&#xd2;" horiz-adv-x="1497" d="M106 719q0 357 165.5 543t478.5 186t477 -186t164 -543q0 -358 -164.5 -545.5t-476.5 -187.5q-313 0 -478.5 188t-165.5 545zM352 719q0 -258 101.5 -393.5t294.5 -135.5q195 0 296 135.5t101 393.5t-101 390t-296 132q-194 0 -295 -132.5t-101 -389.5zM494 1835 q0 17 25.5 23t82.5 6q117 0 148 -56q14 -24 29 -50.5t24.5 -43t20 -35t17 -29t13 -22.5t9.5 -19t6 -13.5t4 -11t1 -7.5q0 -25 -53 -25q-87 0 -127 43q-47 53 -111 124q-62 69 -75.5 86.5t-13.5 29.5z" />
<glyph unicode="&#xd3;" horiz-adv-x="1497" d="M106 719q0 357 165.5 543t478.5 186t477 -186t164 -543q0 -358 -164.5 -545.5t-476.5 -187.5q-313 0 -478.5 188t-165.5 545zM352 719q0 -258 101.5 -393.5t294.5 -135.5q195 0 296 135.5t101 393.5t-101 390t-296 132q-194 0 -295 -132.5t-101 -389.5zM641 1577 q0 4 2 10t7 16.5t10.5 21t17 30.5t22.5 38.5t30 51.5t36 63q31 56 147 56q58 0 83.5 -6t25.5 -23q0 -13 -14.5 -31.5t-85.5 -96.5q-59 -65 -101 -112q-40 -43 -127 -43q-53 0 -53 25z" />
<glyph unicode="&#xd4;" horiz-adv-x="1497" d="M106 719q0 357 165.5 543t478.5 186t477 -186t164 -543q0 -358 -164.5 -545.5t-476.5 -187.5q-313 0 -478.5 188t-165.5 545zM352 719q0 -258 101.5 -393.5t294.5 -135.5q195 0 296 135.5t101 393.5t-101 390t-296 132q-194 0 -295 -132.5t-101 -389.5zM487 1565 q0 12 13 32l123 193q25 43 106 43h39q81 0 109 -43l122 -193q13 -20 13 -32q0 -27 -45 -27h-23q-66 0 -98 37l-98 121l-95 -121q-32 -37 -100 -37h-21q-45 0 -45 27z" />
<glyph unicode="&#xd5;" horiz-adv-x="1497" d="M106 719q0 357 165.5 543t478.5 186t477 -186t164 -543q0 -358 -164.5 -545.5t-476.5 -187.5q-313 0 -478.5 188t-165.5 545zM352 719q0 -258 101.5 -393.5t294.5 -135.5q195 0 296 135.5t101 393.5t-101 390t-296 132q-194 0 -295 -132.5t-101 -389.5zM410 1602 q-2 12 6 32q54 150 178 150q47 0 110.5 -23t116.5 -46t74 -23q20 0 34.5 14.5t37.5 50.5q15 24 25 28.5t28 -3.5l45 -19q16 -7 18 -19t-6 -32q-53 -149 -178 -149q-49 0 -112 23t-115 46t-74 23q-18 0 -34.5 -15.5t-37.5 -50.5q-14 -23 -24.5 -27.5t-28.5 3.5l-45 18 q-16 7 -18 19z" />
<glyph unicode="&#xd6;" horiz-adv-x="1497" d="M106 719q0 357 165.5 543t478.5 186t477 -186t164 -543q0 -358 -164.5 -545.5t-476.5 -187.5q-313 0 -478.5 188t-165.5 545zM352 719q0 -258 101.5 -393.5t294.5 -135.5q195 0 296 135.5t101 393.5t-101 390t-296 132q-194 0 -295 -132.5t-101 -389.5zM483 1634v113 q0 53 105 53q100 0 100 -53v-113q0 -55 -104 -55q-101 0 -101 55zM811 1634v113q0 53 104 53q101 0 101 -53v-113q0 -55 -105 -55q-100 0 -100 55z" />
<glyph unicode="&#xd7;" horiz-adv-x="1146" d="M98 117q0 16 17 33l329 329l-329 330q-17 17 -17 33q0 21 31 49l25 29q31 28 51 28q14 0 33 -16l327 -330l330 330q16 16 33 16q21 0 49 -28l27 -29q28 -25 28 -49q0 -20 -16 -33l-328 -330l328 -329q16 -13 16 -33q0 -24 -28 -49l-27 -29q-29 -29 -49 -29q-16 0 -33 17 l-330 331l-327 -331q-20 -17 -33 -17q-19 0 -51 29l-25 29q-31 28 -31 49z" />
<glyph unicode="&#xd8;" horiz-adv-x="1497" d="M55 55q0 18 17 35l143 160q-111 178 -111 469q0 357 165.5 543t478.5 186q258 0 419 -133l109 123q17 20 37 20q19 0 43 -22.5t24 -42.5q0 -17 -16 -33l-115 -129q142 -187 142 -512q0 -357 -165.5 -545t-477.5 -188q-300 0 -459 170l-129 -144q-19 -22 -37 -22 q-19 0 -43.5 22.5t-24.5 42.5zM352 719q0 -158 41 -270l621 694q-98 98 -266 98q-194 0 -295 -132.5t-101 -389.5zM449 334q101 -144 301 -144q193 0 294 135.5t101 393.5q0 195 -64 323z" />
<glyph unicode="&#xd9;" horiz-adv-x="1458" d="M156 467v917q0 54 100 54h39q100 0 100 -54v-911q0 -124 94 -203.5t240 -79.5q147 0 241.5 80t94.5 203v911q0 54 100 54h39q101 0 101 -54v-917q0 -228 -151 -354.5t-425 -126.5t-423.5 126.5t-149.5 354.5zM473 1835q0 17 26 23t83 6q116 0 147 -56q17 -30 36 -63 t30 -51.5t22.5 -38.5t17 -30.5t10.5 -21t7 -16.5t2 -10q0 -25 -53 -25q-87 0 -127 43q-51 58 -118 132q-57 63 -70 79.5t-13 28.5z" />
<glyph unicode="&#xda;" horiz-adv-x="1458" d="M156 467v917q0 54 100 54h39q100 0 100 -54v-911q0 -124 94 -203.5t240 -79.5q147 0 241.5 80t94.5 203v911q0 54 100 54h39q101 0 101 -54v-917q0 -228 -151 -354.5t-425 -126.5t-423.5 126.5t-149.5 354.5zM621 1577q0 3 1 7.5t4 11t6 13.5t9.5 19t13 22.5t17 29t20 35 t24.5 43t29 50.5q31 56 148 56q58 0 83 -6t25 -23q0 -13 -16 -33.5t-93 -105.5q-17 -19 -27 -30.5t-28.5 -31.5t-35.5 -39q-40 -43 -127 -43q-53 0 -53 25z" />
<glyph unicode="&#xdb;" horiz-adv-x="1458" d="M156 467v917q0 54 100 54h39q100 0 100 -54v-911q0 -124 94 -203.5t240 -79.5q147 0 241.5 80t94.5 203v911q0 54 100 54h39q101 0 101 -54v-917q0 -228 -151 -354.5t-425 -126.5t-423.5 126.5t-149.5 354.5zM467 1565q0 14 12 32l123 193q25 43 107 43h39q80 0 108 -43 l123 -193q12 -18 12 -32q0 -27 -45 -27h-22q-67 0 -99 37l-98 121l-94 -121q-32 -37 -101 -37h-20q-45 0 -45 27z" />
<glyph unicode="&#xdc;" horiz-adv-x="1458" d="M156 467v917q0 54 100 54h39q100 0 100 -54v-911q0 -124 94 -203.5t240 -79.5q147 0 241.5 80t94.5 203v911q0 54 100 54h39q101 0 101 -54v-917q0 -228 -151 -354.5t-425 -126.5t-423.5 126.5t-149.5 354.5zM463 1634v113q0 53 104 53q101 0 101 -53v-113 q0 -55 -105 -55q-100 0 -100 55zM791 1634v113q0 53 104 53q100 0 100 -53v-113q0 -55 -104 -55q-100 0 -100 55z" />
<glyph unicode="&#xdd;" horiz-adv-x="1144" d="M16 1401q0 37 111 37h51q84 0 103 -35l299 -475l303 477q20 33 106 33h39q102 -3 102 -37q0 -11 -16 -43l-422 -649v-660q0 -53 -98 -53h-41q-98 0 -98 53v666l-420 643q-19 25 -19 43zM465 1577q0 4 2 10t7 16.5t10.5 21t17 30.5t22.5 38.5t30 51.5t36 63q31 56 147 56 q58 0 83.5 -6t25.5 -23q0 -13 -14.5 -31.5t-85.5 -96.5q-59 -65 -101 -112q-40 -43 -127 -43q-53 0 -53 25z" />
<glyph unicode="&#xde;" horiz-adv-x="1161" d="M160 49v1335q0 54 100 54h39q100 0 100 -54v-186h258q43 0 83 -4t88.5 -15.5t89.5 -30.5t81 -52t67.5 -76t44.5 -105.5t17 -138.5q0 -79 -19.5 -145t-50.5 -109.5t-73 -77.5t-83.5 -52.5t-87 -30.5t-77 -15.5t-59.5 -3.5h-279v-293q0 -53 -100 -53h-39q-100 0 -100 53z M397 547h267q27 0 53.5 5.5t57 21t53.5 39.5t38 66.5t15 96.5q0 51 -15 90.5t-38 63t-55 38t-62.5 20t-63.5 5.5h-250v-446z" />
<glyph unicode="&#xdf;" horiz-adv-x="1134" d="M156 49v989q0 184 119.5 297t312.5 113q189 0 307.5 -90t118.5 -266q0 -95 -54.5 -177.5t-146.5 -121.5v-7q127 -39 191.5 -132.5t64.5 -227.5q0 -194 -127.5 -310t-329.5 -116h-57q-49 0 -49 80v29q0 42 11.5 60.5t37.5 18.5h51q99 0 163.5 64t64.5 174 q0 111 -66.5 177.5t-173.5 66.5h-39q-49 0 -49 80v28q0 80 47 80h14q87 0 148 61t61 148q0 90 -53 138t-139 48q-92 0 -145.5 -54.5t-53.5 -147.5v-1002q0 -53 -100 -53h-29q-100 0 -100 53z" />
<glyph unicode="&#xe0;" horiz-adv-x="1116" d="M94 289q0 195 163 285t476 92v84q0 147 -196 147q-75 0 -143 -19t-107 -38t-43 -19q-26 0 -57 50.5t-31 78.5q0 22 31 46t82 43.5t124 32.5t150 13q209 0 314.5 -87t105.5 -242v-428q0 -82 6 -144.5t12 -93.5t6 -37q0 -28 -58 -41.5t-104 -13.5q-16 0 -28 8t-20 28 t-11.5 30.5t-9 41t-6.5 35.5q-51 -61 -132.5 -108t-193.5 -47q-156 0 -243 80t-87 223zM303 1473q0 16 25.5 22t83.5 6q116 0 147 -55q14 -24 29 -50.5t25 -43t20.5 -35t16.5 -29.5t12.5 -23t10 -19t6.5 -13.5t4 -11t1 -7.5q0 -13 -12 -18.5t-41 -5.5q-87 0 -127 43 q-51 58 -118 132q-57 63 -70 79.5t-13 28.5zM330 309q0 -64 36.5 -99.5t106.5 -35.5q151 0 260 137v185q-87 0 -151 -7t-125.5 -25.5t-94 -57.5t-32.5 -97z" />
<glyph unicode="&#xe1;" horiz-adv-x="1116" d="M94 289q0 195 163 285t476 92v84q0 147 -196 147q-75 0 -143 -19t-107 -38t-43 -19q-26 0 -57 50.5t-31 78.5q0 22 31 46t82 43.5t124 32.5t150 13q209 0 314.5 -87t105.5 -242v-428q0 -82 6 -144.5t12 -93.5t6 -37q0 -28 -58 -41.5t-104 -13.5q-16 0 -28 8t-20 28 t-11.5 30.5t-9 41t-6.5 35.5q-51 -61 -132.5 -108t-193.5 -47q-156 0 -243 80t-87 223zM330 309q0 -64 36.5 -99.5t106.5 -35.5q151 0 260 137v185q-87 0 -151 -7t-125.5 -25.5t-94 -57.5t-32.5 -97zM451 1214q0 17 82 158q8 15 13 23.5t13.5 23t15.5 27.5q31 55 148 55 q59 0 83.5 -5.5t24.5 -22.5q0 -13 -16 -33.5t-93 -105.5q-17 -19 -27 -30.5t-28.5 -31.5t-35.5 -39q-40 -43 -127 -43q-29 0 -41 5.5t-12 18.5z" />
<glyph unicode="&#xe2;" horiz-adv-x="1116" d="M94 289q0 195 163 285t476 92v84q0 147 -196 147q-75 0 -143 -19t-107 -38t-43 -19q-26 0 -57 50.5t-31 78.5q0 22 31 46t82 43.5t124 32.5t150 13q209 0 314.5 -87t105.5 -242v-428q0 -82 6 -144.5t12 -93.5t6 -37q0 -28 -58 -41.5t-104 -13.5q-16 0 -28 8t-20 28 t-11.5 30.5t-9 41t-6.5 35.5q-51 -61 -132.5 -108t-193.5 -47q-156 0 -243 80t-87 223zM297 1202q0 15 12 33l123 192q25 43 107 43h39q80 0 108 -43l123 -192q12 -18 12 -33q0 -26 -45 -26h-22q-68 0 -99 36l-98 121l-94 -121q-31 -36 -101 -36h-20q-45 0 -45 26zM330 309 q0 -64 36.5 -99.5t106.5 -35.5q151 0 260 137v185q-87 0 -151 -7t-125.5 -25.5t-94 -57.5t-32.5 -97z" />
<glyph unicode="&#xe3;" horiz-adv-x="1116" d="M94 289q0 195 163 285t476 92v84q0 147 -196 147q-75 0 -143 -19t-107 -38t-43 -19q-26 0 -57 50.5t-31 78.5q0 22 31 46t82 43.5t124 32.5t150 13q209 0 314.5 -87t105.5 -242v-428q0 -82 6 -144.5t12 -93.5t6 -37q0 -28 -58 -41.5t-104 -13.5q-16 0 -28 8t-20 28 t-11.5 30.5t-9 41t-6.5 35.5q-51 -61 -132.5 -108t-193.5 -47q-156 0 -243 80t-87 223zM219.5 1240q-2.5 12 5.5 32q54 149 178 149q47 0 110.5 -23t117 -46t74.5 -23q20 0 33.5 14t37.5 52q15 24 25 28t28 -4l45 -18q16 -7 18.5 -19t-5.5 -32q-54 -150 -178 -150 q-49 0 -112 23t-115 46t-74 23q-33 0 -72 -65q-14 -24 -24 -28.5t-29 3.5l-45 19q-16 7 -18.5 19zM330 309q0 -64 36.5 -99.5t106.5 -35.5q151 0 260 137v185q-87 0 -151 -7t-125.5 -25.5t-94 -57.5t-32.5 -97z" />
<glyph unicode="&#xe4;" horiz-adv-x="1116" d="M94 289q0 195 163 285t476 92v84q0 147 -196 147q-75 0 -143 -19t-107 -38t-43 -19q-26 0 -57 50.5t-31 78.5q0 22 31 46t82 43.5t124 32.5t150 13q209 0 314.5 -87t105.5 -242v-428q0 -82 6 -144.5t12 -93.5t6 -37q0 -28 -58 -41.5t-104 -13.5q-16 0 -28 8t-20 28 t-11.5 30.5t-9 41t-6.5 35.5q-51 -61 -132.5 -108t-193.5 -47q-156 0 -243 80t-87 223zM293 1272v112q0 54 104 54q101 0 101 -54v-112q0 -55 -105 -55q-100 0 -100 55zM330 309q0 -64 36.5 -99.5t106.5 -35.5q151 0 260 137v185q-87 0 -151 -7t-125.5 -25.5t-94 -57.5 t-32.5 -97zM621 1272v112q0 54 104 54q100 0 100 -54v-112q0 -55 -104 -55q-100 0 -100 55z" />
<glyph unicode="&#xe5;" horiz-adv-x="1116" d="M94 289q0 195 163 285t476 92v84q0 147 -196 147q-75 0 -143 -19t-107 -38t-43 -19q-26 0 -57 50.5t-31 78.5q0 22 31 46t82 43.5t124 32.5t150 13q209 0 314.5 -87t105.5 -242v-428q0 -82 6 -144.5t12 -93.5t6 -37q0 -28 -58 -41.5t-104 -13.5q-16 0 -28 8t-20 28 t-11.5 30.5t-9 41t-6.5 35.5q-51 -61 -132.5 -108t-193.5 -47q-156 0 -243 80t-87 223zM330 309q0 -64 36.5 -99.5t106.5 -35.5q151 0 260 137v185q-87 0 -151 -7t-125.5 -25.5t-94 -57.5t-32.5 -97zM371 1327q0 78 54 133.5t132 55.5q77 0 131.5 -55.5t54.5 -133.5 q0 -76 -54.5 -130t-131.5 -54q-78 0 -132 53.5t-54 130.5zM469 1327q0 -38 25.5 -63t62.5 -25q39 0 65.5 25t26.5 63t-27 64t-65 26q-37 0 -62.5 -26t-25.5 -64z" />
<glyph unicode="&#xe6;" horiz-adv-x="1697" d="M88 289q0 351 592 360q13 107 45 176q-47 72 -195 72q-70 0 -137 -19t-107.5 -38t-47.5 -19q-26 0 -57 50.5t-31 78.5q0 22 31 46t82 43.5t124 32.5t150 13q211 0 319 -88q119 88 303 88q218 0 324 -133.5t106 -373.5q0 -22 -31 -60.5t-51 -38.5h-592q7 -159 78.5 -232 t200.5 -73q70 0 132.5 19t99.5 38t44 19q26 0 57.5 -49t31.5 -76q0 -36 -57.5 -68.5t-143 -51.5t-168.5 -19q-254 0 -387 133q-62 -54 -157 -93.5t-212 -39.5q-158 0 -252 81t-94 222zM324 309q0 -64 36.5 -99.5t106.5 -35.5q73 0 136.5 27.5t107.5 74.5q-31 89 -37 201 q-77 -1 -137 -9t-110 -26.5t-76.5 -52t-26.5 -80.5zM913 649h445q0 121 -52 184.5t-151 63.5q-217 0 -242 -248z" />
<glyph unicode="&#xe7;" horiz-adv-x="993" d="M98 535q0 147 37 254.5t105.5 171.5t158.5 94t203 30q121 0 221.5 -32.5t100.5 -81.5q0 -28 -31.5 -79.5t-52.5 -51.5q-8 0 -31 10q-97 47 -203 47q-132 0 -200 -85.5t-68 -270.5q0 -193 63.5 -280t210.5 -87q113 0 219 49q20 10 29 10q25 0 54.5 -49t29.5 -78 q0 -25 -28.5 -46.5t-73.5 -36.5t-96 -24t-101 -12l-20 -75q27 -1 53.5 -8.5t55 -23t46 -47t17.5 -73.5q0 -192 -240 -192q-87 0 -168.5 26.5t-81.5 67.5q0 32 15.5 51t35.5 19q14 0 72.5 -20.5t104.5 -20.5q88 0 88 55q0 25 -19.5 41t-43 22t-43 17.5t-19.5 28.5 q0 16 38 133q-221 17 -329.5 150t-108.5 397z" />
<glyph unicode="&#xe8;" horiz-adv-x="1103" d="M100 528q0 280 126.5 418.5t359.5 138.5q218 0 325 -141t107 -391q0 -22 -32.5 -61t-51.5 -39h-594q12 -147 81 -213t200 -66q70 0 133 19t100.5 38t44.5 19q24 0 55 -49.5t31 -75.5q0 -36 -57.5 -68.5t-143 -51.5t-168.5 -19q-516 0 -516 542zM297 1473q0 16 25.5 22 t83.5 6q116 0 147 -55q14 -24 29 -50.5t25 -43t20.5 -35t16.5 -29.5t12.5 -23t10 -19t6.5 -13.5t4 -11t1 -7.5q0 -13 -12 -18.5t-41 -5.5q-87 0 -127 43q-51 58 -118 132q-57 63 -70 79.5t-13 28.5zM342 625h444q0 272 -202 272q-216 0 -242 -272z" />
<glyph unicode="&#xe9;" horiz-adv-x="1103" d="M100 528q0 280 126.5 418.5t359.5 138.5q218 0 325 -141t107 -391q0 -22 -32.5 -61t-51.5 -39h-594q12 -147 81 -213t200 -66q70 0 133 19t100.5 38t44.5 19q24 0 55 -49.5t31 -75.5q0 -36 -57.5 -68.5t-143 -51.5t-168.5 -19q-516 0 -516 542zM342 625h444 q0 272 -202 272q-216 0 -242 -272zM444 1214q0 3 1 7.5t4 11t6.5 13.5t10 19t12.5 23t16.5 29.5t20.5 35t25 43t29 50.5q31 55 148 55q59 0 83.5 -5.5t24.5 -22.5q0 -13 -16 -33.5t-93 -105.5q-17 -19 -27 -30.5t-28.5 -31.5t-35.5 -39q-40 -43 -127 -43q-30 0 -42 5.5 t-12 18.5z" />
<glyph unicode="&#xea;" horiz-adv-x="1103" d="M100 528q0 280 126.5 418.5t359.5 138.5q218 0 325 -141t107 -391q0 -22 -32.5 -61t-51.5 -39h-594q12 -147 81 -213t200 -66q70 0 133 19t100.5 38t44.5 19q24 0 55 -49.5t31 -75.5q0 -36 -57.5 -68.5t-143 -51.5t-168.5 -19q-516 0 -516 542zM291 1202q0 15 12 33 l123 192q25 43 106 43h39q81 0 109 -43l123 -192q12 -18 12 -33q0 -26 -45 -26h-22q-68 0 -99 36l-98 121l-94 -121q-31 -36 -101 -36h-20q-45 0 -45 26zM342 625h444q0 272 -202 272q-216 0 -242 -272z" />
<glyph unicode="&#xeb;" horiz-adv-x="1103" d="M100 528q0 280 126.5 418.5t359.5 138.5q218 0 325 -141t107 -391q0 -22 -32.5 -61t-51.5 -39h-594q12 -147 81 -213t200 -66q70 0 133 19t100.5 38t44.5 19q24 0 55 -49.5t31 -75.5q0 -36 -57.5 -68.5t-143 -51.5t-168.5 -19q-516 0 -516 542zM287 1272v112q0 54 104 54 q101 0 101 -54v-112q0 -55 -105 -55q-100 0 -100 55zM342 625h444q0 272 -202 272q-216 0 -242 -272zM614 1272v112q0 54 105 54q100 0 100 -54v-112q0 -55 -104 -55q-101 0 -101 55z" />
<glyph unicode="&#xec;" horiz-adv-x="542" d="M16 1473q0 16 25.5 22t83.5 6q116 0 147 -55q14 -24 29 -50.5t25 -43t20.5 -35t16.5 -29.5t12.5 -23t10 -19t6.5 -13.5t4 -11t1 -7.5q0 -13 -12 -18.5t-41 -5.5q-87 0 -127 43q-51 58 -118 132q-57 63 -70 79.5t-13 28.5zM158 49v973q0 53 100 53h29q100 0 100 -53v-973 q0 -53 -100 -53h-29q-100 0 -100 53z" />
<glyph unicode="&#xed;" horiz-adv-x="542" d="M158 49v973q0 53 100 53h29q100 0 100 -53v-973q0 -53 -100 -53h-29q-100 0 -100 53zM164 1214q0 3 1 7.5t4 11t6.5 13.5t10 19t12.5 23t16.5 29.5t20.5 35t25 43t29 50.5q31 55 147 55q59 0 84 -6t25 -22q0 -13 -14.5 -31.5t-85.5 -96.5q-59 -65 -101 -112 q-40 -43 -127 -43q-29 0 -41 5.5t-12 18.5z" />
<glyph unicode="&#xee;" horiz-adv-x="542" d="M10 1202q0 14 13 33l122 192q25 43 107 43h39q80 0 108 -43l123 -192q13 -19 13 -33q0 -26 -46 -26h-22q-67 0 -98 36l-99 121l-94 -121q-31 -36 -100 -36h-21q-45 0 -45 26zM158 49v973q0 53 100 53h29q100 0 100 -53v-973q0 -53 -100 -53h-29q-100 0 -100 53z" />
<glyph unicode="&#xef;" horiz-adv-x="542" d="M6 1272v112q0 54 105 54q100 0 100 -54v-112q0 -55 -105 -55q-100 0 -100 55zM158 49v973q0 53 100 53h29q100 0 100 -53v-973q0 -53 -100 -53h-29q-100 0 -100 53zM334 1272v112q0 54 104 54q101 0 101 -54v-112q0 -55 -105 -55q-100 0 -100 55z" />
<glyph unicode="&#xf0;" horiz-adv-x="1165" d="M100 532q0 267 125 410t361 143q76 0 137 -18q-48 105 -82 160q-150 -21 -154 -21q-24 0 -44.5 23.5t-20.5 50.5q0 25 37 31l121 16q-7 10 -17.5 24t-17.5 24t-14.5 20.5t-11 18.5t-3.5 13q0 21 37 27q54 8 86 8q38 0 63 -22q30 -27 74 -88q141 22 152 22q25 0 43 -26.5 t18 -49.5q0 -25 -37 -28l-110 -15q99 -152 160 -341t61 -382q0 -266 -121.5 -406t-355.5 -140q-237 0 -361.5 140t-124.5 406zM334 535q0 -183 60.5 -272t187.5 -89t187 89t60 272q0 184 -60 273t-187 89q-126 0 -187 -89t-61 -273z" />
<glyph unicode="&#xf1;" horiz-adv-x="1140" d="M131 1010q0 28 58 41.5t104 13.5q14 0 25 -7t17.5 -15.5t12.5 -25.5t8.5 -27.5t6.5 -31.5t6 -28q59 70 142 112.5t171 42.5q156 0 237.5 -84.5t81.5 -246.5v-705q0 -53 -98 -53h-31q-98 0 -98 53v676q0 79 -43.5 122.5t-128.5 43.5q-62 0 -119.5 -37t-97.5 -94v-711 q0 -53 -100 -53h-29q-100 0 -100 53v690q0 80 -6 142t-12.5 93t-6.5 36zM232 1240q-2 12 6 32q54 149 178 149q47 0 110.5 -23t116.5 -46t74 -23q20 0 33.5 14t37.5 52q14 24 25 28t29 -4l45 -18q16 -7 18 -19t-6 -32q-54 -150 -178 -150q-49 0 -112 23t-115 46t-74 23 q-33 0 -72 -65q-14 -24 -24 -28.5t-29 3.5l-45 19q-16 7 -18 19z" />
<glyph unicode="&#xf2;" horiz-adv-x="1165" d="M100 532q0 267 125 410t361 143q233 0 355 -142.5t122 -410.5q0 -266 -121.5 -406t-355.5 -140q-237 0 -361.5 140t-124.5 406zM328 1473q0 16 25 22t83 6q117 0 148 -55q14 -24 29 -50.5t25 -43t20.5 -35t16.5 -29.5t12.5 -23t10 -19t6.5 -13.5t4 -11t1 -7.5 q0 -13 -12 -18.5t-42 -5.5q-87 0 -127 43q-47 53 -111 124q-62 69 -75.5 86.5t-13.5 29.5zM336 535q0 -183 59.5 -272t186.5 -89t187 89t60 272q0 184 -60 273t-187 89t-186.5 -88.5t-59.5 -273.5z" />
<glyph unicode="&#xf3;" horiz-adv-x="1165" d="M100 532q0 267 125 410t361 143q233 0 355 -142.5t122 -410.5q0 -266 -121.5 -406t-355.5 -140q-237 0 -361.5 140t-124.5 406zM336 535q0 -183 59.5 -272t186.5 -89t187 89t60 272q0 184 -60 273t-187 89t-186.5 -88.5t-59.5 -273.5zM475 1214q0 3 1 7.5t4 11t6.5 13.5 t10 19t12.5 23t16.5 29.5t20.5 35t25 43t29 50.5q31 55 148 55q59 0 83.5 -5.5t24.5 -22.5q0 -13 -14.5 -31.5t-85.5 -96.5q-59 -65 -101 -112q-40 -43 -127 -43q-29 0 -41 5.5t-12 18.5z" />
<glyph unicode="&#xf4;" horiz-adv-x="1165" d="M100 532q0 267 125 410t361 143q233 0 355 -142.5t122 -410.5q0 -266 -121.5 -406t-355.5 -140q-237 0 -361.5 140t-124.5 406zM322 1202q0 15 12 33l123 192q25 43 106 43h39q81 0 109 -43l123 -192q12 -18 12 -33q0 -26 -45 -26h-23q-67 0 -98 36l-98 121l-95 -121 q-31 -36 -100 -36h-20q-45 0 -45 26zM336 535q0 -183 59.5 -272t186.5 -89t187 89t60 272q0 184 -60 273t-187 89t-186.5 -88.5t-59.5 -273.5z" />
<glyph unicode="&#xf5;" horiz-adv-x="1165" d="M100 532q0 267 125 410t361 143q233 0 355 -142.5t122 -410.5q0 -266 -121.5 -406t-355.5 -140q-237 0 -361.5 140t-124.5 406zM244 1240q-2 12 6 32q54 149 178 149q47 0 110.5 -23t116.5 -46t74 -23q20 0 34.5 14.5t37.5 51.5q15 24 25 28t28 -4l45 -18q16 -7 18 -19 t-6 -32q-54 -150 -178 -150q-49 0 -112 23t-115 46t-74 23q-33 0 -72 -65q-14 -24 -24 -28.5t-29 3.5l-45 19q-16 7 -18 19zM336 535q0 -183 59.5 -272t186.5 -89t187 89t60 272q0 184 -60 273t-187 89t-186.5 -88.5t-59.5 -273.5z" />
<glyph unicode="&#xf6;" horiz-adv-x="1165" d="M100 532q0 267 125 410t361 143q233 0 355 -142.5t122 -410.5q0 -266 -121.5 -406t-355.5 -140q-237 0 -361.5 140t-124.5 406zM317 1272v112q0 54 105 54q100 0 100 -54v-112q0 -55 -104 -55q-101 0 -101 55zM336 535q0 -183 59.5 -272t186.5 -89t187 89t60 272 q0 184 -60 273t-187 89t-186.5 -88.5t-59.5 -273.5zM645 1272v112q0 54 105 54q100 0 100 -54v-112q0 -55 -105 -55q-100 0 -100 55z" />
<glyph unicode="&#xf7;" horiz-adv-x="1146" d="M80 461v14q0 80 61 80h863q61 0 61 -80v-14q0 -80 -61 -80h-863q-61 0 -61 80zM467 49v123q0 53 100 53h15q100 0 100 -53v-123q0 -53 -100 -53h-15q-100 0 -100 53zM467 764v121q0 55 100 55h15q100 0 100 -55v-121q0 -55 -100 -55h-15q-100 0 -100 55z" />
<glyph unicode="&#xf8;" horiz-adv-x="1165" d="M100 532q0 121 25.5 216.5t69.5 157.5t107 102.5t132.5 57.5t151.5 17q197 0 309 -96l68 80q20 20 36 20q18 0 43 -22.5t25 -40.5q0 -16 -16 -35l-76 -90q88 -138 88 -367q0 -150 -37 -258.5t-104 -169.5t-150 -88.5t-186 -27.5q-203 0 -316 92l-57 -68q-17 -20 -35 -20 q-19 0 -44 21.5t-25 41.5q0 16 16 35l65 76q-90 136 -90 366zM336 535q0 -104 22 -175l398 465q-60 72 -172 72q-123 0 -185.5 -86.5t-62.5 -275.5zM412 242q59 -68 172 -68q123 0 184 86.5t61 274.5q0 105 -20 172z" />
<glyph unicode="&#xf9;" horiz-adv-x="1140" d="M139 317v705q0 53 101 53h28q101 0 101 -53v-676q0 -79 43.5 -122.5t128.5 -43.5q62 0 119.5 37t97.5 94v711q0 53 98 53h31q98 0 98 -53v-694q0 -82 6.5 -144.5t12.5 -93.5t6 -37q0 -28 -58 -41.5t-104 -13.5q-11 0 -20.5 4.5t-16.5 14.5t-12 19t-9.5 25.5t-6.5 26 l-6 28.5t-5 25q-57 -70 -140 -112.5t-173 -42.5q-155 0 -237.5 85t-82.5 246zM315 1473q0 16 25.5 22t83.5 6q116 0 147 -55q14 -24 29 -50.5t25 -43t20.5 -35t16.5 -29.5t12.5 -23t10 -19t6.5 -13.5t4 -11t1 -7.5q0 -13 -12 -18.5t-41 -5.5q-87 0 -127 43q-51 58 -118 132 q-57 63 -70 79.5t-13 28.5z" />
<glyph unicode="&#xfa;" horiz-adv-x="1140" d="M139 317v705q0 53 101 53h28q101 0 101 -53v-676q0 -79 43.5 -122.5t128.5 -43.5q62 0 119.5 37t97.5 94v711q0 53 98 53h31q98 0 98 -53v-694q0 -82 6.5 -144.5t12.5 -93.5t6 -37q0 -28 -58 -41.5t-104 -13.5q-11 0 -20.5 4.5t-16.5 14.5t-12 19t-9.5 25.5t-6.5 26 l-6 28.5t-5 25q-57 -70 -140 -112.5t-173 -42.5q-155 0 -237.5 85t-82.5 246zM463 1214q0 3 1 7.5t4 11t6.5 13.5t10 19t12.5 23t16.5 29.5t20.5 35t25 43t29 50.5q31 55 147 55q59 0 84 -6t25 -22q0 -13 -14.5 -31.5t-85.5 -96.5q-59 -65 -101 -112q-40 -43 -127 -43 q-29 0 -41 5.5t-12 18.5z" />
<glyph unicode="&#xfb;" horiz-adv-x="1140" d="M139 317v705q0 53 101 53h28q101 0 101 -53v-676q0 -79 43.5 -122.5t128.5 -43.5q62 0 119.5 37t97.5 94v711q0 53 98 53h31q98 0 98 -53v-694q0 -82 6.5 -144.5t12.5 -93.5t6 -37q0 -28 -58 -41.5t-104 -13.5q-11 0 -20.5 4.5t-16.5 14.5t-12 19t-9.5 25.5t-6.5 26 l-6 28.5t-5 25q-57 -70 -140 -112.5t-173 -42.5q-155 0 -237.5 85t-82.5 246zM309 1202q0 14 13 33l122 192q25 43 107 43h39q80 0 108 -43l123 -192q13 -19 13 -33q0 -26 -46 -26h-22q-67 0 -98 36l-99 121l-94 -121q-31 -36 -100 -36h-21q-45 0 -45 26z" />
<glyph unicode="&#xfc;" horiz-adv-x="1140" d="M139 317v705q0 53 101 53h28q101 0 101 -53v-676q0 -79 43.5 -122.5t128.5 -43.5q62 0 119.5 37t97.5 94v711q0 53 98 53h31q98 0 98 -53v-694q0 -82 6.5 -144.5t12.5 -93.5t6 -37q0 -28 -58 -41.5t-104 -13.5q-11 0 -20.5 4.5t-16.5 14.5t-12 19t-9.5 25.5t-6.5 26 l-6 28.5t-5 25q-57 -70 -140 -112.5t-173 -42.5q-155 0 -237.5 85t-82.5 246zM305 1272v112q0 54 105 54q100 0 100 -54v-112q0 -55 -104 -55q-101 0 -101 55zM633 1272v112q0 54 104 54q101 0 101 -54v-112q0 -55 -105 -55q-100 0 -100 55z" />
<glyph unicode="&#xfd;" horiz-adv-x="985" d="M31 1036q0 39 104 39h37q83 0 96 -37l172 -479q34 -107 62 -223h6q35 143 61 223l170 479q10 37 97 37h24q101 0 101 -39q0 -8 -7 -32l-501 -1385q-16 -43 -105 -43h-33q-90 0 -90 37q0 15 8 35l154 385l-350 973q-6 24 -6 30zM385 1214q0 3 1 7.5t4 11t6.5 13.5t10 19 t12.5 23t16.5 29.5t20.5 35t25 43t29 50.5q31 55 147 55q59 0 84 -6t25 -22q0 -13 -14.5 -31.5t-85.5 -96.5q-59 -65 -101 -112q-40 -43 -127 -43q-29 0 -41 5.5t-12 18.5z" />
<glyph unicode="&#xfe;" horiz-adv-x="1167" d="M156 -371v1860q0 53 100 53h29q100 0 100 -53v-537q118 133 289 133q176 0 283.5 -150.5t107.5 -402.5q0 -256 -114.5 -401t-309.5 -145q-141 0 -256 86v-443q0 -53 -100 -53h-29q-100 0 -100 53zM385 246q90 -70 205 -70q239 3 239 350q0 177 -55.5 272t-159.5 95 q-124 0 -229 -133v-514z" />
<glyph unicode="&#xff;" horiz-adv-x="985" d="M31 1036q0 39 104 39h37q83 0 96 -37l172 -479q34 -107 62 -223h6q35 143 61 223l170 479q10 37 97 37h24q101 0 101 -39q0 -8 -7 -32l-501 -1385q-16 -43 -105 -43h-33q-90 0 -90 37q0 15 8 35l154 385l-350 973q-6 24 -6 30zM227 1272v112q0 54 105 54q100 0 100 -54 v-112q0 -55 -104 -55q-101 0 -101 55zM555 1272v112q0 54 104 54q101 0 101 -54v-112q0 -55 -105 -55q-100 0 -100 55z" />
<glyph unicode="&#x152;" horiz-adv-x="2091" d="M106 719q0 357 162.5 543t470.5 186q253 0 410 -132v50q0 68 72 68h733q49 0 49 -80v-45q0 -80 -49 -80h-565v-393h505q26 0 38 -18.5t12 -61.5v-45q0 -80 -50 -80h-505v-426h567q49 0 49 -80v-45q0 -80 -49 -80h-735q-37 0 -54.5 17t-17.5 55v46q-154 -132 -410 -132 q-308 0 -470.5 188t-162.5 545zM352 719q0 -258 101.5 -393.5t294.5 -135.5q195 0 296 135.5t101 393.5t-101 390t-296 132q-194 0 -295 -132.5t-101 -389.5z" />
<glyph unicode="&#x153;" horiz-adv-x="1783" d="M100 532q0 267 125 410t361 143q204 0 329 -120q121 120 342 120q218 0 325.5 -141t107.5 -391q0 -22 -32.5 -61t-51.5 -39h-594q12 -147 80.5 -213t199.5 -66q70 0 133.5 19t101 38t44.5 19q24 0 55 -49.5t31 -75.5q0 -36 -57.5 -68.5t-143 -51.5t-168.5 -19 q-242 0 -369 118q-124 -118 -333 -118q-237 0 -361.5 140t-124.5 406zM336 535q0 -183 59.5 -272t186.5 -89q159 0 220 125q-30 100 -30 229q0 134 31 241q-61 128 -221 128q-127 0 -186.5 -88.5t-59.5 -273.5zM1014 625h444q0 132 -51 202t-152 70q-215 0 -241 -272z" />
<glyph unicode="&#x178;" horiz-adv-x="1144" d="M16 1401q0 37 111 37h51q84 0 103 -35l299 -475l303 477q20 33 106 33h39q102 -3 102 -37q0 -11 -16 -43l-422 -649v-660q0 -53 -98 -53h-41q-98 0 -98 53v666l-420 643q-19 25 -19 43zM307 1634v113q0 53 105 53q100 0 100 -53v-113q0 -55 -104 -55q-101 0 -101 55z M635 1634v113q0 53 104 53q101 0 101 -53v-113q0 -55 -105 -55q-100 0 -100 55z" />
<glyph unicode="&#x2c6;" d="M59 1202q0 14 13 33l123 192q25 43 106 43h39q81 0 109 -43l122 -192q13 -19 13 -33q0 -26 -45 -26h-23q-67 0 -98 36l-99 121l-94 -121q-31 -36 -100 -36h-21q-45 0 -45 26z" />
<glyph unicode="&#x2dc;" horiz-adv-x="747" d="M35 1240q-2 12 6 32q54 149 178 149q47 0 110.5 -23t116.5 -46t74 -23q20 0 34.5 14.5t37.5 51.5q15 24 25 28t28 -4l45 -18q16 -7 18 -19t-6 -32q-54 -150 -178 -150q-49 0 -112 23t-115 46t-74 23q-18 0 -34 -15t-37 -50q-14 -24 -25 -28.5t-29 3.5l-45 19 q-16 7 -18 19z" />
<glyph unicode="&#x2000;" horiz-adv-x="939" />
<glyph unicode="&#x2001;" horiz-adv-x="1878" />
<glyph unicode="&#x2002;" horiz-adv-x="939" />
<glyph unicode="&#x2003;" horiz-adv-x="1878" />
<glyph unicode="&#x2004;" horiz-adv-x="626" />
<glyph unicode="&#x2005;" horiz-adv-x="469" />
<glyph unicode="&#x2006;" horiz-adv-x="313" />
<glyph unicode="&#x2007;" horiz-adv-x="313" />
<glyph unicode="&#x2008;" horiz-adv-x="234" />
<glyph unicode="&#x2009;" horiz-adv-x="375" />
<glyph unicode="&#x200a;" horiz-adv-x="104" />
<glyph unicode="&#x2010;" d="M76 535v18q0 41 11.5 59.5t37.5 18.5h401q26 0 37.5 -18.5t11.5 -59.5v-18q0 -80 -49 -80h-401q-49 0 -49 80z" />
<glyph unicode="&#x2011;" d="M76 535v18q0 41 11.5 59.5t37.5 18.5h401q26 0 37.5 -18.5t11.5 -59.5v-18q0 -80 -49 -80h-401q-49 0 -49 80z" />
<glyph unicode="&#x2012;" d="M76 535v18q0 41 11.5 59.5t37.5 18.5h401q26 0 37.5 -18.5t11.5 -59.5v-18q0 -80 -49 -80h-401q-49 0 -49 80z" />
<glyph unicode="&#x2013;" horiz-adv-x="1024" d="M0 535v18q0 41 11.5 59.5t37.5 18.5h926q26 0 37.5 -18.5t11.5 -59.5v-18q0 -80 -49 -80h-926q-49 0 -49 80z" />
<glyph unicode="&#x2014;" horiz-adv-x="2048" d="M0 535v18q0 41 11.5 59.5t37.5 18.5h1950q26 0 37.5 -18.5t11.5 -59.5v-18q0 -80 -49 -80h-1950q-49 0 -49 80z" />
<glyph unicode="&#x2018;" horiz-adv-x="434" d="M76 1094q0 84 26.5 167.5t64.5 140.5t79 92.5t71 35.5q28 0 51 -9t23 -28q0 -20 -14 -51q-74 -152 -74 -344q0 -76 -100 -76h-27q-50 0 -75 19.5t-25 52.5z" />
<glyph unicode="&#x2019;" horiz-adv-x="434" d="M53 1075q0 13 17 55q71 150 71 340q0 76 101 76h28q48 0 73.5 -19t25.5 -52q0 -84 -27 -167.5t-65 -141t-79 -93t-71 -35.5q-27 0 -50.5 9.5t-23.5 27.5z" />
<glyph unicode="&#x201a;" horiz-adv-x="405" d="M25 -209q0 12 18 57q70 151 70 338q0 35 25.5 55.5t74.5 20.5h29q48 0 73 -19.5t25 -52.5q0 -84 -27 -167.5t-65 -140.5t-79 -92.5t-71 -35.5q-28 0 -50.5 8.5t-22.5 28.5z" />
<glyph unicode="&#x201c;" horiz-adv-x="716" d="M37 1094q0 84 27 167.5t65 140.5t79 92.5t71 35.5q28 0 50.5 -8.5t22.5 -28.5t-14 -51q-74 -152 -74 -344q0 -76 -100 -76h-27q-50 0 -75 19.5t-25 52.5zM356 1094q0 84 27 167.5t65 140.5t79 92.5t71 35.5q28 0 51 -9t23 -28q0 -17 -15 -51q-73 -150 -73 -344 q0 -35 -25 -55.5t-76 -20.5h-26q-50 0 -75.5 19.5t-25.5 52.5z" />
<glyph unicode="&#x201d;" horiz-adv-x="716" d="M39 1075q0 15 16 55q72 152 72 340q0 76 100 76h29q48 0 73 -19t25 -52q0 -84 -26.5 -167.5t-64.5 -141t-79 -93t-71 -35.5q-27 0 -50.5 9.5t-23.5 27.5zM358 1075q0 13 17 55q71 150 71 340q0 76 101 76h28q48 0 73.5 -19t25.5 -52q0 -84 -27 -167.5t-65 -141t-79 -93 t-71 -35.5q-27 0 -50.5 9.5t-23.5 27.5z" />
<glyph unicode="&#x201e;" horiz-adv-x="688" d="M8 -209q0 9 19 57q69 149 69 338q0 35 25.5 55.5t75.5 20.5h28q48 0 73.5 -19.5t25.5 -52.5q0 -84 -27 -167.5t-65 -140.5t-79 -92.5t-71 -35.5q-28 0 -51 9t-23 28zM326 -209q0 12 18 57q70 151 70 338q0 35 25.5 55.5t74.5 20.5h29q48 0 73 -19.5t25 -52.5 q0 -84 -27 -167.5t-65 -140.5t-79 -92.5t-71 -35.5q-28 0 -50.5 8.5t-22.5 28.5z" />
<glyph unicode="&#x2022;" horiz-adv-x="688" d="M80 668q0 109 76.5 186.5t185.5 77.5t186.5 -77.5t77.5 -186.5t-77.5 -185.5t-186.5 -76.5t-185.5 76.5t-76.5 185.5z" />
<glyph unicode="&#x2026;" horiz-adv-x="1263" d="M80 49v160q0 53 100 53h47q101 0 101 -53v-160q0 -53 -101 -53h-47q-100 0 -100 53zM510 49v160q0 53 100 53h47q101 0 101 -53v-160q0 -53 -101 -53h-47q-100 0 -100 53zM938 49v160q0 53 100 53h47q101 0 101 -53v-160q0 -53 -101 -53h-47q-100 0 -100 53z" />
<glyph unicode="&#x202f;" horiz-adv-x="375" />
<glyph unicode="&#x2039;" horiz-adv-x="614" d="M78 528q0 37 28 72l265 318q23 26 49 26t60 -26.5t34 -55.5q0 -19 -18 -43l-226 -291l226 -292q18 -21 18 -43q0 -24 -32.5 -53t-61.5 -29q-24 0 -49 28l-265 318q-28 35 -28 71z" />
<glyph unicode="&#x203a;" horiz-adv-x="614" d="M98 193q0 19 17 43l227 292l-227 291q-17 27 -17 43q0 29 33 55.5t59 26.5q29 0 52 -26l262 -318q31 -34 31 -72q0 -37 -31 -71l-262 -318q-25 -28 -52 -28t-59.5 29t-32.5 53z" />
<glyph unicode="&#x205f;" horiz-adv-x="469" />
<glyph unicode="&#x20ac;" horiz-adv-x="1228" d="M0 545v14q0 35 11.5 50.5t37.5 15.5h84q-2 31 -2 94q0 55 2 82h-84q-26 0 -37.5 15t-11.5 50v15q0 34 11.5 48.5t37.5 14.5h98q42 251 197.5 377.5t407.5 126.5q86 0 171 -19t140 -50.5t55 -65.5t-35.5 -90t-62.5 -56q-4 0 -26.5 12.5t-52 27.5t-83 27.5t-113.5 12.5 q-144 0 -232 -73t-120 -230h535q27 0 39 -15t12 -48v-15q0 -35 -12 -50t-39 -15h-553q-2 -27 -2 -84q0 -63 2 -92h553q27 0 39 -15.5t12 -50.5v-14q0 -64 -51 -64h-533q33 -149 121.5 -222t218.5 -73q81 0 153 24t113.5 47.5t47.5 23.5q30 0 61 -55t31 -83q0 -40 -60.5 -77 t-152.5 -58.5t-185 -21.5q-259 0 -408 122t-188 373h-98q-26 0 -37.5 15t-11.5 49z" />
<glyph unicode="&#x2122;" horiz-adv-x="1581" d="M55 1362v27q0 45 29 45h541q28 0 28 -45v-27q0 -45 -28 -45h-201v-662q0 -30 -57 -30h-23q-57 0 -57 30v662h-203q-29 0 -29 45zM715 655v750q0 31 55 31h51q45 0 58 -25l196 -342l33 -70l33 66l196 346q16 25 60 25h47q55 0 55 -31v-750q0 -30 -55 -30h-19q-57 0 -57 30 v557l-6 2l-199 -358q-10 -18 -35 -18h-41q-24 0 -32 18l-203 363l-6 -2v-562q0 -30 -58 -30h-18q-55 0 -55 30z" />
<glyph unicode="&#x25fc;" horiz-adv-x="1075" d="M0 0v1075h1075v-1075h-1075z" />
</font>
</defs>
</svg>
