<?xml version="1.0" standalone="no"?>
<!DOCTYPE svg PUBLIC "-//W3C//DTD SVG 1.1//EN" "http://www.w3.org/Graphics/SVG/1.1/DTD/svg11.dtd" >
<svg xmlns="http://www.w3.org/2000/svg" xmlns:xlink="http://www.w3.org/1999/xlink" version="1.1">
<metadata></metadata>
<defs>
<font id="asapmediumitalic" horiz-adv-x="655" >
<font-face units-per-em="2048" ascent="1638" descent="-410" />
<missing-glyph horiz-adv-x="491" />
<glyph unicode="&#xfb01;" horiz-adv-x="1153" d="M88 932q0 139 68 139h57l16 172q14 158 101.5 234.5t218.5 76.5q178 0 178 -84q0 -28 -23.5 -81.5t-44.5 -53.5q-3 0 -25 6.5t-50 6.5q-45 0 -69 -25t-30 -84l-18 -168h143q20 0 26.5 -9t6.5 -32q0 -30 -10 -66t-36 -68t-62 -32h-89l-84 -811q-6 -57 -114 -57h-39 q-103 0 -103 57l84 811h-55q-26 0 -36.5 16.5t-10.5 51.5zM700 221q0 31 19.5 229.5t39.5 383t21 184.5q6 57 113 57h41q102 0 102 -57q-78 -717 -78 -754q0 -42 16.5 -58t49.5 -16q16 0 35 6.5t22 6.5q15 0 15 -21q0 -25 -13 -104q-7 -46 -56 -69t-103 -23q-224 0 -224 235 zM811 1333l16 152q6 57 113 57h45q105 0 105 -55l-17 -152q-6 -57 -110 -57h-45q-107 0 -107 55z" />
<glyph unicode="&#xfb02;" horiz-adv-x="1210" d="M88 932q0 139 68 139h57l16 172q14 158 101.5 234.5t218.5 76.5q178 0 178 -84q0 -28 -23.5 -81.5t-44.5 -53.5q-3 0 -25 6.5t-50 6.5q-45 0 -69 -25t-30 -84l-18 -168h143q20 0 26.5 -9t6.5 -32q0 -30 -10 -66t-36 -68t-62 -32h-89l-84 -811q-6 -57 -114 -57h-39 q-103 0 -103 57l84 811h-55q-26 0 -36.5 16.5t-10.5 51.5zM717 223q0 21 13.5 158.5t32.5 320t38.5 361t32.5 302.5l14 124q3 28 25.5 41.5t72.5 13.5h66q90 0 90 -51q-127 -1200 -127 -1229q0 -42 16.5 -58t48.5 -16q16 0 35.5 6.5t22.5 6.5q14 0 14 -21q0 -43 -10 -104 q-8 -46 -57 -69t-103 -23q-112 0 -168.5 57t-56.5 180z" />
<glyph horiz-adv-x="0" />
<glyph horiz-adv-x="682" />
<glyph unicode="&#xd;" horiz-adv-x="491" />
<glyph unicode=" "  horiz-adv-x="491" />
<glyph unicode="&#x09;" horiz-adv-x="491" />
<glyph unicode="&#xa0;" horiz-adv-x="491" />
<glyph unicode="!" horiz-adv-x="602" d="M100 53l19 170q6 58 112 58h56q56 0 79 -14.5t23 -43.5l-18 -170q-6 -57 -113 -57h-55q-56 0 -79.5 14t-23.5 43zM180 498l92 882q6 58 115 58h70q104 0 104 -54q0 -16 -27.5 -152t-84.5 -409t-68 -325q-7 -30 -26.5 -44t-67.5 -14h-23q-52 0 -68 13t-16 45z" />
<glyph unicode="&#x22;" horiz-adv-x="653" d="M86 1004v376q0 58 113 58h16q53 0 77.5 -13.5t24.5 -44.5q0 -5 -14.5 -67.5t-38 -164t-33.5 -144.5q-9 -48 -65 -48h-21q-59 0 -59 48zM371 1004v376q0 58 112 58h17q53 0 77.5 -13.5t24.5 -44.5q0 -5 -14.5 -67.5t-38 -164t-33.5 -144.5q-9 -48 -65 -48h-21 q-59 0 -59 48z" />
<glyph unicode="#" horiz-adv-x="1093" d="M-4 451q0 135 65 135h150l74 252h-123q-26 0 -36.5 15.5t-10.5 51.5q0 133 67 133h160l88 310q9 30 35.5 43.5t79.5 13.5h18q41 0 57.5 -9.5t16.5 -29.5q0 -10 -8.5 -39t-33 -112.5t-50.5 -176.5h211l88 310q8 30 34 43.5t78 13.5h21q41 0 57.5 -9.5t16.5 -29.5 q0 -7 -3 -20t-11 -40.5t-17.5 -58.5t-27 -90t-34.5 -119h95q26 0 36.5 -15.5t10.5 -49.5q0 -55 -15.5 -95t-52.5 -40h-131l-74 -252h113q45 0 45 -68q0 -133 -65 -133h-150l-96 -332q-15 -57 -111 -57h-20q-43 0 -58.5 10t-15.5 33q0 8 2.5 19t10 35.5t17 56t28.5 95.5 t40 140h-211l-96 -332q-15 -57 -110 -57h-21q-43 0 -59.5 10t-14.5 33q0 8 2.5 19t10 35.5t17 55.5t29 96t40.5 140h-113q-25 0 -35 15t-10 51zM414 586h211l73 252h-211z" />
<glyph unicode="$" horiz-adv-x="1015" d="M57 133q0 193 45 193q9 0 37.5 -17.5t64 -39t96 -39t124.5 -17.5l43 405q-144 60 -203 99q-153 104 -153 282q0 102 35 184t97 135.5t141 85t171 40.5l8 74q2 22 12 31.5t33 9.5h25q20 0 27.5 -9.5t7.5 -31.5q0 -2 -2 -14.5t-4 -28.5t-3 -27q123 -5 217.5 -44.5 t94.5 -88.5q0 -34 -42.5 -95t-70.5 -61q-8 0 -36 14.5t-77.5 30t-109.5 17.5l-39 -373q37 -16 54.5 -24t53 -25.5t54 -29.5t48 -32.5t45.5 -39t36 -44.5t30.5 -53t17.5 -61t7 -72q0 -114 -35.5 -203.5t-98 -145.5t-138 -87.5t-164.5 -40.5l-10 -96q-3 -41 -45 -41h-23 q-22 0 -29.5 9t-7.5 32q0 14 10 92q-54 3 -108.5 11.5t-110 25t-90.5 45t-35 65.5zM371 1042q0 -49 32 -83.5t93 -65.5l32 317q-80 -16 -118.5 -61.5t-38.5 -106.5zM528 227q67 18 108.5 67t41.5 122q0 91 -113 151z" />
<glyph unicode="%" horiz-adv-x="1566" d="M139 1042q0 97 22 171.5t55.5 118t80 70.5t90 36.5t90.5 9.5q41 0 76 -6.5t71 -25.5t61.5 -48.5t41.5 -79t16 -114.5q0 -106 -27 -186.5t-75 -127t-107 -69.5t-128 -23q-52 0 -95.5 12t-84 40t-64 85t-23.5 137zM248 18q0 10 10 27l883 1344q32 49 84 49h75 q16 0 25.5 -6.5t9.5 -16.5q0 -9 -10 -26l-883 -1344q-32 -49 -82 -49h-77q-35 0 -35 22zM322 1053q0 -138 98 -138q40 0 69 24.5t43.5 64.5t20.5 79.5t6 81.5q0 131 -100 131q-42 0 -71 -24.5t-42.5 -65t-18.5 -77t-5 -76.5zM838 258q0 97 21.5 171.5t54.5 118.5t79.5 71.5 t89.5 37t91 9.5q41 0 77 -7t72 -26t61.5 -49t41.5 -80t16 -115q0 -106 -27.5 -186t-76 -126t-107 -68.5t-127.5 -22.5q-266 0 -266 272zM1020 266q0 -133 98 -133q39 0 68 24t43.5 63t21 78t6.5 79q0 135 -100 135q-43 0 -72 -25t-42 -67t-18 -78t-5 -76z" />
<glyph unicode="&#x26;" horiz-adv-x="1277" d="M31 360q0 156 79 270t207 156v9q-76 33 -121.5 101t-45.5 159q0 182 128 287.5t328 105.5q38 0 65.5 -2t61 -8t52 -21.5t18.5 -38.5q0 -53 -27 -101t-49 -48q-2 0 -37 7t-69 7q-109 0 -163.5 -62t-54.5 -145q0 -75 56 -126.5t159 -51.5h211l21 176q6 60 113 60h36 q103 0 103 -58l-19 -178h142q20 0 26 -8t6 -31q0 -30 -10 -66t-36 -68t-62 -32h-86q-39 -359 -39 -377q0 -86 76 -86q28 0 55 8l27 7q16 0 16 -23q0 -40 -10 -104q-9 -43 -58 -67.5t-110 -24.5q-142 0 -205 82q-171 -82 -366 -82q-118 0 -210.5 40t-150 126t-57.5 208z M293 389q0 -98 61.5 -148.5t153.5 -50.5q123 0 260 62q2 36 12 136t20 182l9 83h-225q-291 0 -291 -264z" />
<glyph unicode="'" horiz-adv-x="374" d="M98 1004v376q0 58 113 58h16q53 0 78 -13.5t25 -44.5q0 -5 -14.5 -67.5t-38 -164t-33.5 -144.5q-9 -48 -66 -48h-20q-60 0 -60 48z" />
<glyph unicode="(" horiz-adv-x="616" d="M96 408q0 327 118 633.5t329 533.5q23 29 53 29q27 0 57.5 -24t30.5 -50q0 -25 -16 -47q-361 -493 -361 -1092q0 -366 168 -698q10 -17 10 -31q0 -29 -35 -59.5t-69 -30.5q-29 0 -49 29q-114 160 -175 367.5t-61 439.5z" />
<glyph unicode=")" horiz-adv-x="616" d="M-74 -352q0 18 15 39q360 499 360 1101q0 187 -40.5 354t-127.5 341q-10 17 -10 30q0 30 34.5 60.5t69.5 30.5q27 0 47 -29q116 -162 177 -367.5t61 -435.5q0 -310 -112 -618.5t-332 -552.5q-26 -29 -54 -29q-29 0 -58.5 24.5t-29.5 51.5z" />
<glyph unicode="*" horiz-adv-x="763" d="M76 1202q0 27 15 48.5t40 21.5q9 0 25 -4l168 -56l20 185q3 28 16.5 40.5t42.5 12.5q30 0 40 -12t10 -41l-21 -185l178 56q16 4 23 4q17 0 31 -16t14 -42q0 -21 -9.5 -32.5t-33.5 -18.5l-180 -53l110 -178q10 -17 10 -31q0 -16 -22 -36.5t-43 -20.5q-25 0 -39 26 l-111 183l-151 -183q-23 -26 -43 -26q-18 0 -36.5 17t-18.5 32q0 21 18 39l145 178l-165 53q-33 11 -33 39z" />
<glyph unicode="+" horiz-adv-x="1146" d="M86 451q0 48 15 85t51 37h329l37 334q3 54 92 54h23q48 0 65 -12.5t17 -41.5l-35 -334h332q26 0 36.5 -16.5t10.5 -52.5q0 -121 -66 -121h-331l-35 -330q-6 -55 -95 -55h-22q-48 0 -65 12.5t-17 42.5l35 330h-330q-26 0 -36.5 16t-10.5 52z" />
<glyph unicode="," horiz-adv-x="405" d="M-27 -213q0 16 17 47q29 51 47 90.5t39 114t30 162.5q7 80 115 80h31q100 0 100 -72q-4 -94 -61.5 -205t-128 -182.5t-113.5 -71.5q-28 0 -52 9.5t-24 27.5z" />
<glyph unicode="-" d="M63 512q0 127 68 127h410q47 0 47 -64q0 -19 -2.5 -37.5t-8.5 -41t-21 -36.5t-36 -14h-409q-48 0 -48 66z" />
<glyph unicode="." horiz-adv-x="405" d="M57 53l17 170q6 58 114 58h56q56 0 78 -14.5t22 -43.5l-16 -170q-6 -57 -115 -57h-55q-58 0 -79.5 13t-21.5 44z" />
<glyph unicode="/" horiz-adv-x="757" d="M-131 -135q0 6 10 26l770 1493q29 54 107 54h49q61 0 61 -27q0 -14 -8 -27l-772 -1493q-26 -53 -104 -53h-50q-63 0 -63 27z" />
<glyph unicode="0" horiz-adv-x="1095" d="M57 553q0 171 29.5 317t82 251t123.5 179.5t154.5 111t174.5 36.5q191 0 301 -148.5t110 -427.5q0 -211 -45.5 -381.5t-123.5 -279.5t-179.5 -167t-216.5 -58q-190 0 -300 146.5t-110 420.5zM315 535q0 -172 47 -258.5t127 -86.5q52 0 101.5 43t91.5 125.5t68 221 t26 311.5q0 175 -47.5 263.5t-128.5 88.5q-41 0 -81.5 -26.5t-77.5 -83.5t-65 -138t-44.5 -200t-16.5 -260z" />
<glyph unicode="1" horiz-adv-x="1095" d="M47 68q0 139 68 139h303l104 985l-313 -47q-45 0 -45 106q0 44 10.5 64t44.5 26l506 99q27 0 50.5 -14.5t23.5 -32.5l-125 -1186h250q26 0 36.5 -16.5t10.5 -51.5q0 -139 -68 -139h-809q-26 0 -36.5 16.5t-10.5 51.5z" />
<glyph unicode="2" horiz-adv-x="1095" d="M25 150q0 18 6 30l602 658q112 122 112 241q0 77 -52.5 119.5t-143.5 42.5q-55 0 -105 -14.5t-79 -32.5t-54 -32.5t-35 -14.5q-32 0 -59 41t-27 78q0 43 41.5 79t104.5 57.5t130.5 33.5t125.5 12q189 0 302.5 -95t113.5 -239q0 -112 -49 -207t-177 -237l-426 -463h527 q45 0 45 -68q0 -139 -70 -139h-782q-19 0 -35 53t-16 97z" />
<glyph unicode="3" horiz-adv-x="1095" d="M84 104q0 166 43 166q5 0 43 -20t106 -40t146 -20q108 0 185 69t77 202q0 99 -60.5 145.5t-181.5 46.5h-63q-26 0 -36.5 16.5t-10.5 51.5q0 137 69 137h48q121 0 188.5 70t67.5 159q0 67 -43 110.5t-134 43.5q-73 0 -131.5 -16.5t-91.5 -32.5t-45 -16q-24 0 -50 48 t-26 85q0 43 65 75.5t155 48t182 15.5q177 0 279 -82t102 -231q0 -120 -64 -209.5t-168 -130.5v-9q97 -34 153 -116.5t56 -198.5q0 -117 -43 -211.5t-115 -153t-161.5 -89.5t-188.5 -31q-45 0 -94 4t-113 15t-104.5 36.5t-40.5 62.5z" />
<glyph unicode="4" horiz-adv-x="1095" d="M2 455q0 31 6 37l727 911q28 35 109 35h47q52 0 73 -14.5t21 -43.5l-90 -864h100q26 0 36.5 -16t10.5 -51q0 -140 -69 -140h-101l-26 -256q-6 -57 -105 -57h-55q-52 0 -73 14t-21 43l26 256h-567q-20 0 -34.5 50.5t-14.5 95.5zM274 516h367l55 535l-8 2z" />
<glyph unicode="5" horiz-adv-x="1095" d="M78 104q0 166 43 166q5 0 42.5 -20t107 -40t153.5 -20q121 0 201 75.5t80 211.5q0 205 -273 205h-205q-35 0 -49 11.5t-14 41.5q0 14 102 625q6 39 26.5 56.5t61.5 17.5h582q26 0 36.5 -16.5t10.5 -51.5q0 -139 -70 -139h-426l-57 -340h72q465 0 465 -375 q0 -118 -34.5 -211t-90.5 -151t-131.5 -96t-151.5 -53t-158 -15q-42 0 -87.5 4t-103.5 15t-95 36.5t-37 62.5z" />
<glyph unicode="6" horiz-adv-x="1095" d="M53 420q0 119 24.5 229.5t66 198t97 166t117 137t126 107.5t124 82t111.5 56t87.5 33.5t53.5 10.5q36 0 55 -47t19 -90q0 -22 -5.5 -32t-21.5 -14q-182 -63 -316 -181t-200 -273q111 57 238 57q64 0 125.5 -21.5t114.5 -64t85.5 -116t32.5 -166.5q0 -100 -30 -185 t-81 -143t-118 -99t-140 -60t-149 -19q-88 0 -162 25.5t-131.5 76.5t-90 136t-32.5 196zM311 422q0 -122 52 -175.5t133 -53.5q90 0 160.5 73.5t70.5 194.5q0 94 -52 143t-140 49q-97 0 -205 -57q-19 -131 -19 -174z" />
<glyph unicode="7" horiz-adv-x="1095" d="M100 33q0 9 13 35l659 1159h-575q-26 0 -36.5 16t-10.5 51q0 140 69 140h811q12 0 24.5 -48t12.5 -90q0 -28 -6 -43l-684 -1218q-22 -39 -109 -39h-63q-51 0 -78 6.5t-27 30.5z" />
<glyph unicode="8" horiz-adv-x="1095" d="M39 354q0 140 65.5 254.5t190.5 163.5q-129 87 -129 254q0 180 128 301t341 121q173 0 276 -87t103 -228q0 -245 -221 -347q92 -44 144 -119t52 -200q0 -76 -19.5 -146t-61.5 -131.5t-101.5 -106.5t-144.5 -71t-187 -26q-211 0 -323.5 99.5t-112.5 268.5zM301 387 q0 -93 52 -145t141 -52q92 0 163.5 68.5t71.5 181.5q0 51 -16 88t-58.5 67t-73.5 44.5t-103 43.5q-2 1 -3.5 1.5t-3.5 1.5q-170 -105 -170 -299zM420 1053q0 -71 46.5 -111.5t135.5 -75.5q158 92 158 234q0 68 -43 105.5t-109 37.5q-79 0 -133.5 -49t-54.5 -141z" />
<glyph unicode="9" horiz-adv-x="1095" d="M104 944q0 100 30 184t81 142t118 99t140.5 60t149.5 19q88 0 162 -25.5t131 -76.5t89.5 -135.5t32.5 -194.5q0 -120 -24.5 -230.5t-66 -198t-97 -166t-117 -137.5t-126 -108t-124 -82t-111.5 -56t-87.5 -33.5t-53.5 -10.5q-36 0 -54.5 47t-18.5 92q0 21 4.5 30t21.5 15 q182 61 316 180t200 275q-113 -58 -237 -58q-64 0 -125.5 21.5t-115 64t-86 116t-32.5 167.5zM365 973q0 -94 52 -143.5t140 -49.5q95 0 205 58q18 124 18 174q0 124 -51.5 177.5t-132.5 53.5q-90 0 -160.5 -74.5t-70.5 -195.5z" />
<glyph unicode=":" horiz-adv-x="405" d="M16 53l17 170q6 58 114 58h54q56 0 79 -14.5t23 -43.5l-18 -170q-6 -57 -113 -57h-55q-55 0 -78 14t-23 43zM98 848l19 170q6 57 112 57h56q56 0 79 -14t23 -43l-18 -170q-6 -57 -113 -57h-55q-56 0 -79.5 14t-23.5 43z" />
<glyph unicode=";" horiz-adv-x="405" d="M-66 -213q0 16 17 47q29 52 47 90.5t39.5 114t30.5 162.5q7 80 114 80h31q100 0 100 -72q-4 -94 -61.5 -205t-128 -182.5t-113.5 -71.5q-28 0 -52 9.5t-24 27.5zM111 848l18 170q3 57 113 57h55q56 0 79 -14t23 -43l-18 -170q-6 -57 -113 -57h-55q-56 0 -79 14t-23 43z " />
<glyph unicode="&#x3c;" horiz-adv-x="1146" d="M76 457q0 104 67 133l891 362q20 4 27 4q33 0 33 -51q0 -128 -72 -157l-672 -259l619 -260q47 -20 47 -88q0 -43 -12.5 -82t-42.5 -39q-9 0 -23 7l-815 362q-47 20 -47 68z" />
<glyph unicode="=" horiz-adv-x="1146" d="M63 258q0 123 68 123h866q45 0 45 -62q0 -126 -65 -126h-866q-48 0 -48 65zM102 616q0 123 68 123h866q45 0 45 -61q0 -129 -65 -129h-866q-48 0 -48 67z" />
<glyph unicode="&#x3e;" horiz-adv-x="1146" d="M41 72q0 127 72 157l673 258l-618 261q-47 20 -47 88q0 43 12.5 81.5t40.5 38.5q11 0 23 -6l817 -362q45 -20 45 -68q0 -104 -68 -133l-889 -362q-25 -5 -26 -5q-35 0 -35 52z" />
<glyph unicode="?" horiz-adv-x="911" d="M137 1296q0 49 66 85t152 51.5t171 15.5q189 0 294.5 -86t105.5 -229q0 -68 -22 -128.5t-58 -107t-80.5 -88t-91 -79.5t-87.5 -74.5t-72.5 -79.5t-43.5 -87q-10 -28 -32 -38.5t-66 -10.5h-41q-46 0 -64 12.5t-18 41.5q0 141 203 329q4 4 13 12q49 45 73 68.5t54.5 59.5 t43 66.5t12.5 62.5q0 129 -176 129q-54 0 -108.5 -16.5t-91 -33t-46.5 -16.5q-29 0 -59.5 53t-30.5 88zM176 53l17 170q6 58 114 58h55q56 0 78.5 -14.5t22.5 -43.5l-17 -170q-6 -57 -114 -57h-56q-58 0 -79 13t-21 44z" />
<glyph unicode="@" horiz-adv-x="1994" d="M172 489q0 159 45.5 306t130 264.5t197.5 205.5t254.5 135.5t294.5 47.5q309 0 495.5 -182.5t186.5 -483.5q0 -183 -59.5 -335.5t-165.5 -241t-236 -88.5q-97 0 -152 42t-71 103q-40 -69 -104 -107t-142 -38q-57 0 -107 21.5t-90.5 64t-64 116t-23.5 168.5q0 245 111 398 t289 153q68 0 124.5 -29t90.5 -65q7 26 12 39t15 25.5t26 17t41 4.5h20q76 0 76 -51q0 -2 -16 -152.5t-31.5 -308.5t-15.5 -176q0 -78 75 -78q71 0 134.5 70.5t102 190.5t38.5 257q0 253 -154 408.5t-405 155.5q-164 0 -312.5 -67t-255 -181.5t-169 -273t-62.5 -335.5 q0 -286 151 -463.5t394 -177.5q86 0 156 16.5t107 33t44 16.5q12 0 12 -20q0 -22 -6 -52q-7 -36 -69 -59t-124 -30t-120 -7q-196 0 -348 93t-236 262t-84 388zM778 502q0 -106 37 -157.5t103 -51.5q50 0 98.5 42t83.5 126q10 201 41 348q-63 55 -140 55q-114 0 -168.5 -96.5 t-54.5 -265.5z" />
<glyph unicode="A" horiz-adv-x="1255" d="M-66 35q0 11 13 37l606 1327q16 39 106 39h91q92 0 100 -39l332 -1329q4 -12 4 -29q0 -45 -103 -45h-63q-89 0 -100 39l-68 280h-535l-127 -280q-19 -39 -94 -39h-55q-107 0 -107 39zM418 545h379l-107 454q-14 57 -14 127h-8q-19 -69 -43 -127z" />
<glyph unicode="B" horiz-adv-x="1214" d="M90 59q0 6 12 122q49 461 123 1179q3 38 22.5 56t59.5 18h395q221 0 331 -85t110 -233q0 -116 -75 -216.5t-183 -139.5l-2 -8q38 -8 79.5 -31t81 -59.5t64.5 -92t25 -118.5q0 -219 -151 -335t-417 -116h-407q-37 0 -52.5 13.5t-15.5 45.5zM373 227h239q112 0 180 61 t68 165q0 80 -61 122.5t-178 42.5h-207zM438 846h180q111 0 178.5 61t67.5 150q0 151 -209 151h-178z" />
<glyph unicode="C" horiz-adv-x="1267" d="M84 563q0 147 23.5 273t79 240.5t141.5 195.5t218.5 128.5t301.5 47.5q145 0 272 -40t127 -93q0 -36 -48.5 -103t-78.5 -67q-7 0 -31.5 12t-56.5 26t-91 26t-126 12q-228 0 -342.5 -161.5t-114.5 -457.5q0 -196 86.5 -292.5t262.5 -96.5q78 0 154.5 16.5t122 36.5 t81 36.5t41.5 16.5q7 0 10.5 -1t7.5 -7t4 -18q0 -68 -18 -166q-8 -38 -58 -67.5t-119 -44.5t-133.5 -22t-117.5 -7q-305 0 -451.5 140.5t-146.5 436.5z" />
<glyph unicode="D" horiz-adv-x="1423" d="M90 61q0 11 22.5 229t59.5 568.5t53 501.5q3 38 22.5 56t59.5 18h451q277 0 429 -148t152 -442q0 -211 -55 -374t-153.5 -264.5t-230.5 -153.5t-292 -52h-450q-37 0 -52.5 13.5t-15.5 47.5zM373 227h254q194 0 316 150t122 438q0 197 -87 294t-247 97h-254z" />
<glyph unicode="E" horiz-adv-x="1118" d="M86 59q0 33 135 1301q3 38 22.5 56t59.5 18h739q48 0 48 -68q0 -160 -70 -160h-547l-39 -358h488q47 0 47 -70q0 -157 -68 -157h-489l-43 -394h549q47 0 47 -67q0 -160 -68 -160h-743q-37 0 -52.5 13.5t-15.5 45.5z" />
<glyph unicode="F" horiz-adv-x="1030" d="M92 53q98 947 137 1307q3 38 22.5 56t59.5 18h672q47 0 47 -68q0 -160 -67 -160h-482l-39 -360h465q24 0 34.5 -16t10.5 -52q0 -75 -14 -117.5t-53 -42.5h-465l-60 -565q-6 -57 -114 -57h-51q-103 0 -103 57z" />
<glyph unicode="G" horiz-adv-x="1376" d="M92 565q0 441 198 662t564 221q145 0 273 -40t128 -93q0 -36 -48.5 -103t-78.5 -67q-6 0 -42 19t-106 38t-159 19q-223 0 -337.5 -158.5t-114.5 -460.5q0 -389 342 -389q115 0 198 18l35 318h-201q-47 0 -47 67q0 160 68 160h397q37 0 52.5 -13.5t15.5 -45.5 q0 -9 -11 -108t-27 -245t-24 -223q-5 -46 -55 -79t-128.5 -48t-151.5 -21.5t-150 -6.5q-297 0 -443.5 142t-146.5 437z" />
<glyph unicode="H" horiz-adv-x="1501" d="M100 53l140 1327q3 58 112 58h51q103 0 103 -58l-55 -532h620l57 532q3 58 113 58h51q103 0 103 -58l-138 -1327q-6 -57 -114 -57h-51q-103 0 -103 57l60 565h-623l-57 -565q-6 -57 -115 -57h-51q-103 0 -103 57z" />
<glyph unicode="I" horiz-adv-x="577" d="M86 53l139 1327q3 58 113 58h51q103 0 103 -58l-138 -1327q-6 -57 -114 -57h-52q-102 0 -102 57z" />
<glyph unicode="J" horiz-adv-x="823" d="M-31 66q0 170 39 170q5 0 19.5 -5t43.5 -9.5t68 -4.5q110 0 164 54t68 175l98 934q6 58 115 58h51q102 0 102 -58l-102 -964q-23 -204 -139 -317t-336 -113q-191 0 -191 80z" />
<glyph unicode="K" horiz-adv-x="1179" d="M78 53l139 1327q3 58 113 58h51q56 0 79 -14.5t23 -43.5l-59 -577l8 -2l471 602q26 35 121 35h70q47 0 71.5 -8t24.5 -19q0 -19 -23 -45l-497 -616l432 -684q14 -22 14 -35q-3 -35 -108 -35h-82q-98 0 -117 35l-391 635h-8l-64 -613q-6 -57 -115 -57h-51q-56 0 -79 14 t-23 43z" />
<glyph unicode="L" horiz-adv-x="991" d="M84 63l137 1317q6 58 115 58h51q102 0 102 -58l-120 -1153h508q45 0 45 -67q0 -75 -14.5 -117.5t-53.5 -42.5h-702q-38 0 -53 14t-15 49z" />
<glyph unicode="M" horiz-adv-x="1726" d="M94 53l139 1327q3 58 113 58h96q89 0 111 -49l287 -621l28 -78l52 84l413 615q32 49 117 49h92q56 0 79.5 -14.5t23.5 -43.5l-138 -1327q-6 -57 -114 -57h-43q-56 0 -79.5 14t-23.5 43l99 940h-9l-397 -596q-27 -35 -74 -35h-67q-46 0 -64 35l-276 598l-6 4l-101 -946 q-6 -57 -112 -57h-43q-56 0 -79.5 14t-23.5 43z" />
<glyph unicode="N" horiz-adv-x="1472" d="M84 53l139 1327q3 58 113 58h72q45 0 70.5 -10t41.5 -39l471 -848l39 -80l96 919q6 58 115 58h43q102 0 102 -58l-139 -1327q-6 -57 -112 -57h-66q-84 0 -108 45l-488 877l-33 67l-98 -932q-6 -57 -113 -57h-43q-56 0 -79 14t-23 43z" />
<glyph unicode="O" horiz-adv-x="1497" d="M92 580q0 135 23.5 257.5t79 235.5t138 195t208 131t282.5 49q283 0 431.5 -152.5t148.5 -443.5q0 -417 -191.5 -641.5t-541.5 -224.5q-282 0 -430 152t-148 442zM369 604q0 -192 83 -291.5t244 -99.5q199 0 315.5 160t116.5 454q0 194 -83 294t-244 100 q-201 0 -316.5 -160.5t-115.5 -456.5z" />
<glyph unicode="P" horiz-adv-x="1167" d="M82 53l137 1307q3 38 22.5 56t59.5 18h434q58 0 110.5 -7t114 -30.5t105.5 -61.5t74 -106t30 -158q0 -93 -21.5 -170t-56 -128.5t-81.5 -90.5t-93.5 -61t-97 -36t-87 -18t-68.5 -4h-263l-53 -510q-6 -57 -112 -57h-52q-56 0 -79 14t-23 43zM424 793h242q27 0 54.5 5.5 t59.5 21.5t56.5 41.5t40.5 70t16 102.5q0 40 -12 71t-31 49.5t-45.5 30.5t-52 16.5t-54.5 4.5h-229z" />
<glyph unicode="Q" horiz-adv-x="1497" d="M98 580q0 147 28 276.5t86.5 238t144 186.5t206.5 121.5t268 43.5q283 0 430.5 -152t147.5 -444q0 -309 -115.5 -518t-316.5 -287v-8l328 -119q32 -10 32 -49q0 -52 -3.5 -89.5t-8.5 -58t-12.5 -32t-14 -14.5t-14.5 -3q-12 0 -157.5 59t-382 157t-332.5 137 q-311 126 -314 555zM375 602q0 -194 83 -295.5t244 -101.5q199 0 316 162t117 458q0 193 -83.5 294.5t-242.5 101.5q-200 0 -317 -162t-117 -457z" />
<glyph unicode="R" horiz-adv-x="1249" d="M82 53l137 1307q3 38 22.5 56t59.5 18h379q467 0 467 -326q0 -140 -73.5 -239t-201.5 -146v-8q82 -33 138 -213l127 -432q6 -21 6 -33q-3 -41 -115 -41h-59q-92 0 -103 39l-118 401q-27 84 -74 117t-152 33h-119l-55 -533q-6 -57 -112 -57h-52q-56 0 -79 14t-23 43z M430 817h221q88 0 153.5 67.5t65.5 159.5q0 78 -50.5 120t-141.5 42h-207z" />
<glyph unicode="S" horiz-adv-x="1024" d="M61 145q0 181 45 181q13 0 58 -29q127 -84 262 -84q102 0 172 46.5t70 137.5q0 36 -14.5 68t-32 53t-54.5 45.5t-59.5 36.5t-69.5 35q-34 17 -50.5 25.5t-49 27t-50 31t-45 34.5t-42.5 41t-34 46.5t-28.5 55.5t-16.5 63.5t-7 74.5q0 102 43 182.5t115.5 130t163.5 75.5 t192 26q140 0 243 -41t103 -90q0 -36 -41 -97t-70 -61q-3 0 -39 12q-97 50 -198 50q-119 0 -177.5 -49.5t-58.5 -122.5q0 -41 15.5 -74t49.5 -59.5t63.5 -43t82.5 -41.5q36 -17 54 -26t52.5 -27t53.5 -31.5t48 -35.5t45.5 -42t36 -48.5t30 -58.5t17.5 -67.5t7 -78.5 q0 -106 -41 -189.5t-112.5 -135t-162.5 -78.5t-196 -27q-59 0 -119.5 8t-119.5 25.5t-96.5 50t-37.5 75.5z" />
<glyph unicode="T" horiz-adv-x="1124" d="M80 1274q0 160 67 160h971q45 0 45 -68q0 -75 -14 -117.5t-53 -42.5h-351l-120 -1153q-6 -57 -113 -57h-53q-103 0 -103 57l121 1153h-350q-47 0 -47 68z" />
<glyph unicode="U" horiz-adv-x="1458" d="M115 406q0 23 98 974q6 58 115 58h51q55 0 77.5 -15t22.5 -43q-94 -907 -94 -927q0 -107 77 -173.5t210 -66.5q138 0 236 76t110 194l92 897q6 58 117 58h49q55 0 77.5 -15t22.5 -43l-94 -909q-25 -230 -191.5 -357.5t-441.5 -127.5q-257 0 -395.5 109.5t-138.5 310.5z " />
<glyph unicode="V" horiz-adv-x="1263" d="M92 1384q0 54 115 54h51q89 0 102 -49l213 -961l13 -86h8l33 88l417 959q20 49 111 49h45q107 0 107 -43q0 -11 -11 -33l-589 -1327q-19 -39 -107 -39h-90q-89 0 -100 39q-186 790 -295 1250q-23 97 -23 99z" />
<glyph unicode="W" horiz-adv-x="1806" d="M74 1380q0 58 119 58h40q105 0 111 -54l111 -784q11 -90 26 -258l90 260l281 795q13 41 104 41h62q93 0 98 -41l111 -799q22 -198 28 -264l91 270l274 780q18 54 123 54h18q109 0 109 -45q0 -9 -200 -558q-49 -136 -80 -222t-91 -251.5t-119 -326.5q-12 -39 -104 -39 h-125q-92 0 -98 39l-105 729l-22 211l-68 -215l-258 -725q-17 -39 -106 -39h-123q-96 0 -99 39z" />
<glyph unicode="X" horiz-adv-x="1251" d="M-53 35q0 17 22 45l504 668l-323 606q-13 26 -13 39q0 27 29.5 36t89.5 9h63q87 0 107 -37l225 -422l322 424q16 21 43 28t71 7h56q110 0 110 -39q0 -15 -20 -45l-459 -604l359 -670q10 -23 10 -37q0 -47 -117 -47h-63q-48 0 -72.5 8t-34.5 29l-260 483l-369 -485 q-17 -21 -43.5 -28t-70.5 -7h-56q-110 0 -110 39z" />
<glyph unicode="Y" horiz-adv-x="1144" d="M82 1393q0 27 29.5 36t89.5 9h63q89 0 107 -37l233 -461l334 463q23 35 115 35h53q106 0 106 -39q0 -15 -20 -45l-485 -656l-68 -645q-6 -57 -113 -57h-51q-56 0 -79 14t-23 43l67 652l-346 649q-12 21 -12 39z" />
<glyph unicode="Z" horiz-adv-x="1261" d="M6 150q0 24 8 32l844 1024h-631q-47 0 -47 68q0 160 70 160h932q20 0 36.5 -52.5t16.5 -97.5q0 -24 -6 -33l-848 -1024h690q47 0 47 -67q0 -160 -67 -160h-990q-21 0 -38 53t-17 97z" />
<glyph unicode="[" horiz-adv-x="595" d="M61 -219q0 18 181 1718q3 38 22.5 56t59.5 18h256q47 0 47 -53q0 -26 -4 -49.5t-20.5 -45.5t-43.5 -22h-123l-160 -1516h125q48 0 48 -53q0 -117 -66 -117h-254q-38 0 -53 14.5t-15 49.5z" />
<glyph unicode="\" horiz-adv-x="739" d="M74 1401q0 37 71 37h50q80 0 92 -54l377 -1374q2 -6 2 -16q0 -39 -70 -39h-49q-80 0 -92 55l-377 1374q-4 12 -4 17z" />
<glyph unicode="]" horiz-adv-x="595" d="M-31 -229q0 116 66 116h125l157 1516h-124q-48 0 -48 53q0 26 4 49.5t20.5 45.5t43.5 22h254q38 0 51.5 -14t13.5 -50q0 -16 -30 -307t-78.5 -747t-69.5 -664q-5 -38 -24.5 -56t-57.5 -18h-256q-47 0 -47 54z" />
<glyph unicode="^" horiz-adv-x="921" d="M49 684q0 18 10 35l328 631q26 53 86 53h55q57 0 74 -53l195 -631q6 -12 6 -31q-6 -35 -68 -35h-30q-72 0 -89 56l-141 465l-242 -465q-29 -56 -96 -56h-31q-57 0 -57 31z" />
<glyph unicode="_" horiz-adv-x="1093" d="M-43 -229q0 114 66 114h1069q47 0 47 -59q0 -26 -5 -50t-20.5 -44.5t-40.5 -20.5h-1069q-25 0 -36 14t-11 46z" />
<glyph unicode="`" d="M131 1473q0 16 27.5 22t89.5 6q123 0 153 -53q12 -23 32 -62q76 -155 79 -174q0 -15 -13 -20.5t-46 -5.5q-95 0 -131 45q-47 56 -109 129q-56 66 -69 83.5t-13 29.5z" />
<glyph unicode="a" horiz-adv-x="1116" d="M61 428q0 292 130.5 474.5t340.5 182.5q139 0 254 -110q9 31 15 45.5t18.5 29t32 19t51.5 4.5h21q94 0 94 -47q0 -2 -19.5 -184t-39 -371t-19.5 -207q0 -43 16.5 -58.5t49.5 -15.5q16 0 35.5 6.5t21.5 6.5q16 0 16 -21q0 -31 -12 -104q-8 -46 -57 -69t-103 -23 q-193 0 -219 172q-52 -83 -127.5 -128.5t-163.5 -45.5q-68 0 -127 26t-106.5 78t-75 139.5t-27.5 200.5zM322 444q0 -247 161 -247q60 0 117 50t96 150q5 47 12 120.5t12 127.5t7 66q3 20 21 102q-79 66 -164 66q-134 0 -198 -116.5t-64 -318.5z" />
<glyph unicode="b" horiz-adv-x="1165" d="M61 45l152 1440q6 57 115 57h39q102 0 102 -55l-59 -553q106 151 276 151q76 0 142 -25.5t119.5 -76.5t84.5 -138t31 -200q0 -292 -142 -475.5t-370 -183.5q-142 0 -258 106q-15 -52 -37 -73.5t-78 -22.5h-22q-95 0 -95 49zM334 254q74 -61 166 -61q103 0 172.5 56.5 t100 152t30.5 227.5q0 129 -52 187t-151 58q-60 0 -117 -49.5t-98 -146.5l-29 -270q-4 -24 -11 -76t-11 -78z" />
<glyph unicode="c" horiz-adv-x="993" d="M78 418q0 110 18 205.5t59.5 181.5t105 147.5t160 97t218.5 35.5q52 0 104 -7.5t99.5 -22.5t77 -40.5t30.5 -58.5q0 -28 -37 -81.5t-65 -53.5q-3 0 -37 19q-79 41 -172 41q-143 0 -220 -108.5t-77 -330.5q0 -130 53.5 -191t169.5 -61t244 60q32 16 45 16q5 0 7 -0.5 t3.5 -6.5t1.5 -19q0 -81 -14 -136q-13 -43 -76 -71.5t-124.5 -37.5t-116.5 -9q-231 0 -344 105.5t-113 326.5z" />
<glyph unicode="d" horiz-adv-x="1157" d="M63 428q0 292 135.5 474.5t354.5 182.5q141 0 240 -86l53 486q6 57 115 57h38q52 0 77.5 -15t25.5 -40q-127 -1186 -127 -1223q0 -42 16.5 -58t48.5 -16q16 0 36 6.5t22 6.5q16 0 16 -21q0 -31 -12 -104q-8 -46 -57 -69t-103 -23q-192 0 -221 174q-50 -83 -126 -128.5 t-167 -45.5q-58 0 -110.5 15.5t-99.5 50t-81 85t-54 125.5t-20 166zM326 444q0 -128 48 -187.5t142 -59.5q60 0 118 51t99 151l43 420q-72 60 -170 60q-142 0 -211 -116.5t-69 -318.5z" />
<glyph unicode="e" horiz-adv-x="1103" d="M78 426q0 319 151.5 489t411.5 170q88 0 157 -20t109.5 -50.5t67 -70.5t36 -75t9.5 -70q0 -81 -28.5 -146t-75 -107t-109.5 -70t-129.5 -40t-138.5 -12q-108 0 -201 14q3 -139 66.5 -193.5t179.5 -54.5q76 0 149 24t117.5 47.5t50.5 23.5q5 0 8 -1t6 -7t3 -19 q0 -1 -5 -56.5t-10 -76.5q-10 -38 -51 -67t-96.5 -43.5t-107 -21.5t-95.5 -7q-223 0 -349 108t-126 332zM350 606h115q77 0 143 16t112 53.5t46 92.5q0 52 -39.5 82.5t-105.5 30.5q-218 0 -271 -275z" />
<glyph unicode="f" horiz-adv-x="665" d="M88 932q0 139 68 139h57l16 172q14 158 101.5 234.5t218.5 76.5q178 0 178 -84q0 -28 -23.5 -81.5t-44.5 -53.5q-3 0 -25 6.5t-50 6.5q-45 0 -69 -25t-30 -84l-18 -168h143q20 0 26.5 -9t6.5 -32q0 -30 -10 -66t-36 -68t-62 -32h-89l-84 -811q-6 -57 -114 -57h-39 q-103 0 -103 57l84 811h-55q-26 0 -36.5 16.5t-10.5 51.5z" />
<glyph unicode="g" horiz-adv-x="1118" d="M74 434q0 290 135 470.5t354 180.5q138 0 254 -106q11 30 17 43.5t18.5 28t32 19t51.5 5.5h18q95 0 95 -49l-84 -831q-35 -330 -158 -479.5t-356 -149.5q-156 0 -263.5 43t-107.5 102q0 154 37 154q7 0 32 -14.5t57 -31.5t88 -31.5t118 -14.5q132 0 203.5 87.5 t86.5 272.5l3 27q-107 -154 -279 -154q-71 0 -133 25t-111.5 75t-78.5 134t-29 194zM334 451q0 -234 178 -234q60 0 118 51.5t99 151.5l27 244q20 146 22 153q-79 62 -166 62q-142 0 -210 -114.5t-68 -313.5z" />
<glyph unicode="h" horiz-adv-x="1157" d="M70 51l151 1434q6 57 113 57h39q102 0 102 -55l-57 -561q64 74 148.5 116.5t172.5 42.5q271 0 271 -262q0 -21 -28 -280.5t-28 -278.5q0 -42 17.5 -58t50.5 -16q16 0 35 6.5t22 6.5q15 0 15 -21q0 -25 -13 -104q-7 -46 -56 -69t-103 -23q-110 0 -167 57t-57 180 q0 30 25 271.5t25 255.5q0 61 -30.5 91.5t-96.5 30.5q-65 0 -127 -49t-103 -143l-65 -627q-6 -57 -115 -57h-39q-51 0 -76.5 15.5t-25.5 39.5z" />
<glyph unicode="i" horiz-adv-x="542" d="M84 221q0 31 19.5 229.5t39.5 383t21 184.5q6 57 112 57h41q103 0 103 -57q-78 -717 -78 -754q0 -42 16.5 -58t49.5 -16q16 0 35 6.5t22 6.5q14 0 14 -21q0 -31 -12 -104q-7 -46 -56.5 -69t-103.5 -23q-110 0 -166.5 56.5t-56.5 178.5zM195 1333l16 152q6 57 113 57h45 q104 0 104 -55l-16 -152q-6 -57 -111 -57h-45q-106 0 -106 55z" />
<glyph unicode="j" horiz-adv-x="565" d="M-141 -352q0 143 32 143q1 0 29 -9t60 -9q43 0 66.5 24.5t29.5 85.5l119 1135q6 57 112 57h41q103 0 103 -57l-121 -1139q-17 -158 -100 -235.5t-212 -77.5q-159 0 -159 82zM225 1333l17 152q6 57 112 57h45q105 0 105 -55l-17 -152q-6 -57 -110 -57h-45q-107 0 -107 55z " />
<glyph unicode="k" horiz-adv-x="1067" d="M74 53l151 1432q3 57 113 57h39q56 0 79 -14t23 -43l-88 -850h8l349 405q17 21 45.5 28t76.5 7h52q96 0 96 -26q0 -18 -25 -43l-368 -422l325 -518q13 -21 13 -35q0 -18 -24 -26.5t-85 -8.5h-57q-98 0 -115 35l-297 475h-8l-47 -453q-6 -57 -115 -57h-39q-56 0 -79 14 t-23 43z" />
<glyph unicode="l" horiz-adv-x="608" d="M100 223q0 21 13.5 158.5t32.5 320t38.5 361t33.5 302.5l13 124q3 28 26 41.5t73 13.5h65q90 0 90 -51q-127 -1200 -127 -1229q0 -42 17 -58t49 -16q16 0 35 6.5t22 6.5q15 0 15 -21q0 -37 -11 -104q-8 -46 -57 -69t-102 -23q-112 0 -169 57t-57 180z" />
<glyph unicode="m" horiz-adv-x="1736" d="M63 51q12 119 27 262t23.5 224t16.5 163t11.5 128.5t3.5 70.5q0 27 -1 58t-1 40q0 31 58.5 47.5t134.5 16.5q57 0 61 -148q57 76 145.5 124t180.5 48q223 0 262 -180q57 80 148.5 130t187.5 50q270 0 270 -262q0 -21 -27.5 -280.5t-27.5 -278.5q0 -42 17 -58t49 -16 q17 0 36.5 6.5t22.5 6.5q14 0 14 -21q0 -31 -12 -104q-8 -46 -57 -69t-103 -23q-110 0 -166.5 57t-56.5 180q0 30 24.5 271.5t24.5 255.5q0 61 -30.5 91.5t-96.5 30.5q-61 0 -120.5 -47.5t-102.5 -138.5l-61 -633q-6 -57 -115 -57h-39q-51 0 -76.5 15.5t-25.5 39.5 q71 674 71 699q0 122 -127 122q-64 0 -122.5 -47.5t-100.5 -138.5l-64 -633q-6 -57 -114 -57h-39q-51 0 -77 15.5t-26 39.5z" />
<glyph unicode="n" horiz-adv-x="1140" d="M55 51q12 119 27 262t23.5 224t16.5 163t11.5 128.5t3.5 70.5q0 27 -1 58t-1 40q0 31 58.5 47.5t134.5 16.5q61 0 61 -152q60 78 151.5 127t184.5 49q270 0 270 -262q0 -21 -27.5 -280.5t-27.5 -278.5q0 -42 17.5 -58t50.5 -16q16 0 35 6.5t22 6.5q14 0 14 -21 q0 -31 -12 -104q-7 -46 -56.5 -69t-103.5 -23q-110 0 -166.5 57t-56.5 180q0 30 24.5 271.5t24.5 255.5q0 61 -30.5 91.5t-96.5 30.5q-64 0 -127.5 -51.5t-103.5 -146.5l-64 -621q-6 -57 -114 -57h-39q-51 0 -77 15.5t-26 39.5z" />
<glyph unicode="o" horiz-adv-x="1165" d="M76 430q0 105 17.5 197.5t59 177.5t103.5 146.5t157.5 97.5t215.5 36q214 0 324 -114t110 -334q0 -312 -146.5 -481.5t-404.5 -169.5q-215 0 -325.5 113.5t-110.5 330.5zM336 442q0 -252 196 -252q128 0 198.5 113t70.5 324q0 128 -48 191t-147 63q-130 0 -200 -114.5 t-70 -324.5z" />
<glyph unicode="p" horiz-adv-x="1173" d="M31 -367l116 1117q11 125 11 149q0 27 -2 58t-2 40q0 31 58 47.5t134 16.5q62 0 62 -137v-6q50 79 126 123t164 44q75 0 140 -25.5t117.5 -77t83 -138t30.5 -199.5q0 -292 -137.5 -475.5t-358.5 -183.5q-128 0 -241 90l-45 -441q-6 -59 -115 -59h-39q-51 0 -76.5 16 t-25.5 41zM350 254q78 -64 168 -64q147 0 218 118.5t71 322.5q0 124 -51.5 183.5t-145.5 59.5q-61 0 -119.5 -51.5t-99.5 -150.5q-5 -60 -19.5 -201.5t-21.5 -216.5z" />
<glyph unicode="q" horiz-adv-x="1159" d="M74 428q0 192 63.5 342t178.5 232.5t264 82.5q142 0 258 -106q15 53 36 74t78 22h23q94 0 94 -49l-147 -1391q-6 -59 -113 -59h-39q-102 0 -102 57l51 504q-106 -151 -275 -151q-75 0 -140 25.5t-117 77t-82.5 139t-30.5 200.5zM334 444q0 -247 196 -247q60 0 117 49.5 t98 146.5l29 271q3 21 11 72.5t12 78.5q-72 64 -166 64q-152 0 -224.5 -116.5t-72.5 -318.5z" />
<glyph unicode="r" horiz-adv-x="749" d="M82 51l72 692q10 82 10 156q0 23 -1 55t-1 43q0 31 58 47.5t134 16.5q64 0 64 -139q108 163 248 163q50 0 74 -25.5t24 -62.5q0 -45 -27 -103t-47 -58q-5 0 -28.5 9t-53.5 9q-60 0 -115.5 -48.5t-93.5 -135.5l-61 -617q-6 -57 -115 -57h-39q-51 0 -76.5 15.5t-25.5 39.5z " />
<glyph unicode="s" horiz-adv-x="845" d="M41 109q0 58 10 95.5t19.5 48.5t17.5 11q11 0 37 -16q107 -58 194 -58q79 0 123.5 33t44.5 86q0 26 -9.5 47t-37.5 41.5t-42.5 28.5t-58.5 31q-10 5 -15 8q-57 30 -90 52t-69.5 57.5t-53.5 81t-17 104.5q0 150 110.5 237.5t282.5 87.5q43 0 88.5 -5.5t91 -17.5 t74.5 -35.5t29 -53.5q0 -31 -34.5 -83t-59.5 -52q-10 0 -37 10q-83 33 -141 33q-67 0 -103.5 -29t-36.5 -78q0 -23 9 -41t28.5 -33.5t41 -28t55.5 -30.5l12 -6q60 -30 97 -54t75 -60t56 -84t18 -109q0 -156 -113 -249t-297 -93q-66 0 -131.5 12t-116.5 41.5t-51 69.5z" />
<glyph unicode="t" horiz-adv-x="700" d="M90 932q0 139 68 139h63l23 203q6 57 112 57h39q103 0 103 -57l-21 -203h139q21 0 27 -9t6 -32q0 -30 -9.5 -66t-35.5 -68t-63 -32h-86q-62 -570 -62 -588q0 -86 76 -86q28 0 55 8l27 7q16 0 16 -23q0 -36 -12 -104q-8 -47 -57.5 -69.5t-108.5 -22.5q-114 0 -184 59.5 t-70 194.5q0 23 16.5 179t32.5 301l17 144h-64q-26 0 -36.5 16.5t-10.5 51.5z" />
<glyph unicode="u" horiz-adv-x="1140" d="M80 248q0 24 19 216.5t38 373.5l19 180q6 57 114 57h39q103 0 103 -57q-72 -672 -72 -699q0 -120 127 -120q67 0 129.5 49.5t101.5 146.5l66 623q6 57 113 57h41q102 0 102 -57q-78 -717 -78 -754q0 -42 17 -58t49 -16q17 0 36.5 6.5t22.5 6.5q14 0 14 -21 q0 -31 -12 -104q-8 -46 -57 -69t-103 -23q-198 0 -221 180q-61 -81 -151.5 -130.5t-186.5 -49.5q-270 0 -270 262z" />
<glyph unicode="v" horiz-adv-x="993" d="M61 1030q0 45 115 45h49q90 0 101 -39l96 -438q8 -37 22.5 -132.5t20.5 -129.5h8q67 194 96 262l189 438q16 39 104 39h35q104 0 104 -41q0 -16 -8 -35l-430 -964q-16 -39 -104 -39h-68q-89 0 -100 39l-225 966q-1 6 -3 16t-2 13z" />
<glyph unicode="w" horiz-adv-x="1529" d="M88 1028q6 47 119 47h37q92 0 98 -39l109 -698l247 696q14 41 107 41h39q90 0 96 -41l102 -696l256 698q14 39 113 39q107 0 107 -43q0 -9 -7 -33l-356 -964q-14 -39 -104 -39h-88q-91 0 -97 39l-94 637l-227 -637q-14 -39 -105 -39h-90q-90 0 -96 39q-166 971 -166 993z " />
<glyph unicode="x" horiz-adv-x="993" d="M-43 33q0 12 23 45l368 467l-250 446q-16 24 -16 45q2 39 121 39h49q45 0 70.5 -7t37.5 -30l154 -282l219 284q26 35 115 35h41q110 0 110 -37q0 -17 -22 -45l-350 -446l262 -467q14 -25 14 -43q0 -24 -29 -32.5t-88 -8.5h-49q-47 0 -72 7t-36 30l-168 305l-236 -307 q-16 -21 -43 -28t-71 -7h-43q-24 0 -39.5 1t-34 4.5t-28 11.5t-9.5 20z" />
<glyph unicode="y" horiz-adv-x="985" d="M66 1028q0 47 116 47h47q90 0 101 -39l106 -450q8 -35 37 -217h6q41 122 80 217l203 450q16 39 106 39h35q103 0 103 -39q0 -16 -9 -37l-637 -1380q-19 -43 -112 -43h-33q-98 0 -98 37q0 15 12 39l184 368q-247 993 -247 1008z" />
<glyph unicode="z" horiz-adv-x="1001" d="M20 129q0 28 9 37l589 698h-436q-26 0 -36.5 16.5t-10.5 51.5q0 139 68 139h721q17 0 30 -44.5t13 -86.5q0 -22 -9 -35l-587 -698h475q45 0 45 -68q0 -139 -68 -139h-760q-14 0 -28.5 45t-14.5 84z" />
<glyph unicode="{" horiz-adv-x="561" d="M35 621q0 57 13 82t56 47q59 27 86.5 81.5t38.5 159.5l37 344q12 116 70 177t141 61h88q49 0 49 -53q0 -115 -65 -115h-19q-31 0 -45.5 -22t-19.5 -70l-35 -355q-12 -114 -65 -195t-115 -118q48 -29 82.5 -94t34.5 -158q0 -45 -21.5 -224t-21.5 -220q0 -64 49 -64h16 q47 0 47 -51q0 -117 -65 -117h-88q-69 0 -116.5 51t-47.5 146q0 41 21.5 224.5t21.5 240.5q0 123 -78 168q-24 14 -36.5 30t-12.5 44z" />
<glyph unicode="|" horiz-adv-x="512" d="M160 -229v1749q0 55 84 55h26q82 0 82 -55v-1749q0 -56 -82 -56h-26q-84 0 -84 56z" />
<glyph unicode="}" horiz-adv-x="561" d="M-49 -229q0 114 67 114h17q29 0 44 22.5t21 69.5l35 355q11 115 63.5 196t116.5 117q-47 28 -81.5 93.5t-34.5 158.5q0 45 21.5 224t21.5 220q0 64 -47 64h-19q-47 0 -47 51q0 117 66 117h88q69 0 116 -51t47 -146q0 -41 -21.5 -224.5t-21.5 -240.5q0 -118 72 -161 q36 -25 45 -40q10 -17 10 -40q0 -56 -14 -82.5t-55 -46.5q-59 -27 -86.5 -82.5t-38.5 -159.5l-37 -344q-12 -116 -70 -177t-141 -61h-88q-49 0 -49 54z" />
<glyph unicode="~" horiz-adv-x="1120" d="M252 528q31 66 95 105t155 39q54 0 190 -35t178 -37q53 0 91 43q23 26 44 31.5t44 -2.5l24 -6q64 -16 37 -72q-30 -66 -94 -104.5t-154 -38.5q-56 0 -193 34t-180 35q-50 0 -88 -43q-23 -25 -43 -30t-45 2l-24 8q-64 16 -37 71z" />
<glyph unicode="&#xa1;" horiz-adv-x="602" d="M51 -313q0 22 28.5 164t82 394.5t69.5 327.5q7 30 26.5 44t68.5 14h22q51 0 67.5 -13t16.5 -45l-94 -882q-6 -58 -113 -58h-71q-103 0 -103 54zM223 848l19 170q6 57 112 57h56q56 0 79 -14t23 -43l-18 -170q-6 -57 -113 -57h-55q-56 0 -79.5 14t-23.5 43z" />
<glyph unicode="&#xa2;" horiz-adv-x="995" d="M88 418q0 135 27.5 247.5t86 206t160.5 149t240 62.5l8 76q3 22 12.5 31.5t30.5 9.5h25q21 0 29 -9.5t8 -31.5q0 -2 -1.5 -15.5l-3.5 -31.5t-3 -29q102 -8 172.5 -41t70.5 -86q0 -28 -37 -81.5t-65 -53.5q-6 0 -25.5 12t-56 26t-82.5 18l-74 -684q61 5 116 23.5t86.5 34 t39.5 15.5q5 0 7.5 -0.5t4.5 -6.5t2 -19q0 -84 -14 -136q-27 -96 -262 -116l-10 -99q-6 -41 -43 -41h-25q-22 0 -29.5 9t-7.5 32q0 17 10 99q-200 11 -298.5 116t-98.5 314zM348 442q0 -111 38.5 -170.5t119.5 -74.5l74 673q-232 -47 -232 -428z" />
<glyph unicode="&#xa3;" horiz-adv-x="1005" d="M-4 66q0 14 4 45q3 23 22.5 42t44.5 34.5t51 34t46 50.5t24 74l33 311h-88q-47 0 -47 68q0 139 70 139h86l18 162q45 422 498 422q209 0 209 -76q0 -39 -30 -90t-54 -51q-3 0 -21 4.5t-47 9t-59 4.5q-115 0 -173.5 -50.5t-70.5 -162.5l-18 -172h266q20 0 26.5 -9t6.5 -32 q0 -30 -10.5 -66t-37 -68t-63.5 -32h-209l-16 -145q-11 -126 -44.5 -195.5t-82.5 -109.5h499q24 0 34.5 -16t10.5 -50q0 -13 -4 -59q-3 -39 -20.5 -60.5t-44.5 -21.5h-752q-33 0 -45 15.5t-12 50.5z" />
<glyph unicode="&#xa4;" horiz-adv-x="1093" d="M84 303q0 26 29 55l51 45q-39 76 -39 166q0 152 88 265l-49 51q-19 27 -19 43q0 27 27 51l43 41q25 22 49 22q26 0 47 -24l49 -53q105 59 215 59q116 0 205 -61l62 57q25 22 51 22q23 0 43 -20l37 -41q18 -21 18 -41q0 -30 -28 -55l-62 -56q41 -77 41 -170 q0 -140 -84 -251l45 -50q19 -22 19 -45q0 -24 -25 -49l-45 -41q-22 -22 -51 -22q-23 0 -45 22l-43 49q-104 -63 -221 -63q-120 0 -209 61l-52 -47q-22 -22 -51 -22q-22 0 -41 22l-37 41q-18 22 -18 39zM319 592q0 -80 55 -134.5t138 -54.5q93 0 164.5 70t71.5 166 q0 82 -54.5 136t-136.5 54q-96 0 -167 -70.5t-71 -166.5z" />
<glyph unicode="&#xa5;" horiz-adv-x="1144" d="M59 446q0 99 66 99h299l16 153h-305q-45 0 -45 50q0 98 66 98h209l-271 508q-12 21 -12 39q0 27 29.5 36t89.5 9h63q89 0 107 -37l233 -461l334 463q23 35 115 35h53q106 0 106 -39q0 -15 -20 -45l-377 -508h201q47 0 47 -49q0 -20 -3.5 -39.5t-19.5 -39.5t-43 -20h-290 l-17 -153h295q47 0 47 -49q0 -14 -2 -28t-8 -31.5t-20 -28.5t-35 -11h-291l-37 -344q-6 -57 -113 -57h-51q-56 0 -79 14t-23 43l35 344h-304q-45 0 -45 49z" />
<glyph unicode="&#xa6;" horiz-adv-x="512" d="M68 -229q0 2 69 665q6 58 90 58h27q42 0 59 -14.5t17 -43.5q0 -11 -12 -124t-30.5 -284.5t-27.5 -256.5q-6 -58 -88 -58h-27q-44 0 -60.5 14t-16.5 44zM180 848q0 24 72 672q3 57 88 57h27q43 0 60 -14.5t17 -42.5q0 -3 -69 -666q-6 -59 -90 -59h-27q-78 0 -78 53z" />
<glyph unicode="&#xa7;" horiz-adv-x="878" d="M88 92q0 63 8 101t16 47.5t17 9.5q5 0 34 -15t76 -30t95 -15q68 0 104.5 25.5t36.5 69.5q0 29 -21.5 51t-55.5 36.5t-75 29t-82.5 36t-75.5 50t-55.5 78t-21.5 114.5q0 163 115 270q-60 57 -60 154q0 163 112 253.5t282 90.5q43 0 87.5 -5.5t88.5 -18t72 -36t28 -55.5 q0 -28 -34.5 -80.5t-61.5 -52.5q-6 0 -28 11t-59.5 21.5t-82.5 10.5q-69 0 -104 -24t-35 -68q0 -26 16.5 -46t43.5 -32.5t61.5 -27t71 -27.5t71 -35.5t61.5 -50t43.5 -72.5t16.5 -102q0 -165 -117 -273q61 -61 61 -153q0 -110 -54 -189.5t-141 -118t-196 -38.5 q-34 0 -72 4.5t-83 14.5t-74 32.5t-29 54.5zM326 727q0 -32 12 -55.5t37.5 -40.5t49.5 -27.5t64 -23.5q68 41 68 127q0 26 -9.5 47.5t-23 35.5t-37.5 27t-43 20.5t-51 18.5q-67 -48 -67 -129z" />
<glyph unicode="&#xa8;" d="M41 1264l12 116q6 58 117 58q56 0 79 -14.5t23 -43.5l-12 -116q-9 -58 -117 -58q-57 0 -79.5 14t-22.5 44zM383 1264l12 116q6 58 117 58q56 0 79 -14.5t23 -43.5l-12 -116q-9 -58 -117 -58q-57 0 -79.5 14t-22.5 44z" />
<glyph unicode="&#xa9;" horiz-adv-x="1513" d="M20 719q0 150 58 285.5t156.5 233t234 155t285.5 57.5q201 0 370 -97.5t267 -265.5t98 -368q0 -150 -58 -286.5t-156 -234.5t-234.5 -156t-286.5 -58t-285.5 58t-234 156t-156.5 234.5t-58 286.5zM139 719q0 -125 49 -239t131.5 -196.5t196 -131t238.5 -48.5t239 48.5 t196.5 131t131.5 196.5t49 239q0 166 -82.5 307t-224.5 223t-309 82q-166 0 -308 -82t-224.5 -223t-82.5 -307zM401 719q0 418 387 418q84 0 161 -24t77 -54q0 -23 -22.5 -59.5t-40.5 -36.5q-2 0 -23.5 10.5t-62 21.5t-89.5 11q-118 0 -174.5 -70.5t-56.5 -216.5 q0 -147 56 -219t171 -72q51 0 95.5 13t70 25.5t29.5 12.5q21 0 40 -35t19 -53q0 -39 -82.5 -65.5t-171.5 -26.5q-196 0 -289.5 102t-93.5 318z" />
<glyph unicode="&#xaa;" horiz-adv-x="653" d="M59 1122q0 145 65 235.5t171 90.5q72 0 127 -55q8 30 17.5 39.5t39.5 9.5h13q45 0 45 -23q0 -1 -9.5 -91t-19.5 -184t-10 -104q0 -20 7.5 -27t24.5 -7q7 0 17.5 3t11.5 3q6 0 6 -11q0 -31 -6 -61q-12 -37 -78 -37q-97 0 -106 86q-57 -86 -148 -86q-72 0 -120 55t-48 164z M188 1130q0 -122 82 -122q30 0 59 25t50 75q13 147 22 205q-38 33 -82 33q-66 0 -98.5 -58t-32.5 -158z" />
<glyph unicode="&#xab;" horiz-adv-x="964" d="M68 512q0 31 8 51.5t30 42.5l295 316q28 28 56 28q27 0 60.5 -27.5t33.5 -56.5q0 -18 -23 -49l-256 -289l195 -290q12 -18 12 -37q0 -26 -38 -61.5t-72 -35.5q-28 0 -50 31l-229 316q-22 27 -22 61zM455 512q0 55 39 94l294 316q28 28 56 28q27 0 60.5 -27.5t33.5 -56.5 q0 -18 -23 -49l-256 -289l195 -290q12 -18 12 -37q0 -26 -38 -61.5t-72 -35.5q-27 0 -49 31l-230 316q-22 31 -22 61z" />
<glyph unicode="&#xac;" horiz-adv-x="1146" d="M82 571q0 136 68 136h882q39 0 53.5 -17.5t14.5 -56.5l-45 -424q-6 -57 -80 -57h-37q-39 0 -53.5 13.5t-14.5 43.5l33 303h-774q-47 0 -47 59z" />
<glyph unicode="&#xad;" d="M63 512q0 127 68 127h410q47 0 47 -64q0 -19 -2.5 -37.5t-8.5 -41t-21 -36.5t-36 -14h-409q-48 0 -48 66z" />
<glyph unicode="&#xae;" horiz-adv-x="1513" d="M20 719q0 150 58 285.5t156.5 233t234 155t285.5 57.5q201 0 370 -97.5t267 -265.5t98 -368t-98 -368.5t-267 -266.5t-370 -98q-150 0 -285.5 58t-234 156t-156.5 233.5t-58 285.5zM139 719q0 -124 49 -238t131.5 -196.5t196.5 -131.5t238 -49q125 0 239 49t196.5 131.5 t131.5 196t49 238.5q0 167 -82.5 308t-224.5 222.5t-309 81.5q-125 0 -238.5 -48t-196 -130t-131.5 -195.5t-49 -238.5zM500 344v743q0 43 43 43h215q286 0 286 -215q0 -133 -137 -190v-8q49 -19 94 -117l99 -248q4 -16 4 -20q0 -21 -62 -21h-34q-51 0 -60 23l-90 227 q-23 49 -51 67.5t-88 18.5h-68v-303q0 -33 -63 -33h-27q-61 0 -61 33zM651 778h127q46 0 79.5 34.5t33.5 80.5q0 52 -32.5 80t-88.5 28h-119v-223z" />
<glyph unicode="&#xaf;" d="M41 1292q0 119 68 119h448q47 0 47 -59q0 -17 -2 -34t-8 -38t-21 -34t-36 -13h-449q-26 0 -36.5 14.5t-10.5 44.5z" />
<glyph unicode="&#xb0;" horiz-adv-x="706" d="M74 1149q0 123 84 211t217 88q104 0 175 -70.5t71 -173.5q0 -126 -86.5 -212.5t-215.5 -86.5q-106 0 -175.5 70t-69.5 174zM195 1159q0 -59 38.5 -99t96.5 -40q73 0 120.5 50.5t47.5 123.5q0 60 -38 99.5t-95 39.5q-74 0 -122 -52t-48 -122z" />
<glyph unicode="&#xb1;" horiz-adv-x="1146" d="M25 63q0 48 17 90t56 42h860q54 0 54 -64q0 -47 -17.5 -89t-56.5 -42h-860q-29 0 -41 15t-12 48zM100 715q0 45 17.5 86t56.5 41h322l34 325q6 62 95 62h22q48 0 65 -14t17 -48l-35 -325h326q29 0 41 -16.5t12 -51.5q0 -20 -3 -39t-10 -39t-23 -32.5t-38 -12.5h-323 l-35 -323q-6 -62 -94 -62h-23q-46 0 -64 15t-18 47l35 323h-323q-54 0 -54 64z" />
<glyph unicode="&#xb2;" d="M27 694q0 9 4 17l350 383q65 72 65 139q0 45 -30.5 69.5t-83.5 24.5q-41 0 -76 -13.5t-55.5 -26.5t-26.5 -13q-19 0 -35 23t-16 44q0 34 41.5 59.5t93 36.5t98.5 11q111 0 176.5 -55.5t65.5 -139.5q0 -61 -25 -113.5t-90 -127.5l-262 -287h303q29 0 29 -39q0 -80 -41 -80 h-455q-11 0 -20.5 30.5t-9.5 57.5z" />
<glyph unicode="&#xb3;" d="M61 668q0 96 25 96q3 0 25 -12t61.5 -23.5t85.5 -11.5q64 0 109 39.5t45 117.5q0 113 -142 113h-37q-28 0 -28 37q0 82 43 82h24q71 0 110.5 40.5t39.5 92.5q0 88 -100 88q-43 0 -77 -9.5t-54 -18.5t-27 -9q-13 0 -28 28.5t-15 49.5q0 36 73.5 58t159.5 22 q103 0 162 -47.5t59 -134.5q0 -70 -37 -121.5t-98 -75.5v-8q58 -19 90.5 -65.5t32.5 -114.5q0 -133 -88 -208t-209 -75q-26 0 -54.5 2.5t-66 9t-61 21.5t-23.5 37z" />
<glyph unicode="&#xb4;" d="M111 1208q0 3 1 7t4.5 11t7 13.5t11.5 18.5t15 23t20 30t25 37t31 46t36 54q37 53 164 53q111 0 111 -24q0 -19 -93 -109q-78 -76 -139 -137q-45 -45 -141 -45q-53 0 -53 22z" />
<glyph unicode="&#xb5;" horiz-adv-x="1159" d="M59 -367l146 1385q6 57 112 57h41q103 0 103 -57q-72 -672 -72 -699q0 -120 127 -120q66 0 129.5 50t102.5 146l65 623q6 57 113 57h39q102 0 102 -57q-76 -717 -76 -754q0 -42 17 -58t49 -16q16 0 35 6.5t22 6.5q14 0 14 -21q0 -43 -10 -104q-8 -46 -57 -69t-103 -23 q-199 0 -219 180q-65 -82 -155.5 -131t-184.5 -49q-33 0 -47 2l-37 -353q-6 -59 -114 -59h-39q-51 0 -77 16t-26 41z" />
<glyph unicode="&#xb6;" horiz-adv-x="1054" d="M125 922q0 119 42.5 217t114.5 161.5t164.5 98.5t194.5 35h436q23 0 31 -9.5t6 -31.5l-4 -45q-3 -41 -45 -41h-74l-170 -1616q-3 -21 -15 -33t-30 -12h-45q-22 0 -29.5 10.5t-7.5 34.5l170 1616h-159l-170 -1616q-3 -21 -15.5 -33t-30.5 -12h-45q-22 0 -29 10.5t-7 34.5 l86 815q-162 19 -265.5 135.5t-103.5 280.5z" />
<glyph unicode="&#xb7;" horiz-adv-x="546" d="M158 719q0 60 39 103.5t104 43.5q51 0 84 -33t33 -83q0 -60 -41.5 -102t-102.5 -42q-50 0 -83 32.5t-33 80.5z" />
<glyph unicode="&#xb8;" d="M96 -334q0 86 27 86q5 0 29.5 -13t64 -26.5t80.5 -13.5q76 0 78 51q-1 20 -17.5 34t-36.5 20.5t-36.5 19t-16.5 29.5q0 15 64 159h119l-37 -94q56 -6 102.5 -41t46.5 -102q0 -108 -72 -157.5t-188 -49.5q-28 0 -57 3.5t-66 12.5t-60.5 30t-23.5 52z" />
<glyph unicode="&#xb9;" horiz-adv-x="444" d="M63 1331q0 26 6.5 38t26.5 15l275 56q14 0 27.5 -8.5t13.5 -18.5l-82 -776q-3 -35 -66 -35h-24q-58 0 -58 35l70 659l-162 -28q-27 0 -27 63z" />
<glyph unicode="&#xba;" horiz-adv-x="690" d="M98 1122q0 152 74 239t201 87q101 0 158 -53t57 -166q0 -167 -75.5 -246.5t-197.5 -79.5q-101 0 -159 53t-58 166zM227 1128q0 -64 24.5 -93t74.5 -29q61 0 96 53.5t35 163.5q0 123 -97 123q-62 0 -97.5 -54.5t-35.5 -163.5z" />
<glyph unicode="&#xbb;" horiz-adv-x="964" d="M61 190q0 17 23 48l256 288l-195 291q-12 18 -12 37q0 29 39.5 62.5t73.5 33.5q25 0 47 -28l229 -316q23 -33 23 -65q0 -50 -39 -92l-295 -316q-29 -29 -55 -29q-27 0 -61 29.5t-34 56.5zM449 190q0 19 22 48l256 288l-195 291q-12 18 -12 37q0 29 39.5 62.5t73.5 33.5 q25 0 47 -28l229 -316q23 -33 23 -65q0 -50 -39 -92l-295 -316q-29 -29 -55 -29q-27 0 -60.5 29.5t-33.5 56.5z" />
<glyph unicode="&#xbc;" horiz-adv-x="1374" d="M113 1331q0 26 6 38t26 15l275 56q14 0 27.5 -8.5t13.5 -18.5l-82 -776q-3 -35 -66 -35h-24q-58 0 -58 35l70 659l-162 -28q-26 0 -26 63zM139 14q0 12 13 31l911 1346q33 45 88 45h31q37 0 37 -17q0 -9 -15 -28l-911 -1346q-34 -47 -86 -47h-33q-35 0 -35 16zM659 256 q0 17 3 20l423 539q18 21 64 21h29q30 0 41.5 -8.5t11.5 -26.5l-53 -508h59q27 0 27 -41q0 -80 -39 -80h-60l-14 -141q-3 -35 -61 -35h-31q-31 0 -43 8.5t-12 26.5l14 141h-330q-11 0 -20 29.5t-9 54.5zM817 293h213l25 229l18 96h-8z" />
<glyph unicode="&#xbd;" horiz-adv-x="1527" d="M113 1331q0 26 6 38t26 15l275 56q14 0 27.5 -8.5t13.5 -18.5l-82 -776q-3 -35 -66 -35h-24q-58 0 -58 35l70 659l-162 -28q-26 0 -26 63zM139 14q0 12 13 31l911 1346q33 45 88 45h31q37 0 37 -17q0 -9 -15 -28l-911 -1346q-34 -47 -86 -47h-33q-35 0 -35 16zM834 88 q0 8 4 16l350 383q65 72 65 142q0 44 -30.5 68t-83.5 24q-41 0 -76 -13.5t-55.5 -26.5t-26.5 -13q-19 0 -35 23.5t-16 45.5q0 33 41.5 58t93 36t98.5 11q111 0 176.5 -55.5t65.5 -137.5q0 -65 -28.5 -120.5t-104.5 -141.5l-244 -266h303q29 0 29 -41q0 -80 -41 -80h-455 q-11 0 -20.5 31t-9.5 57z" />
<glyph unicode="&#xbe;" horiz-adv-x="1511" d="M98 668q0 96 25 96q3 0 25 -12t61.5 -23.5t85.5 -11.5q64 0 109 39.5t45 117.5q0 113 -142 113h-37q-28 0 -28 37q0 82 43 82h24q71 0 110.5 40.5t39.5 92.5q0 40 -24.5 64t-76.5 24q-43 0 -77 -9.5t-53.5 -18.5t-26.5 -9q-13 0 -28 28.5t-15 49.5q0 36 73.5 58t159.5 22 q103 0 162 -47.5t59 -134.5q0 -70 -37 -121.5t-98 -75.5v-8q58 -19 90.5 -65.5t32.5 -114.5q0 -133 -88 -208t-209 -75q-26 0 -54.5 2.5t-66 9t-61 21.5t-23.5 37zM240 14q0 13 12 31l911 1346q33 45 88 45h31q37 0 37 -17q0 -11 -14 -28l-912 -1346q-34 -47 -86 -47h-33 q-34 0 -34 16zM764 256q0 18 2 20l424 539q18 21 63 21h29q30 0 41.5 -8.5t11.5 -26.5l-53 -508h59q27 0 27 -41q0 -80 -39 -80h-59l-15 -141q-3 -35 -61 -35h-31q-31 0 -43 8.5t-12 26.5l14 141h-329q-11 0 -20 29.5t-9 54.5zM922 293h213l24 225l19 100h-9z" />
<glyph unicode="&#xbf;" horiz-adv-x="870" d="M23 -61q0 66 22 126t57.5 106t79.5 88t90.5 80.5t87 75t72 80t43.5 87.5q10 28 32 38.5t68 10.5h41q46 0 63 -12t17 -41q0 -143 -184 -316q-11 -10 -46 -42t-46.5 -43.5t-37.5 -38t-36 -41.5t-24.5 -37.5t-19.5 -42.5t-5 -40q0 -127 178 -127q57 0 113.5 17t92 34 t40.5 17q22 0 22 -27q0 -83 -18 -161q-11 -43 -74.5 -69t-119.5 -32t-111 -6q-188 0 -292.5 86t-104.5 230zM487 848l17 170q6 57 117 57h53q58 0 79 -13t21 -44l-16 -170q-6 -57 -115 -57h-55q-55 0 -78 14t-23 43z" />
<glyph unicode="&#xc0;" horiz-adv-x="1255" d="M-66 35q0 11 13 37l606 1327q16 39 106 39h91q92 0 100 -39l332 -1329q4 -12 4 -29q0 -45 -103 -45h-63q-89 0 -100 39l-68 280h-535l-127 -280q-19 -39 -94 -39h-55q-107 0 -107 39zM418 545h379l-107 454q-14 57 -14 127h-8q-19 -69 -43 -127zM444 1835q0 17 27.5 23 t89.5 6q124 0 154 -54q101 -201 108 -223q2 -7 2 -12q0 -15 -13.5 -21t-45.5 -6q-95 0 -131 45q-47 56 -109 129q-56 66 -69 83.5t-13 29.5z" />
<glyph unicode="&#xc1;" horiz-adv-x="1255" d="M-66 35q0 11 13 37l606 1327q16 39 106 39h91q92 0 100 -39l332 -1329q4 -12 4 -29q0 -45 -103 -45h-63q-89 0 -100 39l-68 280h-535l-127 -280q-19 -39 -94 -39h-55q-107 0 -107 39zM418 545h379l-107 454q-14 57 -14 127h-8q-19 -69 -43 -127zM602 1571q0 4 2 9.5 t7.5 15.5t12.5 21t20.5 31l27 40t37 54.5t45.5 67.5q38 54 164 54q110 0 110 -25q0 -15 -15.5 -33t-82.5 -83q-76 -73 -133 -130q-45 -45 -142 -45q-53 0 -53 23z" />
<glyph unicode="&#xc2;" horiz-adv-x="1255" d="M-66 35q0 11 13 37l606 1327q16 39 106 39h91q92 0 100 -39l332 -1329q4 -12 4 -29q0 -45 -103 -45h-63q-89 0 -100 39l-68 280h-535l-127 -280q-19 -39 -94 -39h-55q-107 0 -107 39zM418 545h379l-107 454q-14 57 -14 127h-8q-19 -69 -43 -127zM438 1559q0 13 15 34 l147 199q19 24 47 32.5t72 8.5h33q87 0 110 -41l105 -199q8 -13 8 -28q-4 -29 -45 -29h-31q-76 0 -106 41l-74 109l-92 -107q-36 -43 -115 -43h-33q-41 0 -41 23z" />
<glyph unicode="&#xc3;" horiz-adv-x="1255" d="M-66 35q0 11 13 37l606 1327q16 39 106 39h91q92 0 100 -39l332 -1329q4 -12 4 -29q0 -45 -103 -45h-63q-89 0 -100 39l-68 280h-535l-127 -280q-19 -39 -94 -39h-55q-107 0 -107 39zM354 1638q26 66 80 105t131 39q46 0 161 -35t151 -37q42 0 75 43q20 26 38.5 31.5 t37.5 -2.5l21 -6q53 -16 30 -72q-26 -66 -79.5 -104.5t-129.5 -38.5q-47 0 -163 34t-152 35q-43 0 -74 -43q-21 -25 -37.5 -30t-37.5 2l-21 8q-54 16 -31 71zM418 545h379l-107 454q-14 57 -14 127h-8q-19 -69 -43 -127z" />
<glyph unicode="&#xc4;" horiz-adv-x="1255" d="M-66 35q0 11 13 37l606 1327q16 39 106 39h91q92 0 100 -39l332 -1329q4 -12 4 -29q0 -45 -103 -45h-63q-89 0 -100 39l-68 280h-535l-127 -280q-19 -39 -94 -39h-55q-107 0 -107 39zM418 545h379l-107 454q-14 57 -14 127h-8q-19 -69 -43 -127zM442 1626l13 117 q6 57 116 57q56 0 79.5 -14t23.5 -43l-12 -117q-9 -57 -117 -57q-57 0 -80 13.5t-23 43.5zM784 1626l13 117q6 57 116 57q56 0 79.5 -14t23.5 -43l-12 -117q-9 -57 -117 -57q-57 0 -80 13.5t-23 43.5z" />
<glyph unicode="&#xc5;" horiz-adv-x="1255" d="M-66 35q0 11 13 37l606 1327q16 39 106 39h91q92 0 100 -39l332 -1329q4 -12 4 -29q0 -45 -103 -45h-63q-89 0 -100 39l-68 280h-535l-127 -280q-19 -39 -94 -39h-55q-107 0 -107 39zM418 545h379l-107 454q-14 57 -14 127h-8q-19 -69 -43 -127zM528 1671q0 90 60 151.5 t153 61.5q76 0 125 -49t49 -123q0 -90 -59 -151.5t-154 -61.5q-76 0 -125 49t-49 123zM637 1681q0 -33 21.5 -54t54.5 -21q38 0 65 27t27 65q0 33 -21.5 55.5t-54.5 22.5q-36 0 -64 -28.5t-28 -66.5z" />
<glyph unicode="&#xc6;" horiz-adv-x="1873" d="M-82 35q0 15 16 37l793 1306q36 56 94 56h942q24 0 34.5 -16t10.5 -52q0 -75 -14 -117.5t-53 -42.5h-690l36 -358h555q48 0 48 -70q0 -157 -68 -157h-512l39 -394h489q48 0 48 -67q0 -160 -70 -160h-651q-34 0 -49.5 14.5t-18.5 46.5l-23 254h-536l-168 -280 q-23 -39 -92 -39h-53q-107 0 -107 39zM475 545h379l-41 459l10 151h-6l-67 -151z" />
<glyph unicode="&#xc7;" horiz-adv-x="1267" d="M84 563q0 147 23.5 273t79 240.5t141.5 195.5t218.5 128.5t301.5 47.5q145 0 272 -40t127 -93q0 -36 -48.5 -103t-78.5 -67q-7 0 -31.5 12t-56.5 26t-91 26t-126 12q-228 0 -342.5 -161.5t-114.5 -457.5q0 -196 86.5 -292.5t262.5 -96.5q78 0 154.5 16.5t122 36.5 t81 36.5t41.5 16.5q7 0 10.5 -1t7.5 -7t4 -18q0 -68 -18 -166q-11 -49 -92 -82.5t-165.5 -45.5t-162.5 -13l-26 -68q56 -6 102.5 -41t46.5 -102q0 -108 -72 -157.5t-188 -49.5q-28 0 -57 3.5t-66 12.5t-60.5 30t-23.5 52q0 86 27 86q5 0 29.5 -13t64 -26.5t80.5 -13.5 q76 0 78 51q-1 20 -17.5 34t-36.5 20.5t-36.5 19t-16.5 29.5q0 15 53 137q-248 25 -367.5 165t-119.5 408z" />
<glyph unicode="&#xc8;" horiz-adv-x="1118" d="M86 59q0 33 135 1301q3 38 22.5 56t59.5 18h739q48 0 48 -68q0 -160 -70 -160h-547l-39 -358h488q47 0 47 -70q0 -157 -68 -157h-489l-43 -394h549q47 0 47 -67q0 -160 -68 -160h-743q-37 0 -52.5 13.5t-15.5 45.5zM408 1835q0 17 27.5 23t88.5 6q124 0 154 -54 q101 -201 108 -223q2 -7 2 -12q0 -15 -13.5 -21t-45.5 -6q-95 0 -131 45q-42 50 -101 120q-61 72 -75 91t-14 31z" />
<glyph unicode="&#xc9;" horiz-adv-x="1118" d="M86 59q0 33 135 1301q3 38 22.5 56t59.5 18h739q48 0 48 -68q0 -160 -70 -160h-547l-39 -358h488q47 0 47 -70q0 -157 -68 -157h-489l-43 -394h549q47 0 47 -67q0 -160 -68 -160h-743q-37 0 -52.5 13.5t-15.5 45.5zM565 1571q0 4 2 9.5t7.5 15.5t12.5 21t20.5 31l27 40 t37 54.5t45.5 67.5q38 54 164 54q110 0 110 -25q0 -15 -15.5 -33t-82.5 -83q-76 -73 -133 -130q-45 -45 -142 -45q-53 0 -53 23z" />
<glyph unicode="&#xca;" horiz-adv-x="1118" d="M86 59q0 33 135 1301q3 38 22.5 56t59.5 18h739q48 0 48 -68q0 -160 -70 -160h-547l-39 -358h488q47 0 47 -70q0 -157 -68 -157h-489l-43 -394h549q47 0 47 -67q0 -160 -68 -160h-743q-37 0 -52.5 13.5t-15.5 45.5zM401 1559q0 13 15 34l147 199q19 24 47 32.5t72 8.5h33 q87 0 110 -41l105 -199q8 -13 8 -28q-4 -29 -45 -29h-31q-76 0 -106 41l-74 109l-92 -107q-36 -43 -115 -43h-33q-41 0 -41 23z" />
<glyph unicode="&#xcb;" horiz-adv-x="1118" d="M86 59q0 33 135 1301q3 38 22.5 56t59.5 18h739q48 0 48 -68q0 -160 -70 -160h-547l-39 -358h488q47 0 47 -70q0 -157 -68 -157h-489l-43 -394h549q47 0 47 -67q0 -160 -68 -160h-743q-37 0 -52.5 13.5t-15.5 45.5zM406 1626l12 117q6 57 117 57q56 0 79 -14t23 -43 l-12 -117q-9 -57 -117 -57q-57 0 -79.5 13.5t-22.5 43.5zM748 1626l12 117q6 57 117 57q56 0 79 -14t23 -43l-12 -117q-9 -57 -117 -57q-57 0 -79.5 13.5t-22.5 43.5z" />
<glyph unicode="&#xcc;" horiz-adv-x="577" d="M86 53l139 1327q3 58 113 58h51q103 0 103 -58l-138 -1327q-6 -57 -114 -57h-52q-102 0 -102 57zM111 1835q0 17 27.5 23t88.5 6q124 0 154 -54q14 -28 38 -75q73 -143 73 -160q0 -15 -13.5 -21t-46.5 -6q-95 0 -131 45q-42 50 -101 120q-61 72 -75 91t-14 31z" />
<glyph unicode="&#xcd;" horiz-adv-x="577" d="M86 53l139 1327q3 58 113 58h51q103 0 103 -58l-138 -1327q-6 -57 -114 -57h-52q-102 0 -102 57zM266 1571q0 4 2 9.5t7.5 15.5t12.5 21t20.5 31l27 40t37 54.5t45.5 67.5q38 54 164 54q110 0 110 -25q0 -15 -15.5 -33t-82.5 -83q-76 -73 -133 -130q-45 -45 -142 -45 q-53 0 -53 23z" />
<glyph unicode="&#xce;" horiz-adv-x="577" d="M86 53l139 1327q3 58 113 58h51q103 0 103 -58l-138 -1327q-6 -57 -114 -57h-52q-102 0 -102 57zM102 1559q0 13 15 34l147 199q19 24 47 32.5t72 8.5h33q87 0 110 -41l105 -199q8 -13 8 -28q-4 -29 -45 -29h-31q-76 0 -106 41l-74 109l-92 -107q-36 -43 -115 -43h-33 q-41 0 -41 23z" />
<glyph unicode="&#xcf;" horiz-adv-x="577" d="M86 53l139 1327q3 58 113 58h51q103 0 103 -58l-138 -1327q-6 -57 -114 -57h-52q-102 0 -102 57zM109 1626l12 117q6 57 117 57q56 0 79 -14t23 -43l-12 -117q-9 -57 -117 -57q-57 0 -79.5 13.5t-22.5 43.5zM451 1626l12 117q6 57 117 57q56 0 79 -14t23 -43l-12 -117 q-9 -57 -117 -57q-57 0 -79.5 13.5t-22.5 43.5z" />
<glyph unicode="&#xd0;" horiz-adv-x="1425" d="M10 684q0 160 68 160h94q10 101 28.5 277t24.5 239q3 38 22.5 56t59.5 18h451q277 0 429 -148t152 -442q0 -211 -55 -374t-153.5 -264.5t-230.5 -153.5t-292 -52h-450q-37 0 -52.5 13.5t-15.5 47.5q0 13 57 555h-90q-47 0 -47 68zM373 227h254q194 0 316 150t122 438 q0 197 -87 294t-247 97h-254l-39 -362h156q47 0 47 -70q0 -158 -68 -158h-159z" />
<glyph unicode="&#xd1;" horiz-adv-x="1472" d="M84 53l139 1327q3 58 113 58h72q45 0 70.5 -10t41.5 -39l471 -848l39 -80l96 919q6 58 115 58h43q102 0 102 -58l-139 -1327q-6 -57 -112 -57h-66q-84 0 -108 45l-488 877l-33 67l-98 -932q-6 -57 -113 -57h-43q-56 0 -79 14t-23 43zM457 1638q26 66 80 105t131 39 q46 0 160.5 -35t150.5 -37q43 0 76 43q20 26 38 31.5t37 -2.5l21 -6q54 -16 31 -72q-26 -66 -79.5 -104.5t-129.5 -38.5q-47 0 -163.5 34t-152.5 35q-42 0 -73 -43q-20 -25 -38 -30.5t-38 2.5l-21 8q-53 16 -30 71z" />
<glyph unicode="&#xd2;" horiz-adv-x="1497" d="M92 580q0 135 23.5 257.5t79 235.5t138 195t208 131t282.5 49q283 0 431.5 -152.5t148.5 -443.5q0 -417 -191.5 -641.5t-541.5 -224.5q-282 0 -430 152t-148 442zM369 604q0 -192 83 -291.5t244 -99.5q199 0 315.5 160t116.5 454q0 194 -83 294t-244 100 q-201 0 -316.5 -160.5t-115.5 -456.5zM555 1835q0 17 27.5 23t89.5 6q123 0 153 -54q14 -28 38 -75q73 -143 73 -160q0 -15 -13.5 -21t-45.5 -6q-96 0 -132 45q-42 50 -101 120q-61 72 -75 91t-14 31z" />
<glyph unicode="&#xd3;" horiz-adv-x="1497" d="M92 580q0 135 23.5 257.5t79 235.5t138 195t208 131t282.5 49q283 0 431.5 -152.5t148.5 -443.5q0 -417 -191.5 -641.5t-541.5 -224.5q-282 0 -430 152t-148 442zM369 604q0 -192 83 -291.5t244 -99.5q199 0 315.5 160t116.5 454q0 194 -83 294t-244 100 q-201 0 -316.5 -160.5t-115.5 -456.5zM713 1571q0 3 1 7t4.5 10.5t7 13.5t11 18.5l15 23t20.5 30t25 36.5t30.5 46t36.5 54q38 54 164 54q111 0 111 -25q0 -19 -93 -109q-78 -76 -139 -137q-45 -45 -141 -45q-53 0 -53 23z" />
<glyph unicode="&#xd4;" horiz-adv-x="1497" d="M92 580q0 135 23.5 257.5t79 235.5t138 195t208 131t282.5 49q283 0 431.5 -152.5t148.5 -443.5q0 -417 -191.5 -641.5t-541.5 -224.5q-282 0 -430 152t-148 442zM369 604q0 -192 83 -291.5t244 -99.5q199 0 315.5 160t116.5 454q0 194 -83 294t-244 100 q-201 0 -316.5 -160.5t-115.5 -456.5zM549 1559q0 14 14 34l148 199q19 24 46.5 32.5t71.5 8.5h33q88 0 111 -41l104 -199q8 -13 8 -28q-4 -29 -45 -29h-30q-77 0 -107 41l-74 109l-92 -107q-36 -43 -114 -43h-33q-41 0 -41 23z" />
<glyph unicode="&#xd5;" horiz-adv-x="1497" d="M92 580q0 135 23.5 257.5t79 235.5t138 195t208 131t282.5 49q283 0 431.5 -152.5t148.5 -443.5q0 -417 -191.5 -641.5t-541.5 -224.5q-282 0 -430 152t-148 442zM369 604q0 -192 83 -291.5t244 -99.5q199 0 315.5 160t116.5 454q0 194 -83 294t-244 100 q-201 0 -316.5 -160.5t-115.5 -456.5zM465 1638q26 66 80 105t131 39q46 0 160.5 -35t150.5 -37q43 0 76 43q20 26 38.5 31.5t37.5 -2.5l20 -6q54 -16 31 -72q-26 -66 -79.5 -104.5t-129.5 -38.5q-47 0 -163 34t-152 35q-43 0 -74 -43q-20 -25 -38 -30.5t-38 2.5l-20 8 q-54 16 -31 71z" />
<glyph unicode="&#xd6;" horiz-adv-x="1497" d="M92 580q0 135 23.5 257.5t79 235.5t138 195t208 131t282.5 49q283 0 431.5 -152.5t148.5 -443.5q0 -417 -191.5 -641.5t-541.5 -224.5q-282 0 -430 152t-148 442zM369 604q0 -192 83 -291.5t244 -99.5q199 0 315.5 160t116.5 454q0 194 -83 294t-244 100 q-201 0 -316.5 -160.5t-115.5 -456.5zM553 1626l12 117q6 57 117 57q56 0 79 -14t23 -43l-12 -117q-9 -57 -117 -57q-57 0 -79.5 13.5t-22.5 43.5zM895 1626l12 117q6 57 117 57q56 0 79 -14t23 -43l-12 -117q-9 -57 -117 -57q-57 0 -79.5 13.5t-22.5 43.5z" />
<glyph unicode="&#xd7;" horiz-adv-x="1146" d="M55 129q0 20 23 37l350 319l-285 320q-14 17 -14 31q0 23 43 63l23 23q40 34 63 34q18 0 33 -18l284 -320l355 320q18 18 35 18q27 0 57 -34l18 -23q29 -37 29 -57t-20 -37l-353 -320l285 -319q14 -18 14 -31q0 -25 -41 -63l-24 -21q-37 -37 -64 -37q-16 0 -32 19 l-285 319l-354 -319q-19 -19 -35 -19q-26 0 -56 37l-18 21q-31 36 -31 57z" />
<glyph unicode="&#xd8;" horiz-adv-x="1497" d="M25 59q0 19 18 37l127 135q-76 137 -76 349q0 135 23.5 257.5t79 235.5t138 195t208 131t282.5 49q237 0 373 -109l98 107q17 20 39 20q19 0 37 -18l21 -18q20 -17 20 -37q0 -19 -18 -37l-101 -107q109 -148 109 -397q0 -418 -190.5 -642t-540.5 -224q-274 0 -418 141 l-113 -121q-17 -20 -39 -20q-18 0 -34 16l-23 21q-20 17 -20 36zM369 604q0 -82 14 -139l635 678q-78 78 -217 78q-201 0 -316.5 -160.5t-115.5 -456.5zM438 330q82 -117 258 -117q199 0 315.5 160t116.5 454q0 126 -32 205z" />
<glyph unicode="&#xd9;" horiz-adv-x="1458" d="M115 406q0 23 98 974q6 58 115 58h51q55 0 77.5 -15t22.5 -43q-94 -907 -94 -927q0 -107 77 -173.5t210 -66.5q138 0 236 76t110 194l92 897q6 58 117 58h49q55 0 77.5 -15t22.5 -43l-94 -909q-25 -230 -191.5 -357.5t-441.5 -127.5q-257 0 -395.5 109.5t-138.5 310.5z M543 1835q0 17 27.5 23t88.5 6q124 0 154 -54q14 -28 38 -75q73 -143 73 -160q0 -15 -13.5 -21t-46.5 -6q-95 0 -131 45q-42 50 -101 120q-61 72 -75 91t-14 31z" />
<glyph unicode="&#xda;" horiz-adv-x="1458" d="M115 406q0 23 98 974q6 58 115 58h51q55 0 77.5 -15t22.5 -43q-94 -907 -94 -927q0 -107 77 -173.5t210 -66.5q138 0 236 76t110 194l92 897q6 58 117 58h49q55 0 77.5 -15t22.5 -43l-94 -909q-25 -230 -191.5 -357.5t-441.5 -127.5q-257 0 -395.5 109.5t-138.5 310.5z M700 1571q0 4 2 9.5t7.5 15.5t12.5 21t20.5 31l27 40t37 54.5t45.5 67.5q38 54 164 54q110 0 110 -25q0 -15 -15.5 -33t-82.5 -83q-76 -73 -133 -130q-45 -45 -141 -45q-54 0 -54 23z" />
<glyph unicode="&#xdb;" horiz-adv-x="1458" d="M115 406q0 23 98 974q6 58 115 58h51q55 0 77.5 -15t22.5 -43q-94 -907 -94 -927q0 -107 77 -173.5t210 -66.5q138 0 236 76t110 194l92 897q6 58 117 58h49q55 0 77.5 -15t22.5 -43l-94 -909q-25 -230 -191.5 -357.5t-441.5 -127.5q-257 0 -395.5 109.5t-138.5 310.5z M537 1559q0 14 14 34l147 199q19 24 47 32.5t72 8.5h33q88 0 111 -41l104 -199q8 -13 8 -28q-4 -29 -45 -29h-31q-76 0 -106 41l-74 109l-92 -107q-36 -43 -115 -43h-32q-41 0 -41 23z" />
<glyph unicode="&#xdc;" horiz-adv-x="1458" d="M115 406q0 23 98 974q6 58 115 58h51q55 0 77.5 -15t22.5 -43q-94 -907 -94 -927q0 -107 77 -173.5t210 -66.5q138 0 236 76t110 194l92 897q6 58 117 58h49q55 0 77.5 -15t22.5 -43l-94 -909q-25 -230 -191.5 -357.5t-441.5 -127.5q-257 0 -395.5 109.5t-138.5 310.5z M541 1626l12 117q6 57 117 57q56 0 79 -14t23 -43l-12 -117q-9 -57 -117 -57q-57 0 -79.5 13.5t-22.5 43.5zM883 1626l12 117q6 57 117 57q56 0 79 -14t23 -43l-12 -117q-9 -57 -117 -57q-57 0 -79.5 13.5t-22.5 43.5z" />
<glyph unicode="&#xdd;" horiz-adv-x="1144" d="M82 1393q0 27 29.5 36t89.5 9h63q89 0 107 -37l233 -461l334 463q23 35 115 35h53q106 0 106 -39q0 -15 -20 -45l-485 -656l-68 -645q-6 -57 -113 -57h-51q-56 0 -79 14t-23 43l67 652l-346 649q-12 21 -12 39zM543 1571q0 3 1 7t4.5 10.5t7 13.5t11 18.5l15 23t20.5 30 t25 36.5t30.5 46t36.5 54q38 54 164 54q111 0 111 -25q0 -19 -93 -109q-78 -76 -139 -137q-45 -45 -141 -45q-53 0 -53 23z" />
<glyph unicode="&#xde;" horiz-adv-x="1161" d="M82 53l139 1327q6 58 113 58h51q56 0 79 -14.5t23 -43.5l-18 -176h242q58 0 110.5 -7t114.5 -31t106.5 -62t74.5 -106.5t30 -159.5q0 -92 -22 -169t-57 -127.5t-82.5 -90t-94.5 -61t-98 -35t-87 -17.5t-67 -4h-262l-29 -281q-6 -57 -112 -57h-52q-56 0 -79 14t-23 43z M401 561h242q35 0 70 10t72.5 34.5t61 76t23.5 123.5q0 40 -12 71t-31 49.5t-45.5 30.5t-52 16.5t-53.5 4.5h-232z" />
<glyph unicode="&#xdf;" horiz-adv-x="1134" d="M70 53l102 973q20 190 157 306t335 116q179 0 289 -80.5t110 -232.5q0 -111 -62 -205.5t-170 -136.5v-9q216 -72 216 -301q0 -214 -144 -348.5t-368 -134.5h-56q-26 0 -36.5 16.5t-10.5 51.5q0 139 68 139h47q102 0 169.5 69.5t67.5 184.5q0 91 -54 144t-152 54h-31 q-47 0 -47 66q0 139 69 139h11q88 0 152.5 63.5t64.5 153.5q0 68 -43 110t-117 42q-85 0 -141.5 -52.5t-65.5 -138.5l-104 -989q-6 -57 -115 -57h-39q-56 0 -79 14t-23 43z" />
<glyph unicode="&#xe0;" horiz-adv-x="1116" d="M61 428q0 292 130.5 474.5t340.5 182.5q139 0 254 -110q9 31 15 45.5t18.5 29t32 19t51.5 4.5h21q94 0 94 -47q0 -2 -19.5 -184t-39 -371t-19.5 -207q0 -43 16.5 -58.5t49.5 -15.5q16 0 35.5 6.5t21.5 6.5q16 0 16 -21q0 -31 -12 -104q-8 -46 -57 -69t-103 -23 q-193 0 -219 172q-52 -83 -127.5 -128.5t-163.5 -45.5q-68 0 -127 26t-106.5 78t-75 139.5t-27.5 200.5zM322 444q0 -247 161 -247q60 0 117 50t96 150q5 47 12 120.5t12 127.5t7 66q3 20 21 102q-79 66 -164 66q-134 0 -198 -116.5t-64 -318.5zM336 1473q0 16 27.5 22 t89.5 6q123 0 153 -53q12 -23 32 -62q76 -155 79 -174q0 -15 -13.5 -20.5t-46.5 -5.5q-95 0 -131 45q-42 50 -101 120q-61 72 -75 91t-14 31z" />
<glyph unicode="&#xe1;" horiz-adv-x="1116" d="M61 428q0 292 130.5 474.5t340.5 182.5q139 0 254 -110q9 31 15 45.5t18.5 29t32 19t51.5 4.5h21q94 0 94 -47q0 -2 -19.5 -184t-39 -371t-19.5 -207q0 -43 16.5 -58.5t49.5 -15.5q16 0 35.5 6.5t21.5 6.5q16 0 16 -21q0 -31 -12 -104q-8 -46 -57 -69t-103 -23 q-193 0 -219 172q-52 -83 -127.5 -128.5t-163.5 -45.5q-68 0 -127 26t-106.5 78t-75 139.5t-27.5 200.5zM322 444q0 -247 161 -247q60 0 117 50t96 150q5 47 12 120.5t12 127.5t7 66q3 20 21 102q-79 66 -164 66q-134 0 -198 -116.5t-64 -318.5zM492 1208q0 3 1 7t4.5 11 t7 13.5t11.5 18.5t15 23t20 30t25 37t31 46t36 54q37 53 164 53q111 0 111 -24q0 -19 -93 -109q-78 -76 -139 -137q-45 -45 -141 -45q-53 0 -53 22z" />
<glyph unicode="&#xe2;" horiz-adv-x="1116" d="M61 428q0 292 130.5 474.5t340.5 182.5q139 0 254 -110q9 31 15 45.5t18.5 29t32 19t51.5 4.5h21q94 0 94 -47q0 -2 -19.5 -184t-39 -371t-19.5 -207q0 -43 16.5 -58.5t49.5 -15.5q16 0 35.5 6.5t21.5 6.5q16 0 16 -21q0 -31 -12 -104q-8 -46 -57 -69t-103 -23 q-193 0 -219 172q-52 -83 -127.5 -128.5t-163.5 -45.5q-68 0 -127 26t-106.5 78t-75 139.5t-27.5 200.5zM322 444q0 -247 161 -247q60 0 117 50t96 150q5 47 12 120.5t12 127.5t7 66q3 20 21 102q-79 66 -164 66q-134 0 -198 -116.5t-64 -318.5zM328 1196q0 15 14 35 l147 199q19 24 46.5 32t72.5 8h33q44 0 70.5 -8t40.5 -32l104 -199q8 -13 8 -29q-4 -28 -45 -28h-31q-76 0 -106 40l-74 109l-92 -106q-36 -43 -115 -43h-32q-41 0 -41 22z" />
<glyph unicode="&#xe3;" horiz-adv-x="1116" d="M61 428q0 292 130.5 474.5t340.5 182.5q139 0 254 -110q9 31 15 45.5t18.5 29t32 19t51.5 4.5h21q94 0 94 -47q0 -2 -19.5 -184t-39 -371t-19.5 -207q0 -43 16.5 -58.5t49.5 -15.5q16 0 35.5 6.5t21.5 6.5q16 0 16 -21q0 -31 -12 -104q-8 -46 -57 -69t-103 -23 q-193 0 -219 172q-52 -83 -127.5 -128.5t-163.5 -45.5q-68 0 -127 26t-106.5 78t-75 139.5t-27.5 200.5zM293 1276q26 66 80 104.5t131 38.5q46 0 160.5 -34.5t150.5 -36.5q43 0 76 43q20 26 38.5 31t37.5 -3l20 -6q54 -16 31 -72q-26 -66 -79.5 -104.5t-129.5 -38.5 q-47 0 -163 34.5t-152 35.5q-43 0 -74 -43q-21 -25 -38 -30.5t-38 1.5l-20 8q-54 16 -31 72zM322 444q0 -247 161 -247q60 0 117 50t96 150q5 47 12 120.5t12 127.5t7 66q3 20 21 102q-79 66 -164 66q-134 0 -198 -116.5t-64 -318.5z" />
<glyph unicode="&#xe4;" horiz-adv-x="1116" d="M61 428q0 292 130.5 474.5t340.5 182.5q139 0 254 -110q9 31 15 45.5t18.5 29t32 19t51.5 4.5h21q94 0 94 -47q0 -2 -19.5 -184t-39 -371t-19.5 -207q0 -43 16.5 -58.5t49.5 -15.5q16 0 35.5 6.5t21.5 6.5q16 0 16 -21q0 -31 -12 -104q-8 -46 -57 -69t-103 -23 q-193 0 -219 172q-52 -83 -127.5 -128.5t-163.5 -45.5q-68 0 -127 26t-106.5 78t-75 139.5t-27.5 200.5zM322 444q0 -247 161 -247q60 0 117 50t96 150q5 47 12 120.5t12 127.5t7 66q3 20 21 102q-79 66 -164 66q-134 0 -198 -116.5t-64 -318.5zM334 1264l12 116 q6 58 117 58q56 0 79 -14.5t23 -43.5l-12 -116q-9 -58 -117 -58q-57 0 -79.5 14t-22.5 44zM676 1264l12 116q6 58 117 58q56 0 79 -14.5t23 -43.5l-12 -116q-9 -58 -117 -58q-57 0 -79.5 14t-22.5 44z" />
<glyph unicode="&#xe5;" horiz-adv-x="1116" d="M61 428q0 292 130.5 474.5t340.5 182.5q139 0 254 -110q9 31 15 45.5t18.5 29t32 19t51.5 4.5h21q94 0 94 -47q0 -2 -19.5 -184t-39 -371t-19.5 -207q0 -43 16.5 -58.5t49.5 -15.5q16 0 35.5 6.5t21.5 6.5q16 0 16 -21q0 -31 -12 -104q-8 -46 -57 -69t-103 -23 q-193 0 -219 172q-52 -83 -127.5 -128.5t-163.5 -45.5q-68 0 -127 26t-106.5 78t-75 139.5t-27.5 200.5zM322 444q0 -247 161 -247q60 0 117 50t96 150q5 47 12 120.5t12 127.5t7 66q3 20 21 102q-79 66 -164 66q-134 0 -198 -116.5t-64 -318.5zM420 1309q0 90 60 151.5 t153 61.5q76 0 125 -49t49 -123q0 -90 -59 -151.5t-154 -61.5q-76 0 -125 49t-49 123zM528 1319q0 -33 21.5 -54.5t54.5 -21.5q38 0 65 27t27 65q0 33 -21 55.5t-54 22.5q-36 0 -64.5 -28t-28.5 -66z" />
<glyph unicode="&#xe6;" horiz-adv-x="1697" d="M53 250q0 375 627 383q17 99 63 182q-46 66 -186 66q-65 0 -132 -18.5t-110 -37t-49 -18.5q-26 0 -53 51t-27 84t57 66t152 55t195 22q214 0 317 -86q133 86 316 86q88 0 157 -19.5t109.5 -49.5t67 -69.5t36 -75.5t9.5 -72q0 -98 -42.5 -171.5t-113.5 -114.5t-153 -61 t-173 -20q-105 0 -200 10q1 -141 64 -196.5t181 -55.5q76 0 149 24t118 47.5t51 23.5q5 0 8 -1t5.5 -7t2.5 -19q-1 -2 -2.5 -28.5t-4.5 -58t-7 -46.5q-10 -38 -50.5 -67t-96 -43.5t-106.5 -21.5t-95 -7q-260 0 -379 133q-66 -53 -170.5 -93t-216.5 -40q-151 0 -234.5 69 t-83.5 195zM315 291q0 -47 29.5 -72.5t87.5 -25.5q64 0 131.5 25t112.5 67q-17 73 -17 141v35q-69 -1 -127 -9.5t-109 -27t-79.5 -52.5t-28.5 -81zM936 616h115q75 0 141 16t112 52t46 84q0 54 -39.5 83.5t-106.5 29.5q-211 0 -268 -265z" />
<glyph unicode="&#xe7;" horiz-adv-x="993" d="M78 418q0 110 18 205.5t59.5 181.5t105 147.5t160 97t218.5 35.5q52 0 104 -7.5t99.5 -22t77 -40.5t30.5 -59q0 -28 -37 -81.5t-65 -53.5q-3 0 -37 19q-79 41 -172 41q-143 0 -220 -108.5t-77 -330.5q0 -130 53.5 -191t169.5 -61t244 60q32 16 45 16q5 0 7 -0.5t3.5 -6.5 t1.5 -19q0 -81 -14 -136q-17 -56 -102.5 -84t-180.5 -32l-26 -70q56 -6 102.5 -41t46.5 -102q0 -108 -72 -157.5t-188 -49.5q-28 0 -57 3.5t-66 12.5t-60.5 30t-23.5 52q0 86 27 86q5 0 29.5 -13t64 -26.5t80.5 -13.5q76 0 78 51q-1 20 -17.5 34t-36.5 20.5t-36.5 19 t-16.5 29.5q0 12 54 137q-188 17 -280.5 122.5t-92.5 305.5z" />
<glyph unicode="&#xe8;" horiz-adv-x="1103" d="M78 426q0 319 151.5 489t411.5 170q88 0 157 -20t109.5 -50.5t67 -70.5t36 -75t9.5 -70q0 -81 -28.5 -146t-75 -107t-109.5 -70t-129.5 -40t-138.5 -12q-108 0 -201 14q3 -139 66.5 -193.5t179.5 -54.5q76 0 149 24t117.5 47.5t50.5 23.5q5 0 8 -1t6 -7t3 -19 q0 -1 -5 -56.5t-10 -76.5q-10 -38 -51 -67t-96.5 -43.5t-107 -21.5t-95.5 -7q-223 0 -349 108t-126 332zM350 606h115q77 0 143 16t112 53.5t46 92.5q0 52 -39.5 82.5t-105.5 30.5q-218 0 -271 -275zM367 1473q0 16 27 22t89 6q124 0 154 -53q12 -23 32 -62q76 -155 79 -174 q0 -15 -13.5 -20.5t-46.5 -5.5q-95 0 -131 45q-42 50 -101 120q-61 72 -75 91t-14 31z" />
<glyph unicode="&#xe9;" horiz-adv-x="1103" d="M78 426q0 319 151.5 489t411.5 170q88 0 157 -20t109.5 -50.5t67 -70.5t36 -75t9.5 -70q0 -81 -28.5 -146t-75 -107t-109.5 -70t-129.5 -40t-138.5 -12q-108 0 -201 14q3 -139 66.5 -193.5t179.5 -54.5q76 0 149 24t117.5 47.5t50.5 23.5q5 0 8 -1t6 -7t3 -19 q0 -1 -5 -56.5t-10 -76.5q-10 -38 -51 -67t-96.5 -43.5t-107 -21.5t-95.5 -7q-223 0 -349 108t-126 332zM350 606h115q77 0 143 16t112 53.5t46 92.5q0 52 -39.5 82.5t-105.5 30.5q-218 0 -271 -275zM524 1208q0 4 2 9.5t7.5 16t12.5 21t20.5 31t27 40t37 54.5t45.5 68 q37 53 164 53q110 0 110 -24q0 -15 -15.5 -33t-82.5 -83q-76 -73 -133 -130q-45 -45 -141 -45q-54 0 -54 22z" />
<glyph unicode="&#xea;" horiz-adv-x="1103" d="M78 426q0 319 151.5 489t411.5 170q88 0 157 -20t109.5 -50.5t67 -70.5t36 -75t9.5 -70q0 -81 -28.5 -146t-75 -107t-109.5 -70t-129.5 -40t-138.5 -12q-108 0 -201 14q3 -139 66.5 -193.5t179.5 -54.5q76 0 149 24t117.5 47.5t50.5 23.5q5 0 8 -1t6 -7t3 -19 q0 -1 -5 -56.5t-10 -76.5q-10 -38 -51 -67t-96.5 -43.5t-107 -21.5t-95.5 -7q-223 0 -349 108t-126 332zM350 606h115q77 0 143 16t112 53.5t46 92.5q0 52 -39.5 82.5t-105.5 30.5q-218 0 -271 -275zM360 1196q0 14 15 35l147 199q19 24 46.5 32t72.5 8h33q44 0 70 -8 t40 -32l105 -199q8 -13 8 -29q-3 -28 -45 -28h-31q-76 0 -106 40l-74 109l-92 -106q-36 -43 -115 -43h-33q-41 0 -41 22z" />
<glyph unicode="&#xeb;" horiz-adv-x="1103" d="M78 426q0 319 151.5 489t411.5 170q88 0 157 -20t109.5 -50.5t67 -70.5t36 -75t9.5 -70q0 -81 -28.5 -146t-75 -107t-109.5 -70t-129.5 -40t-138.5 -12q-108 0 -201 14q3 -139 66.5 -193.5t179.5 -54.5q76 0 149 24t117.5 47.5t50.5 23.5q5 0 8 -1t6 -7t3 -19 q0 -1 -5 -56.5t-10 -76.5q-10 -38 -51 -67t-96.5 -43.5t-107 -21.5t-95.5 -7q-223 0 -349 108t-126 332zM350 606h115q77 0 143 16t112 53.5t46 92.5q0 52 -39.5 82.5t-105.5 30.5q-218 0 -271 -275zM365 1264l12 116q6 58 117 58q56 0 79 -14.5t23 -43.5l-12 -116 q-9 -58 -117 -58q-57 0 -79.5 14t-22.5 44zM707 1264l12 116q6 58 117 58q56 0 79 -14.5t23 -43.5l-12 -116q-9 -58 -117 -58q-57 0 -79.5 14t-22.5 44z" />
<glyph unicode="&#xec;" horiz-adv-x="542" d="M37 1473q0 16 27.5 22t89.5 6q123 0 153 -53q12 -23 32 -62q76 -155 79 -174q0 -15 -13.5 -20.5t-46.5 -5.5q-95 0 -131 45q-42 50 -101 120q-61 72 -75 91t-14 31zM84 221q0 31 19.5 229.5t39.5 383t21 184.5q6 57 112 57h41q103 0 103 -57q-78 -717 -78 -754 q0 -42 16.5 -58t49.5 -16q16 0 35 6.5t22 6.5q14 0 14 -21q0 -31 -12 -104q-7 -46 -56.5 -69t-103.5 -23q-110 0 -166.5 56.5t-56.5 178.5z" />
<glyph unicode="&#xed;" horiz-adv-x="542" d="M84 221q0 31 19.5 229.5t39.5 383t21 184.5q6 57 112 57h41q103 0 103 -57q-78 -717 -78 -754q0 -42 16.5 -58t49.5 -16q16 0 35 6.5t22 6.5q14 0 14 -21q0 -31 -12 -104q-7 -46 -56.5 -69t-103.5 -23q-110 0 -166.5 56.5t-56.5 178.5zM193 1208q0 3 1 7t4.5 11t7 13.5 t11.5 18.5t15 23t20 30t25 37t31 46t36 54q37 53 164 53q110 0 110 -24q0 -15 -15.5 -33t-82.5 -83q-76 -73 -133 -130q-45 -45 -141 -45q-53 0 -53 22z" />
<glyph unicode="&#xee;" horiz-adv-x="542" d="M29 1196q0 15 14 35l147 199q19 24 46.5 32t72.5 8h33q44 0 70.5 -8t40.5 -32l104 -199q8 -13 8 -29q-3 -28 -45 -28h-31q-76 0 -106 40l-74 109l-92 -106q-36 -43 -115 -43h-32q-41 0 -41 22zM84 221q0 31 19.5 229.5t39.5 383t21 184.5q6 57 112 57h41q103 0 103 -57 q-78 -717 -78 -754q0 -42 16.5 -58t49.5 -16q16 0 35 6.5t22 6.5q14 0 14 -21q0 -31 -12 -104q-7 -46 -56.5 -69t-103.5 -23q-110 0 -166.5 56.5t-56.5 178.5z" />
<glyph unicode="&#xef;" horiz-adv-x="542" d="M35 1264l12 116q6 58 117 58q56 0 79 -14.5t23 -43.5l-12 -116q-9 -58 -117 -58q-57 0 -79.5 14t-22.5 44zM84 221q0 31 19.5 229.5t39.5 383t21 184.5q6 57 112 57h41q103 0 103 -57q-78 -717 -78 -754q0 -42 16.5 -58t49.5 -16q16 0 35 6.5t22 6.5q14 0 14 -21 q0 -31 -12 -104q-7 -46 -56.5 -69t-103.5 -23q-110 0 -166.5 56.5t-56.5 178.5zM377 1264l12 116q6 58 117 58q56 0 79 -14.5t23 -43.5l-12 -116q-9 -58 -117 -58q-57 0 -79.5 14t-22.5 44z" />
<glyph unicode="&#xf0;" horiz-adv-x="1165" d="M84 432q0 312 147.5 482.5t405.5 170.5q70 0 125 -14q-13 40 -62 150q-142 -21 -145 -21q-25 0 -43 22.5t-18 49.5q0 32 43 37l110 16q-7 12 -21.5 33.5t-21.5 34.5q-12 18 -12 32q0 22 29 25q44 9 108 12q27 0 49 -11.5t34 -24t30 -37.5l22 -35l150 18q23 0 40 -23.5 t17 -48.5q0 -30 -41 -36l-106 -15q66 -122 106.5 -277.5t40.5 -318.5q0 -321 -143.5 -494t-405.5 -173q-216 0 -327 113.5t-111 332.5zM342 442q0 -252 197 -252q128 0 198 111.5t70 325.5q0 128 -48 191t-147 63q-129 0 -199.5 -111t-70.5 -328z" />
<glyph unicode="&#xf1;" horiz-adv-x="1140" d="M55 51q12 119 27 262t23.5 224t16.5 163t11.5 128.5t3.5 70.5q0 27 -1 58t-1 40q0 31 58.5 47.5t134.5 16.5q61 0 61 -152q60 78 151.5 127t184.5 49q270 0 270 -262q0 -21 -27.5 -280.5t-27.5 -278.5q0 -42 17.5 -58t50.5 -16q16 0 35 6.5t22 6.5q14 0 14 -21 q0 -31 -12 -104q-7 -46 -56.5 -69t-103.5 -23q-110 0 -166.5 57t-56.5 180q0 30 24.5 271.5t24.5 255.5q0 61 -30.5 91.5t-96.5 30.5q-64 0 -127.5 -51.5t-103.5 -146.5l-64 -621q-6 -57 -114 -57h-39q-51 0 -77 15.5t-26 39.5zM248 1276q26 66 80 104.5t131 38.5 q46 0 160.5 -34.5t150.5 -36.5q43 0 76 43q20 26 38.5 31t37.5 -3l20 -6q54 -16 31 -72q-26 -66 -79.5 -104.5t-129.5 -38.5q-47 0 -163 34.5t-152 35.5q-43 0 -74 -43q-21 -25 -38 -30.5t-38 1.5l-20 8q-54 16 -31 72z" />
<glyph unicode="&#xf2;" horiz-adv-x="1165" d="M76 430q0 105 17.5 197.5t59 177.5t103.5 146.5t157.5 97.5t215.5 36q214 0 324 -114t110 -334q0 -312 -146.5 -481.5t-404.5 -169.5q-215 0 -325.5 113.5t-110.5 330.5zM336 442q0 -252 196 -252q128 0 198.5 113t70.5 324q0 128 -48 191t-147 63q-130 0 -200 -114.5 t-70 -324.5zM350 1473q0 16 27.5 22t89.5 6q124 0 154 -53q5 -11 15 -30q90 -178 94 -200q1 -3 1 -6q0 -15 -13 -20.5t-46 -5.5q-95 0 -131 45q-47 56 -109 129q-56 66 -69 83.5t-13 29.5z" />
<glyph unicode="&#xf3;" horiz-adv-x="1165" d="M76 430q0 105 17.5 197.5t59 177.5t103.5 146.5t157.5 97.5t215.5 36q214 0 324 -114t110 -334q0 -312 -146.5 -481.5t-404.5 -169.5q-215 0 -325.5 113.5t-110.5 330.5zM336 442q0 -252 196 -252q128 0 198.5 113t70.5 324q0 128 -48 191t-147 63q-130 0 -200 -114.5 t-70 -324.5zM508 1208q0 3 1 7t4.5 11t7 13.5t11.5 18.5t15 23t20 30t25 37t31 46t36 54q37 53 164 53q111 0 111 -24q0 -19 -93 -109q-78 -76 -139 -137q-45 -45 -141 -45q-53 0 -53 22z" />
<glyph unicode="&#xf4;" horiz-adv-x="1165" d="M76 430q0 105 17.5 197.5t59 177.5t103.5 146.5t157.5 97.5t215.5 36q214 0 324 -114t110 -334q0 -312 -146.5 -481.5t-404.5 -169.5q-215 0 -325.5 113.5t-110.5 330.5zM336 442q0 -252 196 -252q128 0 198.5 113t70.5 324q0 128 -48 191t-147 63q-130 0 -200 -114.5 t-70 -324.5zM344 1196q0 15 14 35l148 199q19 24 46.5 32t72.5 8h32q44 0 70.5 -8t40.5 -32l104 -199q9 -15 9 -29q-3 -28 -45 -28h-31q-77 0 -107 40l-73 109l-93 -106q-36 -43 -114 -43h-33q-41 0 -41 22z" />
<glyph unicode="&#xf5;" horiz-adv-x="1165" d="M76 430q0 105 17.5 197.5t59 177.5t103.5 146.5t157.5 97.5t215.5 36q214 0 324 -114t110 -334q0 -312 -146.5 -481.5t-404.5 -169.5q-215 0 -325.5 113.5t-110.5 330.5zM260 1276q26 66 80 104.5t131 38.5q46 0 160.5 -34.5t150.5 -36.5q43 0 76 43q20 26 38.5 31 t37.5 -3l20 -6q54 -16 31 -72q-26 -66 -79.5 -104.5t-129.5 -38.5q-47 0 -163 34.5t-152 35.5q-43 0 -74 -43q-21 -25 -38 -30.5t-38 1.5l-20 8q-54 16 -31 72zM336 442q0 -252 196 -252q128 0 198.5 113t70.5 324q0 128 -48 191t-147 63q-130 0 -200 -114.5t-70 -324.5z " />
<glyph unicode="&#xf6;" horiz-adv-x="1165" d="M76 430q0 105 17.5 197.5t59 177.5t103.5 146.5t157.5 97.5t215.5 36q214 0 324 -114t110 -334q0 -312 -146.5 -481.5t-404.5 -169.5q-215 0 -325.5 113.5t-110.5 330.5zM336 442q0 -252 196 -252q128 0 198.5 113t70.5 324q0 128 -48 191t-147 63q-130 0 -200 -114.5 t-70 -324.5zM348 1264l12 116q6 58 117 58q56 0 79.5 -14.5t23.5 -43.5l-13 -116q-9 -58 -116 -58q-57 0 -80 14t-23 44zM690 1264l12 116q6 58 117 58q56 0 79.5 -14.5t23.5 -43.5l-13 -116q-9 -58 -116 -58q-57 0 -80 14t-23 44z" />
<glyph unicode="&#xf7;" horiz-adv-x="1146" d="M74 438q0 48 16.5 85.5t56.5 37.5h875q55 0 55 -67q0 -46 -17.5 -84.5t-55.5 -38.5h-877q-29 0 -41 15.5t-12 51.5zM412 53l14 131q3 58 115 58h16q56 0 79 -14.5t23 -43.5l-14 -131q-6 -57 -113 -57h-18q-56 0 -79 14t-23 43zM485 748l15 129q3 59 112 59h17 q57 0 80.5 -14.5t23.5 -44.5l-14 -129q-6 -60 -115 -60h-18q-58 0 -79.5 14t-21.5 46z" />
<glyph unicode="&#xf8;" horiz-adv-x="1165" d="M78 59q0 19 16 35l60 66q-64 104 -64 270q0 105 17.5 197.5t59 177.5t103.5 146.5t157.5 97.5t215.5 36q169 0 272 -77l64 71q17 21 37 21q13 0 35 -19l22 -18q21 -25 21 -37q0 -15 -17 -35l-69 -76q67 -107 67 -278q0 -312 -145.5 -481.5t-403.5 -169.5q-180 0 -282 77 l-51 -57q-17 -20 -35 -20q-19 0 -37 18l-23 19q-20 17 -20 36zM348 442q0 -41 2 -59l402 444q-45 54 -134 54q-130 0 -200 -114.5t-70 -324.5zM403 244q48 -54 142 -54q128 0 198 113t70 324q0 47 -4 67z" />
<glyph unicode="&#xf9;" horiz-adv-x="1140" d="M80 248q0 24 19 216.5t38 373.5l19 180q6 57 114 57h39q103 0 103 -57q-72 -672 -72 -699q0 -120 127 -120q67 0 129.5 49.5t101.5 146.5l66 623q6 57 113 57h41q102 0 102 -57q-78 -717 -78 -754q0 -42 17 -58t49 -16q17 0 36.5 6.5t22.5 6.5q14 0 14 -21 q0 -31 -12 -104q-8 -46 -57 -69t-103 -23q-198 0 -221 180q-61 -81 -151.5 -130.5t-186.5 -49.5q-270 0 -270 262zM346 1473q0 16 27.5 22t89.5 6q123 0 153 -53q12 -23 32 -62q76 -155 79 -174q0 -15 -13 -20.5t-46 -5.5q-95 0 -131 45q-47 56 -109 129q-56 66 -69 83.5 t-13 29.5z" />
<glyph unicode="&#xfa;" horiz-adv-x="1140" d="M80 248q0 24 19 216.5t38 373.5l19 180q6 57 114 57h39q103 0 103 -57q-72 -672 -72 -699q0 -120 127 -120q67 0 129.5 49.5t101.5 146.5l66 623q6 57 113 57h41q102 0 102 -57q-78 -717 -78 -754q0 -42 17 -58t49 -16q17 0 36.5 6.5t22.5 6.5q14 0 14 -21 q0 -31 -12 -104q-8 -46 -57 -69t-103 -23q-198 0 -221 180q-61 -81 -151.5 -130.5t-186.5 -49.5q-270 0 -270 262zM502 1208q0 3 1 7t4.5 11t7 13.5t11.5 18.5t15 23t20 30t25 37t31 46t36 54q37 53 164 53q111 0 111 -24q0 -19 -93 -109q-78 -76 -139 -137 q-45 -45 -141 -45q-53 0 -53 22z" />
<glyph unicode="&#xfb;" horiz-adv-x="1140" d="M80 248q0 24 19 216.5t38 373.5l19 180q6 57 114 57h39q103 0 103 -57q-72 -672 -72 -699q0 -120 127 -120q67 0 129.5 49.5t101.5 146.5l66 623q6 57 113 57h41q102 0 102 -57q-78 -717 -78 -754q0 -42 17 -58t49 -16q17 0 36.5 6.5t22.5 6.5q14 0 14 -21 q0 -31 -12 -104q-8 -46 -57 -69t-103 -23q-198 0 -221 180q-61 -81 -151.5 -130.5t-186.5 -49.5q-270 0 -270 262zM340 1196q0 15 14 35l148 199q19 24 46.5 32t72.5 8h32q44 0 70.5 -8t40.5 -32l104 -199q9 -15 9 -29q-3 -28 -46 -28h-30q-77 0 -107 40l-73 109l-93 -106 q-36 -43 -114 -43h-33q-41 0 -41 22z" />
<glyph unicode="&#xfc;" horiz-adv-x="1140" d="M80 248q0 24 19 216.5t38 373.5l19 180q6 57 114 57h39q103 0 103 -57q-72 -672 -72 -699q0 -120 127 -120q67 0 129.5 49.5t101.5 146.5l66 623q6 57 113 57h41q102 0 102 -57q-78 -717 -78 -754q0 -42 17 -58t49 -16q17 0 36.5 6.5t22.5 6.5q14 0 14 -21 q0 -31 -12 -104q-8 -46 -57 -69t-103 -23q-198 0 -221 180q-61 -81 -151.5 -130.5t-186.5 -49.5q-270 0 -270 262zM344 1264l12 116q6 58 117 58q56 0 79 -14.5t23 -43.5l-12 -116q-9 -58 -117 -58q-57 0 -79.5 14t-22.5 44zM686 1264l12 116q6 58 117 58q56 0 79.5 -14.5 t23.5 -43.5l-13 -116q-9 -58 -117 -58q-57 0 -79.5 14t-22.5 44z" />
<glyph unicode="&#xfd;" horiz-adv-x="985" d="M66 1028q0 47 116 47h47q90 0 101 -39l106 -450q8 -35 37 -217h6q41 122 80 217l203 450q16 39 106 39h35q103 0 103 -39q0 -16 -9 -37l-637 -1380q-19 -43 -112 -43h-33q-98 0 -98 37q0 15 12 39l184 368q-247 993 -247 1008zM438 1208q0 4 2 9.5t7.5 16t12.5 21 t20.5 31t27 40t37 54.5t45.5 68q37 53 164 53q110 0 110 -24q0 -15 -15.5 -33t-82.5 -83q-76 -73 -133 -130q-45 -45 -141 -45q-54 0 -54 22z" />
<glyph unicode="&#xfe;" horiz-adv-x="1167" d="M78 -367l196 1852q3 57 113 57h39q52 0 77 -15.5t25 -39.5l-55 -543q104 141 270 141q68 0 127.5 -25.5t108 -77t76.5 -139t28 -200.5q0 -193 -57.5 -342t-163.5 -232t-244 -83q-136 0 -239 90l-45 -441q-6 -59 -115 -59h-39q-51 0 -76.5 16t-25.5 41zM397 254 q77 -64 168 -64q131 0 194.5 117.5t63.5 319.5q0 126 -44 186.5t-124 60.5q-58 0 -114 -46.5t-97 -139.5z" />
<glyph unicode="&#xff;" horiz-adv-x="985" d="M66 1028q0 47 116 47h47q90 0 101 -39l106 -450q8 -35 37 -217h6q41 122 80 217l203 450q16 39 106 39h35q103 0 103 -39q0 -16 -9 -37l-637 -1380q-19 -43 -112 -43h-33q-98 0 -98 37q0 15 12 39l184 368q-247 993 -247 1008zM281 1264l12 116q6 58 117 58 q56 0 79 -14.5t23 -43.5l-12 -116q-9 -58 -117 -58q-57 0 -79.5 14t-22.5 44zM623 1264l12 116q6 58 117 58q56 0 79 -14.5t23 -43.5l-12 -116q-9 -58 -117 -58q-57 0 -79.5 14t-22.5 44z" />
<glyph unicode="&#x152;" horiz-adv-x="2091" d="M92 578q0 418 192 644t527 226q232 0 377 -117l2 17q3 45 22 65.5t60 20.5h741q45 0 45 -68q0 -75 -14 -117.5t-53 -42.5h-549l-37 -358h487q47 0 47 -70q0 -157 -67 -157h-492l-41 -394h549q47 0 47 -67q0 -160 -69 -160h-744q-36 0 -50.5 13t-14.5 46l2 41 q-167 -114 -402 -114q-276 0 -420.5 151.5t-144.5 440.5zM369 604q0 -192 83 -291.5t244 -99.5q199 0 315.5 160t116.5 454q0 194 -83 294t-244 100q-201 0 -316.5 -160.5t-115.5 -456.5z" />
<glyph unicode="&#x153;" horiz-adv-x="1783" d="M88 430q0 105 17.5 197.5t59 177.5t103.5 146.5t157.5 97.5t215.5 36q209 0 326 -120v-2q140 122 362 122q88 0 157 -20t109.5 -50.5t67 -70.5t36 -75t9.5 -70q0 -81 -28.5 -146t-75 -107t-109.5 -70t-129.5 -40t-138.5 -12q-108 0 -201 14q3 -139 66.5 -193.5 t179.5 -54.5q76 0 149 24t117.5 47.5t50.5 23.5q5 0 8 -1t6 -7t3 -19q0 -1 -5 -56.5t-10 -76.5q-10 -38 -51 -67t-96.5 -43.5t-107 -21.5t-95.5 -7q-242 0 -362 120q-142 -120 -355 -120q-215 0 -325.5 113.5t-110.5 330.5zM348 442q0 -252 197 -252q156 0 225 166 q-4 46 -4 70q0 162 41 287q-27 168 -189 168q-130 0 -200 -114.5t-70 -324.5zM1038 606h115q77 0 143 16t112 53.5t46 92.5q0 52 -39.5 82.5t-105.5 30.5q-218 0 -271 -275z" />
<glyph unicode="&#x178;" horiz-adv-x="1144" d="M82 1393q0 27 29.5 36t89.5 9h63q89 0 107 -37l233 -461l334 463q23 35 115 35h53q106 0 106 -39q0 -15 -20 -45l-485 -656l-68 -645q-6 -57 -113 -57h-51q-56 0 -79 14t-23 43l67 652l-346 649q-12 21 -12 39zM383 1626l12 117q6 57 117 57q56 0 79 -14t23 -43l-12 -117 q-9 -57 -117 -57q-57 0 -79.5 13.5t-22.5 43.5zM725 1626l12 117q6 57 117 57q56 0 79 -14t23 -43l-12 -117q-9 -57 -117 -57q-57 0 -79.5 13.5t-22.5 43.5z" />
<glyph unicode="&#x2c6;" d="M39 1196q0 15 14 35l148 199q19 24 46 32t72 8h33q44 0 70.5 -8t40.5 -32l104 -199q8 -13 8 -29q-3 -28 -45 -28h-30q-77 0 -107 40l-74 109l-92 -106q-36 -43 -114 -43h-33q-41 0 -41 22z" />
<glyph unicode="&#x2dc;" horiz-adv-x="747" d="M92 1276q26 66 80 104.5t131 38.5q46 0 160.5 -34.5t150.5 -36.5q43 0 76 43q20 26 38.5 31t37.5 -3l20 -6q54 -16 31 -72q-26 -66 -79.5 -104.5t-129.5 -38.5q-47 0 -163 34.5t-152 35.5q-43 0 -74 -43q-21 -25 -38 -30.5t-38 1.5l-20 8q-54 16 -31 72z" />
<glyph unicode="&#x2000;" horiz-adv-x="942" />
<glyph unicode="&#x2001;" horiz-adv-x="1884" />
<glyph unicode="&#x2002;" horiz-adv-x="942" />
<glyph unicode="&#x2003;" horiz-adv-x="1884" />
<glyph unicode="&#x2004;" horiz-adv-x="628" />
<glyph unicode="&#x2005;" horiz-adv-x="471" />
<glyph unicode="&#x2006;" horiz-adv-x="314" />
<glyph unicode="&#x2007;" horiz-adv-x="314" />
<glyph unicode="&#x2008;" horiz-adv-x="235" />
<glyph unicode="&#x2009;" horiz-adv-x="376" />
<glyph unicode="&#x200a;" horiz-adv-x="104" />
<glyph unicode="&#x2010;" d="M63 512q0 127 68 127h410q47 0 47 -64q0 -19 -2.5 -37.5t-8.5 -41t-21 -36.5t-36 -14h-409q-48 0 -48 66z" />
<glyph unicode="&#x2011;" d="M63 512q0 127 68 127h410q47 0 47 -64q0 -19 -2.5 -37.5t-8.5 -41t-21 -36.5t-36 -14h-409q-48 0 -48 66z" />
<glyph unicode="&#x2012;" d="M63 512q0 127 68 127h410q47 0 47 -64q0 -19 -2.5 -37.5t-8.5 -41t-21 -36.5t-36 -14h-409q-48 0 -48 66z" />
<glyph unicode="&#x2013;" horiz-adv-x="1024" d="M-6 512q0 129 67 129h922q47 0 47 -66q0 -18 -2 -36t-8 -40.5t-21 -36t-36 -13.5h-922q-47 0 -47 63z" />
<glyph unicode="&#x2014;" horiz-adv-x="2048" d="M-2 512q0 19 2.5 37.5t8.5 41t21 36.5t36 14h1935q45 0 45 -66q0 -18 -2.5 -36t-8.5 -40t-20 -36t-35 -14h-1935q-26 0 -36.5 15t-10.5 48z" />
<glyph unicode="&#x2018;" horiz-adv-x="434" d="M35 1087q3 71 39 155.5t84 149t98.5 108.5t81.5 44q29 0 52.5 -8.5t23.5 -26.5q0 -15 -21 -59q-43 -78 -70.5 -157t-39.5 -197q-7 -82 -117 -82h-31q-100 0 -100 73z" />
<glyph unicode="&#x2019;" horiz-adv-x="434" d="M25 1051q0 17 28 71q84 154 105 340q7 82 114 82h31q100 0 100 -74q-3 -71 -38.5 -154.5t-83.5 -148.5t-98.5 -109t-82.5 -44q-29 0 -52 8.5t-23 28.5z" />
<glyph unicode="&#x201a;" horiz-adv-x="405" d="M0 -213q0 18 16 47q29 52 47 90.5t39.5 114t30.5 162.5q7 80 115 80h31q100 0 100 -72q-4 -94 -61.5 -205t-128 -182.5t-113.5 -71.5q-28 0 -52 9.5t-24 27.5z" />
<glyph unicode="&#x201c;" horiz-adv-x="716" d="M-4 1087q3 71 39 155.5t84 149t98.5 108.5t81.5 44q29 0 52.5 -8.5t23.5 -26.5q0 -15 -21 -59q-43 -78 -70.5 -157t-39.5 -197q-7 -82 -117 -82h-31q-100 0 -100 73zM332 1087q3 71 39 155.5t84 149t98.5 108.5t81.5 44q29 0 52.5 -8.5t23.5 -26.5q0 -15 -21 -59 q-43 -78 -70.5 -157t-39.5 -197q-7 -82 -117 -82h-31q-100 0 -100 73z" />
<glyph unicode="&#x201d;" horiz-adv-x="716" d="M0 1051q0 15 29 71q83 151 104 340q7 82 115 82h31q100 0 100 -74q-3 -71 -38.5 -154.5t-83.5 -148.5t-98.5 -109t-82.5 -44q-29 0 -52.5 8.5t-23.5 28.5zM336 1051q0 15 29 71q83 151 104 340q7 82 115 82h30q101 0 101 -74q-3 -71 -38.5 -154.5t-83.5 -148.5 t-98.5 -109t-82.5 -44q-29 0 -52.5 8.5t-23.5 28.5z" />
<glyph unicode="&#x201e;" horiz-adv-x="688" d="M-25 -213q0 16 17 47q29 52 47 90.5t39.5 114t30.5 162.5q7 80 114 80h31q100 0 100 -72q-4 -94 -61.5 -205t-128 -182.5t-113.5 -71.5q-28 0 -52 9.5t-24 27.5zM309 -213q0 16 17 47q29 51 47 90.5t39 114t30 162.5q7 80 115 80h31q100 0 100 -72q-4 -94 -61.5 -205 t-128 -182.5t-113.5 -71.5q-28 0 -52 9.5t-24 27.5z" />
<glyph unicode="&#x2022;" horiz-adv-x="688" d="M74 641q0 115 84.5 204t210.5 89q103 0 172 -68.5t69 -169.5q0 -122 -85 -207.5t-212 -85.5q-103 0 -171 68.5t-68 169.5z" />
<glyph unicode="&#x2026;" horiz-adv-x="1263" d="M59 53l17 170q6 58 114 58h56q56 0 78 -14.5t22 -43.5l-16 -170q-6 -57 -115 -57h-55q-58 0 -79.5 13t-21.5 44zM489 53l17 170q6 58 115 58h55q56 0 78 -14.5t22 -43.5l-16 -170q-6 -57 -115 -57h-55q-58 0 -79.5 13t-21.5 44zM918 53l16 170q6 58 115 58h55 q56 0 78 -14.5t22 -43.5l-16 -170q-6 -57 -115 -57h-55q-58 0 -79 13t-21 44z" />
<glyph unicode="&#x202f;" horiz-adv-x="376" />
<glyph unicode="&#x2039;" horiz-adv-x="614" d="M68 512q0 56 36 94l297 316q25 28 56 28q26 0 60 -27.5t34 -56.5q0 -20 -25 -49l-254 -289l195 -290q12 -18 12 -37q0 -26 -38.5 -61.5t-73.5 -35.5q-29 0 -48 31l-229 316q-25 31 -22 61z" />
<glyph unicode="&#x203a;" horiz-adv-x="614" d="M57 190q0 17 23 48l256 288l-195 291q-12 18 -12 37q0 29 39.5 62.5t73.5 33.5q25 0 47 -28l229 -316q23 -33 23 -65q0 -50 -39 -92l-295 -316q-29 -29 -55 -29q-27 0 -61 29.5t-34 56.5z" />
<glyph unicode="&#x205f;" horiz-adv-x="471" />
<glyph unicode="&#x20ac;" horiz-adv-x="1228" d="M-23 524q0 103 62 103h74q9 114 16 168h-76q-43 0 -43 45q0 102 62 102h90q67 240 237 373t443 133q80 0 160 -17t134 -47.5t54 -64.5q0 -35 -48 -100.5t-79 -65.5q-4 0 -35 17.5t-89 35t-128 17.5q-280 0 -375 -281h535q19 0 24.5 -6.5t5.5 -22.5q0 -36 -25 -77t-73 -41 h-504q-12 -102 -12 -168h551q19 0 25 -6.5t6 -24.5q0 -20 -9 -45.5t-33 -48.5t-57 -23h-475q20 -135 98 -202.5t205 -67.5q85 0 163 22.5t122.5 45t48.5 22.5q21 0 21 -29q0 -61 -19 -164q-7 -42 -77.5 -71t-143 -39t-133.5 -10q-269 0 -408.5 120.5t-156.5 372.5h-95 q-43 0 -43 45z" />
<glyph unicode="&#x2122;" horiz-adv-x="1581" d="M53 1354v30q0 27 7 38.5t24 11.5h543q17 0 23.5 -11.5t6.5 -38.5v-30q0 -49 -30 -49h-195v-648q0 -32 -61 -32h-29q-61 0 -61 32v648h-197q-31 0 -31 49zM713 657v746q0 33 61 33h53q49 0 64 -27l184 -324l35 -69l35 65l186 328q15 27 64 27h53q59 0 59 -33v-746 q0 -32 -59 -32h-25q-61 0 -61 32v529l-6 4l-189 -340q-8 -19 -37 -19h-38q-29 0 -37 19l-193 342l-4 -4v-531q0 -32 -61 -32h-23q-61 0 -61 32z" />
<glyph unicode="&#x25fc;" horiz-adv-x="1075" d="M0 0v1075h1075v-1075h-1075z" />
</font>
</defs>
</svg>
